<ttFont>
<head>
    <!-- Most of this table will be recalculated by the compiler -->
    <tableVersion value="1.0"/>
    <fontRevision value="1.0"/>
    <checkSumAdjustment value="0xdf705fac"/>
    <magicNumber value="0x5f0f3cf5"/>
    <flags value="00000000 00011011"/>
    <unitsPerEm value="1000"/>
    <created value="Sat Dec  6 13:43:37 2025"/>
    <modified value="Sat Dec  6 13:50:10 2025"/>
    <xMin value="-1"/>
    <yMin value="-250"/>
    <xMax value="1171"/>
    <yMax value="750"/>
    <macStyle value="00000000 00000010"/>
    <lowestRecPPEM value="6"/>
    <fontDirectionHint value="2"/>
    <indexToLocFormat value="0"/>
    <glyphDataFormat value="0"/>
  </head>
    <TTGlyph name="A" xMin="57" yMin="0" xMax="810" yMax="713">
      <contour>
        <pt x="573" y="690" on="1"/>
        <pt x="580" y="701" on="0"/>
        <pt x="593" y="713" on="0"/>
        <pt x="607" y="713" on="1"/>
        <pt x="621" y="713" on="0"/>
        <pt x="629" y="701" on="0"/>
        <pt x="631" y="685" on="1"/>
        <pt x="719" y="68" on="1"/>
        <pt x="720" y="59" on="0"/>
        <pt x="724" y="47" on="0"/>
        <pt x="736" y="39" on="0"/>
        <pt x="760" y="36" on="0"/>
        <pt x="782" y="36" on="1"/>
        <pt x="794" y="36" on="0"/>
        <pt x="810" y="32" on="0"/>
        <pt x="810" y="21" on="1"/>
        <pt x="810" y="0" on="0"/>
        <pt x="790" y="0" on="1"/>
        <pt x="776" y="0" on="0"/>
        <pt x="747" y="2" on="0"/>
        <pt x="733" y="3" on="1"/>
        <pt x="719" y="3" on="0"/>
        <pt x="688" y="4" on="0"/>
        <pt x="674" y="4" on="1"/>
        <pt x="663" y="4" on="0"/>
        <pt x="628" y="3" on="0"/>
        <pt x="591" y="1" on="0"/>
        <pt x="556" y="0" on="0"/>
        <pt x="545" y="0" on="1"/>
        <pt x="535" y="0" on="0"/>
        <pt x="529" y="11" on="0"/>
        <pt x="529" y="14" on="1"/>
        <pt x="529" y="31" on="0"/>
        <pt x="546" y="36" on="0"/>
        <pt x="555" y="36" on="1"/>
        <pt x="577" y="36" on="0"/>
        <pt x="603" y="41" on="0"/>
        <pt x="617" y="49" on="0"/>
        <pt x="623" y="58" on="0"/>
        <pt x="624" y="62" on="1"/>
        <pt x="600" y="228" on="1"/>
        <pt x="314" y="228" on="1"/>
        <pt x="234" y="104" on="1"/>
        <pt x="230" y="97" on="0"/>
        <pt x="219" y="75" on="0"/>
        <pt x="219" y="66" on="1"/>
        <pt x="219" y="56" on="0"/>
        <pt x="231" y="44" on="0"/>
        <pt x="246" y="38" on="0"/>
        <pt x="260" y="36" on="0"/>
        <pt x="263" y="36" on="1"/>
        <pt x="266" y="36" on="0"/>
        <pt x="280" y="32" on="0"/>
        <pt x="280" y="22" on="1"/>
        <pt x="280" y="5" on="0"/>
        <pt x="264" y="0" on="0"/>
        <pt x="260" y="0" on="1"/>
        <pt x="237" y="0" on="0"/>
        <pt x="181" y="4" on="0"/>
        <pt x="157" y="4" on="1"/>
        <pt x="137" y="4" on="0"/>
        <pt x="91" y="0" on="0"/>
        <pt x="71" y="0" on="1"/>
        <pt x="67" y="0" on="0"/>
        <pt x="57" y="7" on="0"/>
        <pt x="57" y="15" on="1"/>
        <pt x="57" y="30" on="0"/>
        <pt x="72" y="35" on="0"/>
        <pt x="80" y="36" on="1"/>
        <pt x="124" y="39" on="0"/>
        <pt x="180" y="80" on="0"/>
        <pt x="206" y="120" on="1"/>
      </contour>
      <contour>
        <pt x="595" y="264" on="1"/>
        <pt x="548" y="591" on="1"/>
        <pt x="338" y="264" on="1"/>
      </contour>
    </TTGlyph>
    <TTGlyph name="B" xMin="72" yMin="0" xMax="837" yMax="683">
      <contour>
        <pt x="323" y="609" on="1"/>
        <pt x="326" y="620" on="0"/>
        <pt x="327" y="629" on="0"/>
        <pt x="327" y="631" on="1"/>
        <pt x="327" y="639" on="0"/>
        <pt x="320" y="643" on="0"/>
        <pt x="304" y="645" on="1"/>
        <pt x="290" y="647" on="0"/>
        <pt x="267" y="647" on="0"/>
        <pt x="266" y="647" on="1"/>
        <pt x="251" y="647" on="0"/>
        <pt x="234" y="650" on="0"/>
        <pt x="234" y="661" on="1"/>
        <pt x="234" y="678" on="0"/>
        <pt x="252" y="683" on="0"/>
        <pt x="266" y="683" on="1"/>
        <pt x="630" y="683" on="1"/>
        <pt x="679" y="683" on="0"/>
        <pt x="756" y="660" on="0"/>
        <pt x="809" y="621" on="0"/>
        <pt x="837" y="570" on="0"/>
        <pt x="837" y="541" on="1"/>
        <pt x="837" y="509" on="0"/>
        <pt x="802" y="449" on="0"/>
        <pt x="741" y="401" on="0"/>
        <pt x="660" y="365" on="0"/>
        <pt x="615" y="357" on="1"/>
        <pt x="655" y="353" on="0"/>
        <pt x="718" y="327" on="0"/>
        <pt x="762" y="289" on="0"/>
        <pt x="786" y="241" on="0"/>
        <pt x="786" y="214" on="1"/>
        <pt x="786" y="177" on="0"/>
        <pt x="740" y="101" on="0"/>
        <pt x="661" y="39" on="0"/>
        <pt x="552" y="0" on="0"/>
        <pt x="489" y="0" on="1"/>
        <pt x="102" y="0" on="1"/>
        <pt x="88" y="0" on="0"/>
        <pt x="72" y="4" on="0"/>
        <pt x="72" y="15" on="1"/>
        <pt x="72" y="31" on="0"/>
        <pt x="89" y="36" on="0"/>
        <pt x="102" y="36" on="1"/>
        <pt x="131" y="36" on="0"/>
        <pt x="163" y="40" on="0"/>
        <pt x="180" y="49" on="0"/>
        <pt x="187" y="65" on="0"/>
        <pt x="190" y="78" on="1"/>
      </contour>
      <contour>
        <pt x="514" y="369" on="1"/>
        <pt x="564" y="369" on="0"/>
        <pt x="647" y="400" on="0"/>
        <pt x="706" y="450" on="0"/>
        <pt x="739" y="512" on="0"/>
        <pt x="739" y="542" on="1"/>
        <pt x="739" y="556" on="0"/>
        <pt x="729" y="593" on="0"/>
        <pt x="701" y="625" on="0"/>
        <pt x="652" y="647" on="0"/>
        <pt x="614" y="647" on="1"/>
        <pt x="462" y="647" on="1"/>
        <pt x="446" y="647" on="0"/>
        <pt x="429" y="645" on="0"/>
        <pt x="419" y="638" on="0"/>
        <pt x="414" y="625" on="0"/>
        <pt x="411" y="613" on="1"/>
        <pt x="350" y="369" on="1"/>
      </contour>
      <contour>
        <pt x="463" y="36" on="1"/>
        <pt x="508" y="36" on="0"/>
        <pt x="589" y="66" on="0"/>
        <pt x="650" y="117" on="0"/>
        <pt x="685" y="184" on="0"/>
        <pt x="685" y="221" on="1"/>
        <pt x="685" y="243" on="0"/>
        <pt x="671" y="286" on="0"/>
        <pt x="640" y="320" on="0"/>
        <pt x="590" y="341" on="0"/>
        <pt x="555" y="341" on="1"/>
        <pt x="343" y="341" on="1"/>
        <pt x="274" y="67" on="1"/>
        <pt x="271" y="56" on="0"/>
        <pt x="270" y="47" on="0"/>
        <pt x="270" y="46" on="1"/>
        <pt x="270" y="39" on="0"/>
        <pt x="279" y="36" on="0"/>
        <pt x="302" y="36" on="1"/>
      </contour>
    </TTGlyph>
    <TTGlyph name="C" xMin="70" yMin="-20" xMax="843" yMax="703">
      <contour>
        <pt x="781" y="439" on="1"/>
        <pt x="777" y="425" on="0"/>
        <pt x="772" y="417" on="0"/>
        <pt x="760" y="417" on="1"/>
        <pt x="756" y="417" on="0"/>
        <pt x="742" y="420" on="0"/>
        <pt x="742" y="430" on="1"/>
        <pt x="742" y="435" on="0"/>
        <pt x="745" y="450" on="0"/>
        <pt x="745" y="471" on="1"/>
        <pt x="745" y="513" on="0"/>
        <pt x="720" y="585" on="0"/>
        <pt x="673" y="637" on="0"/>
        <pt x="605" y="667" on="0"/>
        <pt x="561" y="667" on="1"/>
        <pt x="525" y="667" on="0"/>
        <pt x="452" y="650" on="0"/>
        <pt x="382" y="619" on="0"/>
        <pt x="318" y="573" on="0"/>
        <pt x="292" y="544" on="1"/>
        <pt x="249" y="497" on="0"/>
        <pt x="200" y="395" on="0"/>
        <pt x="176" y="307" on="0"/>
        <pt x="170" y="242" on="0"/>
        <pt x="170" y="231" on="1"/>
        <pt x="170" y="172" on="0"/>
        <pt x="210" y="90" on="0"/>
        <pt x="274" y="39" on="0"/>
        <pt x="354" y="16" on="0"/>
        <pt x="394" y="16" on="1"/>
        <pt x="439" y="16" on="0"/>
        <pt x="534" y="47" on="0"/>
        <pt x="616" y="104" on="0"/>
        <pt x="681" y="186" on="0"/>
        <pt x="696" y="237" on="1"/>
        <pt x="698" y="245" on="0"/>
        <pt x="704" y="253" on="0"/>
        <pt x="714" y="253" on="1"/>
        <pt x="718" y="253" on="0"/>
        <pt x="731" y="250" on="0"/>
        <pt x="731" y="240" on="1"/>
        <pt x="731" y="237" on="0"/>
        <pt x="722" y="204" on="0"/>
        <pt x="699" y="158" on="0"/>
        <pt x="660" y="103" on="0"/>
        <pt x="630" y="78" on="1"/>
        <pt x="591" y="45" on="0"/>
        <pt x="518" y="7" on="0"/>
        <pt x="452" y="-14" on="0"/>
        <pt x="397" y="-20" on="0"/>
        <pt x="377" y="-20" on="1"/>
        <pt x="310" y="-20" on="0"/>
        <pt x="197" y="22" on="0"/>
        <pt x="116" y="97" on="0"/>
        <pt x="70" y="201" on="0"/>
        <pt x="70" y="262" on="1"/>
        <pt x="70" y="347" on="0"/>
        <pt x="152" y="506" on="0"/>
        <pt x="287" y="629" on="0"/>
        <pt x="460" y="703" on="0"/>
        <pt x="551" y="703" on="1"/>
        <pt x="597" y="703" on="0"/>
        <pt x="665" y="679" on="0"/>
        <pt x="711" y="647" on="0"/>
        <pt x="736" y="619" on="0"/>
        <pt x="739" y="614" on="1"/>
        <pt x="812" y="691" on="1"/>
        <pt x="819" y="699" on="0"/>
        <pt x="825" y="703" on="0"/>
        <pt x="830" y="703" on="1"/>
        <pt x="838" y="703" on="0"/>
        <pt x="843" y="694" on="0"/>
        <pt x="843" y="690" on="1"/>
      </contour>
    </TTGlyph>
    <TTGlyph name="D" xMin="71" yMin="0" xMax="893" yMax="683">
      <contour>
        <pt x="322" y="609" on="1"/>
        <pt x="325" y="620" on="0"/>
        <pt x="326" y="629" on="0"/>
        <pt x="326" y="631" on="1"/>
        <pt x="326" y="639" on="0"/>
        <pt x="319" y="643" on="0"/>
        <pt x="304" y="645" on="1"/>
        <pt x="290" y="647" on="0"/>
        <pt x="278" y="647" on="0"/>
        <pt x="266" y="647" on="1"/>
        <pt x="249" y="647" on="0"/>
        <pt x="233" y="650" on="0"/>
        <pt x="233" y="661" on="1"/>
        <pt x="233" y="678" on="0"/>
        <pt x="250" y="683" on="0"/>
        <pt x="265" y="683" on="1"/>
        <pt x="629" y="683" on="1"/>
        <pt x="690" y="683" on="0"/>
        <pt x="788" y="643" on="0"/>
        <pt x="856" y="572" on="0"/>
        <pt x="893" y="477" on="0"/>
        <pt x="893" y="422" on="1"/>
        <pt x="893" y="340" on="0"/>
        <pt x="820" y="188" on="0"/>
        <pt x="698" y="71" on="0"/>
        <pt x="541" y="0" on="0"/>
        <pt x="458" y="0" on="1"/>
        <pt x="101" y="0" on="1"/>
        <pt x="87" y="0" on="0"/>
        <pt x="71" y="3" on="0"/>
        <pt x="71" y="14" on="1"/>
        <pt x="71" y="31" on="0"/>
        <pt x="87" y="36" on="0"/>
        <pt x="101" y="36" on="1"/>
        <pt x="130" y="36" on="0"/>
        <pt x="163" y="40" on="0"/>
        <pt x="180" y="49" on="0"/>
        <pt x="186" y="65" on="0"/>
        <pt x="189" y="78" on="1"/>
      </contour>
      <contour>
        <pt x="276" y="67" on="1"/>
        <pt x="273" y="56" on="0"/>
        <pt x="272" y="47" on="0"/>
        <pt x="272" y="46" on="1"/>
        <pt x="272" y="39" on="0"/>
        <pt x="281" y="36" on="0"/>
        <pt x="304" y="36" on="1"/>
        <pt x="440" y="36" on="1"/>
        <pt x="486" y="36" on="0"/>
        <pt x="564" y="57" on="0"/>
        <pt x="627" y="90" on="0"/>
        <pt x="673" y="128" on="0"/>
        <pt x="688" y="145" on="1"/>
        <pt x="726" y="188" on="0"/>
        <pt x="769" y="289" on="0"/>
        <pt x="792" y="379" on="0"/>
        <pt x="798" y="446" on="0"/>
        <pt x="798" y="455" on="1"/>
        <pt x="798" y="506" on="0"/>
        <pt x="765" y="579" on="0"/>
        <pt x="709" y="625" on="0"/>
        <pt x="634" y="647" on="0"/>
        <pt x="592" y="647" on="1"/>
        <pt x="464" y="647" on="1"/>
        <pt x="448" y="647" on="0"/>
        <pt x="431" y="645" on="0"/>
        <pt x="421" y="638" on="0"/>
        <pt x="416" y="625" on="0"/>
        <pt x="413" y="613" on="1"/>
      </contour>
    </TTGlyph>
    <TTGlyph name="E" xMin="69" yMin="0" xMax="843" yMax="679">
      <contour>
        <pt x="698" y="18" on="1"/>
        <pt x="692" y="4" on="0"/>
        <pt x="683" y="0" on="0"/>
        <pt x="664" y="0" on="1"/>
        <pt x="99" y="0" on="1"/>
        <pt x="85" y="0" on="0"/>
        <pt x="69" y="3" on="0"/>
        <pt x="69" y="14" on="1"/>
        <pt x="69" y="31" on="0"/>
        <pt x="85" y="36" on="0"/>
        <pt x="99" y="36" on="1"/>
        <pt x="128" y="36" on="0"/>
        <pt x="161" y="39" on="0"/>
        <pt x="177" y="49" on="0"/>
        <pt x="184" y="67" on="0"/>
        <pt x="188" y="82" on="1"/>
        <pt x="319" y="605" on="1"/>
        <pt x="320" y="609" on="0"/>
        <pt x="323" y="622" on="0"/>
        <pt x="323" y="627" on="1"/>
        <pt x="323" y="635" on="0"/>
        <pt x="316" y="639" on="0"/>
        <pt x="301" y="641" on="1"/>
        <pt x="287" y="643" on="0"/>
        <pt x="275" y="643" on="0"/>
        <pt x="263" y="643" on="1"/>
        <pt x="246" y="643" on="0"/>
        <pt x="230" y="646" on="0"/>
        <pt x="230" y="657" on="1"/>
        <pt x="230" y="674" on="0"/>
        <pt x="247" y="679" on="0"/>
        <pt x="262" y="679" on="1"/>
        <pt x="812" y="679" on="1"/>
        <pt x="831" y="679" on="0"/>
        <pt x="843" y="672" on="0"/>
        <pt x="841" y="649" on="1"/>
        <pt x="823" y="475" on="1"/>
        <pt x="821" y="462" on="0"/>
        <pt x="816" y="449" on="0"/>
        <pt x="805" y="449" on="1"/>
        <pt x="794" y="449" on="0"/>
        <pt x="788" y="460" on="0"/>
        <pt x="788" y="466" on="1"/>
        <pt x="788" y="470" on="0"/>
        <pt x="792" y="507" on="0"/>
        <pt x="792" y="527" on="1"/>
        <pt x="792" y="560" on="0"/>
        <pt x="778" y="605" on="0"/>
        <pt x="741" y="632" on="0"/>
        <pt x="677" y="643" on="0"/>
        <pt x="628" y="643" on="1"/>
        <pt x="465" y="643" on="1"/>
        <pt x="449" y="643" on="0"/>
        <pt x="432" y="641" on="0"/>
        <pt x="422" y="634" on="0"/>
        <pt x="417" y="621" on="0"/>
        <pt x="414" y="609" on="1"/>
        <pt x="354" y="371" on="1"/>
        <pt x="459" y="371" on="1"/>
        <pt x="491" y="371" on="0"/>
        <pt x="535" y="378" on="0"/>
        <pt x="567" y="397" on="0"/>
        <pt x="587" y="433" on="0"/>
        <pt x="595" y="462" on="1"/>
        <pt x="600" y="478" on="0"/>
        <pt x="605" y="488" on="0"/>
        <pt x="615" y="488" on="1"/>
        <pt x="622" y="488" on="0"/>
        <pt x="632" y="482" on="0"/>
        <pt x="632" y="474" on="1"/>
        <pt x="632" y="473" on="0"/>
        <pt x="631" y="468" on="0"/>
        <pt x="629" y="459" on="1"/>
        <pt x="574" y="240" on="1"/>
        <pt x="571" y="227" on="0"/>
        <pt x="566" y="218" on="0"/>
        <pt x="555" y="218" on="1"/>
        <pt x="543" y="218" on="0"/>
        <pt x="538" y="230" on="0"/>
        <pt x="538" y="232" on="1"/>
        <pt x="538" y="234" on="0"/>
        <pt x="539" y="237" on="0"/>
        <pt x="541" y="244" on="1"/>
        <pt x="544" y="257" on="0"/>
        <pt x="548" y="281" on="0"/>
        <pt x="548" y="289" on="1"/>
        <pt x="548" y="301" on="0"/>
        <pt x="542" y="319" on="0"/>
        <pt x="522" y="330" on="0"/>
        <pt x="487" y="335" on="0"/>
        <pt x="457" y="335" on="1"/>
        <pt x="345" y="335" on="1"/>
        <pt x="278" y="67" on="1"/>
        <pt x="275" y="56" on="0"/>
        <pt x="274" y="47" on="0"/>
        <pt x="274" y="46" on="1"/>
        <pt x="274" y="39" on="0"/>
        <pt x="283" y="36" on="0"/>
        <pt x="306" y="36" on="1"/>
        <pt x="476" y="36" on="1"/>
        <pt x="537" y="36" on="0"/>
        <pt x="621" y="56" on="0"/>
        <pt x="683" y="102" on="0"/>
        <pt x="731" y="176" on="0"/>
        <pt x="755" y="230" on="1"/>
        <pt x="764" y="250" on="0"/>
        <pt x="768" y="257" on="0"/>
        <pt x="770" y="259" on="1"/>
        <pt x="773" y="262" on="0"/>
        <pt x="779" y="263" on="0"/>
        <pt x="781" y="263" on="1"/>
        <pt x="791" y="263" on="0"/>
        <pt x="798" y="254" on="0"/>
        <pt x="798" y="249" on="1"/>
        <pt x="798" y="248" on="0"/>
        <pt x="797" y="241" on="0"/>
        <pt x="792" y="231" on="1"/>
      </contour>
    </TTGlyph>
    <TTGlyph name="F" xMin="69" yMin="0" xMax="827" yMax="679">
      <contour>
        <pt x="280" y="73" on="1"/>
        <pt x="278" y="65" on="0"/>
        <pt x="277" y="58" on="0"/>
        <pt x="277" y="55" on="1"/>
        <pt x="277" y="44" on="0"/>
        <pt x="292" y="40" on="0"/>
        <pt x="308" y="38" on="1"/>
        <pt x="327" y="36" on="0"/>
        <pt x="358" y="36" on="0"/>
        <pt x="360" y="36" on="1"/>
        <pt x="377" y="36" on="0"/>
        <pt x="395" y="33" on="0"/>
        <pt x="395" y="22" on="1"/>
        <pt x="395" y="5" on="0"/>
        <pt x="378" y="0" on="0"/>
        <pt x="373" y="0" on="1"/>
        <pt x="354" y="0" on="0"/>
        <pt x="314" y="3" on="0"/>
        <pt x="294" y="3" on="1"/>
        <pt x="217" y="4" on="1"/>
        <pt x="206" y="4" on="0"/>
        <pt x="170" y="3" on="0"/>
        <pt x="132" y="1" on="0"/>
        <pt x="96" y="0" on="0"/>
        <pt x="85" y="0" on="1"/>
        <pt x="69" y="0" on="0"/>
        <pt x="69" y="15" on="1"/>
        <pt x="69" y="31" on="0"/>
        <pt x="86" y="36" on="0"/>
        <pt x="99" y="36" on="1"/>
        <pt x="128" y="36" on="0"/>
        <pt x="161" y="39" on="0"/>
        <pt x="177" y="49" on="0"/>
        <pt x="184" y="67" on="0"/>
        <pt x="188" y="82" on="1"/>
        <pt x="319" y="605" on="1"/>
        <pt x="320" y="609" on="0"/>
        <pt x="323" y="622" on="0"/>
        <pt x="323" y="627" on="1"/>
        <pt x="323" y="635" on="0"/>
        <pt x="316" y="639" on="0"/>
        <pt x="300" y="641" on="1"/>
        <pt x="286" y="643" on="0"/>
        <pt x="263" y="643" on="0"/>
        <pt x="262" y="643" on="1"/>
        <pt x="247" y="643" on="0"/>
        <pt x="230" y="646" on="0"/>
        <pt x="230" y="657" on="1"/>
        <pt x="230" y="674" on="0"/>
        <pt x="248" y="679" on="0"/>
        <pt x="262" y="679" on="1"/>
        <pt x="796" y="679" on="1"/>
        <pt x="815" y="679" on="0"/>
        <pt x="827" y="672" on="0"/>
        <pt x="825" y="649" on="1"/>
        <pt x="807" y="475" on="1"/>
        <pt x="805" y="462" on="0"/>
        <pt x="800" y="449" on="0"/>
        <pt x="789" y="449" on="1"/>
        <pt x="778" y="449" on="0"/>
        <pt x="772" y="460" on="0"/>
        <pt x="772" y="466" on="1"/>
        <pt x="772" y="472" on="0"/>
        <pt x="776" y="503" on="0"/>
        <pt x="776" y="528" on="1"/>
        <pt x="776" y="559" on="0"/>
        <pt x="764" y="603" on="0"/>
        <pt x="730" y="630" on="0"/>
        <pt x="668" y="643" on="0"/>
        <pt x="618" y="643" on="1"/>
        <pt x="465" y="643" on="1"/>
        <pt x="449" y="643" on="0"/>
        <pt x="432" y="641" on="0"/>
        <pt x="422" y="634" on="0"/>
        <pt x="417" y="621" on="0"/>
        <pt x="414" y="609" on="1"/>
        <pt x="351" y="358" on="1"/>
        <pt x="451" y="358" on="1"/>
        <pt x="483" y="358" on="0"/>
        <pt x="527" y="365" on="0"/>
        <pt x="558" y="385" on="0"/>
        <pt x="578" y="422" on="0"/>
        <pt x="585" y="451" on="1"/>
        <pt x="589" y="465" on="0"/>
        <pt x="594" y="475" on="0"/>
        <pt x="605" y="475" on="1"/>
        <pt x="622" y="475" on="0"/>
        <pt x="622" y="460" on="1"/>
        <pt x="622" y="458" on="0"/>
        <pt x="619" y="442" on="0"/>
        <pt x="618" y="440" on="1"/>
        <pt x="564" y="228" on="1"/>
        <pt x="560" y="214" on="0"/>
        <pt x="555" y="205" on="0"/>
        <pt x="545" y="205" on="1"/>
        <pt x="528" y="205" on="0"/>
        <pt x="528" y="220" on="1"/>
        <pt x="528" y="223" on="0"/>
        <pt x="531" y="232" on="1"/>
        <pt x="536" y="253" on="0"/>
        <pt x="538" y="266" on="0"/>
        <pt x="538" y="277" on="1"/>
        <pt x="538" y="289" on="0"/>
        <pt x="532" y="307" on="0"/>
        <pt x="512" y="317" on="0"/>
        <pt x="478" y="322" on="0"/>
        <pt x="449" y="322" on="1"/>
        <pt x="342" y="322" on="1"/>
      </contour>
    </TTGlyph>
    <TTGlyph name="G" xMin="70" yMin="-20" xMax="843" yMax="703">
      <contour>
        <pt x="781" y="439" on="1"/>
        <pt x="777" y="425" on="0"/>
        <pt x="772" y="417" on="0"/>
        <pt x="760" y="417" on="1"/>
        <pt x="756" y="417" on="0"/>
        <pt x="742" y="420" on="0"/>
        <pt x="742" y="430" on="1"/>
        <pt x="742" y="435" on="0"/>
        <pt x="745" y="450" on="0"/>
        <pt x="745" y="471" on="1"/>
        <pt x="745" y="513" on="0"/>
        <pt x="720" y="585" on="0"/>
        <pt x="673" y="637" on="0"/>
        <pt x="605" y="667" on="0"/>
        <pt x="561" y="667" on="1"/>
        <pt x="540" y="667" on="0"/>
        <pt x="481" y="659" on="0"/>
        <pt x="411" y="634" on="0"/>
        <pt x="334" y="587" on="0"/>
        <pt x="295" y="549" on="1"/>
        <pt x="267" y="521" on="0"/>
        <pt x="222" y="445" on="0"/>
        <pt x="189" y="361" on="0"/>
        <pt x="171" y="273" on="0"/>
        <pt x="171" y="233" on="1"/>
        <pt x="171" y="170" on="0"/>
        <pt x="215" y="86" on="0"/>
        <pt x="283" y="36" on="0"/>
        <pt x="365" y="16" on="0"/>
        <pt x="402" y="16" on="1"/>
        <pt x="431" y="16" on="0"/>
        <pt x="493" y="26" on="0"/>
        <pt x="548" y="48" on="0"/>
        <pt x="591" y="81" on="0"/>
        <pt x="602" y="104" on="1"/>
        <pt x="604" y="108" on="0"/>
        <pt x="613" y="142" on="0"/>
        <pt x="623" y="181" on="0"/>
        <pt x="631" y="215" on="0"/>
        <pt x="631" y="219" on="1"/>
        <pt x="631" y="228" on="0"/>
        <pt x="622" y="236" on="0"/>
        <pt x="598" y="238" on="1"/>
        <pt x="584" y="240" on="0"/>
        <pt x="554" y="240" on="0"/>
        <pt x="540" y="240" on="1"/>
        <pt x="521" y="240" on="0"/>
        <pt x="504" y="243" on="0"/>
        <pt x="504" y="254" on="1"/>
        <pt x="504" y="271" on="0"/>
        <pt x="521" y="276" on="0"/>
        <pt x="526" y="276" on="1"/>
        <pt x="545" y="276" on="0"/>
        <pt x="586" y="274" on="0"/>
        <pt x="605" y="273" on="1"/>
        <pt x="624" y="272" on="0"/>
        <pt x="669" y="272" on="0"/>
        <pt x="688" y="272" on="1"/>
        <pt x="714" y="272" on="0"/>
        <pt x="773" y="276" on="0"/>
        <pt x="798" y="276" on="1"/>
        <pt x="804" y="276" on="0"/>
        <pt x="813" y="269" on="0"/>
        <pt x="813" y="261" on="1"/>
        <pt x="813" y="245" on="0"/>
        <pt x="796" y="240" on="0"/>
        <pt x="791" y="240" on="1"/>
        <pt x="769" y="240" on="0"/>
        <pt x="744" y="238" on="0"/>
        <pt x="731" y="229" on="0"/>
        <pt x="724" y="210" on="0"/>
        <pt x="719" y="193" on="1"/>
        <pt x="718" y="189" on="0"/>
        <pt x="712" y="164" on="0"/>
        <pt x="705" y="136" on="0"/>
        <pt x="699" y="110" on="0"/>
        <pt x="697" y="103" on="1"/>
        <pt x="678" y="26" on="1"/>
        <pt x="674" y="10" on="0"/>
        <pt x="669" y="1" on="0"/>
        <pt x="662" y="1" on="1"/>
        <pt x="658" y="1" on="0"/>
        <pt x="644" y="13" on="0"/>
        <pt x="630" y="31" on="0"/>
        <pt x="617" y="51" on="0"/>
        <pt x="613" y="59" on="1"/>
        <pt x="594" y="38" on="0"/>
        <pt x="541" y="8" on="0"/>
        <pt x="479" y="-11" on="0"/>
        <pt x="413" y="-20" on="0"/>
        <pt x="380" y="-20" on="1"/>
        <pt x="308" y="-20" on="0"/>
        <pt x="193" y="25" on="0"/>
        <pt x="113" y="101" on="0"/>
        <pt x="70" y="204" on="0"/>
        <pt x="70" y="262" on="1"/>
        <pt x="70" y="347" on="0"/>
        <pt x="152" y="506" on="0"/>
        <pt x="287" y="629" on="0"/>
        <pt x="460" y="703" on="0"/>
        <pt x="551" y="703" on="1"/>
        <pt x="597" y="703" on="0"/>
        <pt x="665" y="679" on="0"/>
        <pt x="711" y="647" on="0"/>
        <pt x="736" y="619" on="0"/>
        <pt x="739" y="614" on="1"/>
        <pt x="812" y="691" on="1"/>
        <pt x="819" y="699" on="0"/>
        <pt x="825" y="703" on="0"/>
        <pt x="830" y="703" on="1"/>
        <pt x="838" y="703" on="0"/>
        <pt x="843" y="694" on="0"/>
        <pt x="843" y="690" on="1"/>
      </contour>
    </TTGlyph>
    <TTGlyph name="Gamma" xMin="69" yMin="0" xMax="796" yMax="679">
      <contour>
        <pt x="280" y="73" on="1"/>
        <pt x="278" y="65" on="0"/>
        <pt x="277" y="58" on="0"/>
        <pt x="277" y="55" on="1"/>
        <pt x="277" y="44" on="0"/>
        <pt x="292" y="40" on="0"/>
        <pt x="308" y="38" on="1"/>
        <pt x="327" y="36" on="0"/>
        <pt x="358" y="36" on="0"/>
        <pt x="360" y="36" on="1"/>
        <pt x="377" y="36" on="0"/>
        <pt x="395" y="33" on="0"/>
        <pt x="395" y="22" on="1"/>
        <pt x="395" y="5" on="0"/>
        <pt x="378" y="0" on="0"/>
        <pt x="373" y="0" on="1"/>
        <pt x="354" y="0" on="0"/>
        <pt x="314" y="3" on="0"/>
        <pt x="294" y="3" on="1"/>
        <pt x="217" y="4" on="1"/>
        <pt x="206" y="4" on="0"/>
        <pt x="170" y="3" on="0"/>
        <pt x="132" y="1" on="0"/>
        <pt x="96" y="0" on="0"/>
        <pt x="85" y="0" on="1"/>
        <pt x="69" y="0" on="0"/>
        <pt x="69" y="15" on="1"/>
        <pt x="69" y="31" on="0"/>
        <pt x="86" y="36" on="0"/>
        <pt x="99" y="36" on="1"/>
        <pt x="128" y="36" on="0"/>
        <pt x="161" y="39" on="0"/>
        <pt x="177" y="49" on="0"/>
        <pt x="184" y="67" on="0"/>
        <pt x="188" y="82" on="1"/>
        <pt x="319" y="605" on="1"/>
        <pt x="320" y="609" on="0"/>
        <pt x="323" y="622" on="0"/>
        <pt x="323" y="627" on="1"/>
        <pt x="323" y="635" on="0"/>
        <pt x="316" y="639" on="0"/>
        <pt x="300" y="641" on="1"/>
        <pt x="286" y="643" on="0"/>
        <pt x="263" y="643" on="0"/>
        <pt x="262" y="643" on="1"/>
        <pt x="247" y="643" on="0"/>
        <pt x="230" y="646" on="0"/>
        <pt x="230" y="657" on="1"/>
        <pt x="230" y="674" on="0"/>
        <pt x="248" y="679" on="0"/>
        <pt x="262" y="679" on="1"/>
        <pt x="765" y="679" on="1"/>
        <pt x="784" y="679" on="0"/>
        <pt x="796" y="672" on="0"/>
        <pt x="794" y="649" on="1"/>
        <pt x="776" y="475" on="1"/>
        <pt x="774" y="462" on="0"/>
        <pt x="769" y="449" on="0"/>
        <pt x="758" y="449" on="1"/>
        <pt x="747" y="449" on="0"/>
        <pt x="741" y="460" on="0"/>
        <pt x="741" y="466" on="1"/>
        <pt x="741" y="481" on="0"/>
        <pt x="746" y="517" on="0"/>
        <pt x="746" y="533" on="1"/>
        <pt x="746" y="565" on="0"/>
        <pt x="733" y="607" on="0"/>
        <pt x="699" y="632" on="0"/>
        <pt x="643" y="643" on="0"/>
        <pt x="599" y="643" on="1"/>
        <pt x="465" y="643" on="1"/>
        <pt x="449" y="643" on="0"/>
        <pt x="432" y="641" on="0"/>
        <pt x="422" y="634" on="0"/>
        <pt x="417" y="621" on="0"/>
        <pt x="414" y="609" on="1"/>
      </contour>
    </TTGlyph>
    <TTGlyph name="H" xMin="69" yMin="0" xMax="960" yMax="683">
      <contour>
        <pt x="709" y="75" on="1"/>
        <pt x="708" y="70" on="0"/>
        <pt x="705" y="58" on="0"/>
        <pt x="705" y="53" on="1"/>
        <pt x="705" y="45" on="0"/>
        <pt x="710" y="40" on="0"/>
        <pt x="727" y="38" on="1"/>
        <pt x="741" y="36" on="0"/>
        <pt x="753" y="36" on="0"/>
        <pt x="765" y="36" on="1"/>
        <pt x="782" y="36" on="0"/>
        <pt x="798" y="32" on="0"/>
        <pt x="798" y="21" on="1"/>
        <pt x="798" y="5" on="0"/>
        <pt x="781" y="0" on="0"/>
        <pt x="777" y="0" on="1"/>
        <pt x="763" y="0" on="0"/>
        <pt x="728" y="2" on="0"/>
        <pt x="713" y="3" on="1"/>
        <pt x="700" y="4" on="0"/>
        <pt x="657" y="4" on="0"/>
        <pt x="644" y="4" on="1"/>
        <pt x="633" y="4" on="0"/>
        <pt x="598" y="3" on="0"/>
        <pt x="560" y="1" on="0"/>
        <pt x="525" y="0" on="0"/>
        <pt x="514" y="0" on="1"/>
        <pt x="498" y="0" on="0"/>
        <pt x="498" y="15" on="1"/>
        <pt x="498" y="31" on="0"/>
        <pt x="515" y="36" on="0"/>
        <pt x="528" y="36" on="1"/>
        <pt x="557" y="36" on="0"/>
        <pt x="590" y="40" on="0"/>
        <pt x="607" y="49" on="0"/>
        <pt x="613" y="65" on="0"/>
        <pt x="616" y="78" on="1"/>
        <pt x="681" y="337" on="1"/>
        <pt x="346" y="337" on="1"/>
        <pt x="280" y="75" on="1"/>
        <pt x="277" y="64" on="0"/>
        <pt x="276" y="54" on="0"/>
        <pt x="276" y="53" on="1"/>
        <pt x="276" y="45" on="0"/>
        <pt x="281" y="40" on="0"/>
        <pt x="298" y="38" on="1"/>
        <pt x="312" y="36" on="0"/>
        <pt x="324" y="36" on="0"/>
        <pt x="336" y="36" on="1"/>
        <pt x="353" y="36" on="0"/>
        <pt x="369" y="32" on="0"/>
        <pt x="369" y="21" on="1"/>
        <pt x="369" y="5" on="0"/>
        <pt x="352" y="0" on="0"/>
        <pt x="348" y="0" on="1"/>
        <pt x="334" y="0" on="0"/>
        <pt x="299" y="2" on="0"/>
        <pt x="284" y="3" on="1"/>
        <pt x="271" y="4" on="0"/>
        <pt x="228" y="4" on="0"/>
        <pt x="215" y="4" on="1"/>
        <pt x="204" y="4" on="0"/>
        <pt x="169" y="3" on="0"/>
        <pt x="131" y="1" on="0"/>
        <pt x="96" y="0" on="0"/>
        <pt x="85" y="0" on="1"/>
        <pt x="69" y="0" on="0"/>
        <pt x="69" y="15" on="1"/>
        <pt x="69" y="31" on="0"/>
        <pt x="86" y="36" on="0"/>
        <pt x="99" y="36" on="1"/>
        <pt x="128" y="36" on="0"/>
        <pt x="161" y="40" on="0"/>
        <pt x="178" y="49" on="0"/>
        <pt x="184" y="65" on="0"/>
        <pt x="187" y="78" on="1"/>
        <pt x="320" y="609" on="1"/>
        <pt x="323" y="620" on="0"/>
        <pt x="324" y="629" on="0"/>
        <pt x="324" y="631" on="1"/>
        <pt x="324" y="639" on="0"/>
        <pt x="317" y="643" on="0"/>
        <pt x="301" y="645" on="1"/>
        <pt x="287" y="647" on="0"/>
        <pt x="264" y="647" on="0"/>
        <pt x="263" y="647" on="1"/>
        <pt x="248" y="647" on="0"/>
        <pt x="231" y="650" on="0"/>
        <pt x="231" y="661" on="1"/>
        <pt x="231" y="678" on="0"/>
        <pt x="247" y="683" on="0"/>
        <pt x="252" y="683" on="1"/>
        <pt x="266" y="683" on="0"/>
        <pt x="300" y="681" on="0"/>
        <pt x="315" y="680" on="1"/>
        <pt x="328" y="679" on="0"/>
        <pt x="371" y="679" on="0"/>
        <pt x="384" y="679" on="1"/>
        <pt x="395" y="679" on="0"/>
        <pt x="430" y="680" on="0"/>
        <pt x="469" y="682" on="0"/>
        <pt x="504" y="683" on="0"/>
        <pt x="515" y="683" on="1"/>
        <pt x="525" y="683" on="0"/>
        <pt x="531" y="672" on="0"/>
        <pt x="531" y="669" on="1"/>
        <pt x="531" y="652" on="0"/>
        <pt x="514" y="647" on="0"/>
        <pt x="501" y="647" on="1"/>
        <pt x="472" y="647" on="0"/>
        <pt x="440" y="643" on="0"/>
        <pt x="423" y="634" on="0"/>
        <pt x="416" y="618" on="0"/>
        <pt x="413" y="605" on="1"/>
        <pt x="355" y="373" on="1"/>
        <pt x="690" y="373" on="1"/>
        <pt x="749" y="609" on="1"/>
        <pt x="752" y="620" on="0"/>
        <pt x="753" y="630" on="0"/>
        <pt x="753" y="631" on="1"/>
        <pt x="753" y="639" on="0"/>
        <pt x="746" y="643" on="0"/>
        <pt x="730" y="645" on="1"/>
        <pt x="716" y="647" on="0"/>
        <pt x="693" y="647" on="0"/>
        <pt x="692" y="647" on="1"/>
        <pt x="677" y="647" on="0"/>
        <pt x="660" y="650" on="0"/>
        <pt x="660" y="661" on="1"/>
        <pt x="660" y="678" on="0"/>
        <pt x="676" y="683" on="0"/>
        <pt x="681" y="683" on="1"/>
        <pt x="695" y="683" on="0"/>
        <pt x="729" y="681" on="0"/>
        <pt x="744" y="680" on="1"/>
        <pt x="757" y="679" on="0"/>
        <pt x="800" y="679" on="0"/>
        <pt x="813" y="679" on="1"/>
        <pt x="824" y="679" on="0"/>
        <pt x="859" y="680" on="0"/>
        <pt x="898" y="682" on="0"/>
        <pt x="933" y="683" on="0"/>
        <pt x="944" y="683" on="1"/>
        <pt x="954" y="683" on="0"/>
        <pt x="960" y="672" on="0"/>
        <pt x="960" y="669" on="1"/>
        <pt x="960" y="652" on="0"/>
        <pt x="943" y="647" on="0"/>
        <pt x="926" y="647" on="1"/>
        <pt x="898" y="647" on="0"/>
        <pt x="867" y="643" on="0"/>
        <pt x="851" y="633" on="0"/>
        <pt x="844" y="616" on="0"/>
        <pt x="841" y="602" on="1"/>
      </contour>
    </TTGlyph>
    <TTGlyph name="I" xMin="64" yMin="0" xMax="536" yMax="683">
      <contour>
        <pt x="280" y="75" on="1"/>
        <pt x="277" y="64" on="0"/>
        <pt x="276" y="54" on="0"/>
        <pt x="276" y="53" on="1"/>
        <pt x="276" y="46" on="0"/>
        <pt x="282" y="40" on="0"/>
        <pt x="299" y="38" on="1"/>
        <pt x="314" y="36" on="0"/>
        <pt x="340" y="36" on="0"/>
        <pt x="342" y="36" on="1"/>
        <pt x="357" y="36" on="0"/>
        <pt x="374" y="33" on="0"/>
        <pt x="374" y="22" on="1"/>
        <pt x="374" y="5" on="0"/>
        <pt x="358" y="0" on="0"/>
        <pt x="353" y="0" on="1"/>
        <pt x="336" y="0" on="0"/>
        <pt x="301" y="3" on="0"/>
        <pt x="284" y="3" on="1"/>
        <pt x="215" y="4" on="1"/>
        <pt x="204" y="4" on="0"/>
        <pt x="167" y="3" on="0"/>
        <pt x="128" y="1" on="0"/>
        <pt x="91" y="0" on="0"/>
        <pt x="80" y="0" on="1"/>
        <pt x="68" y="0" on="0"/>
        <pt x="64" y="13" on="0"/>
        <pt x="64" y="14" on="1"/>
        <pt x="64" y="31" on="0"/>
        <pt x="81" y="36" on="0"/>
        <pt x="101" y="36" on="1"/>
        <pt x="129" y="36" on="0"/>
        <pt x="161" y="40" on="0"/>
        <pt x="177" y="50" on="0"/>
        <pt x="184" y="67" on="0"/>
        <pt x="187" y="79" on="1"/>
        <pt x="320" y="610" on="1"/>
        <pt x="322" y="616" on="0"/>
        <pt x="324" y="626" on="0"/>
        <pt x="324" y="631" on="1"/>
        <pt x="324" y="639" on="0"/>
        <pt x="312" y="643" on="0"/>
        <pt x="297" y="645" on="1"/>
        <pt x="284" y="647" on="0"/>
        <pt x="260" y="647" on="0"/>
        <pt x="259" y="647" on="1"/>
        <pt x="242" y="647" on="0"/>
        <pt x="226" y="650" on="0"/>
        <pt x="226" y="661" on="1"/>
        <pt x="226" y="678" on="0"/>
        <pt x="242" y="683" on="0"/>
        <pt x="247" y="683" on="1"/>
        <pt x="264" y="683" on="0"/>
        <pt x="299" y="680" on="0"/>
        <pt x="316" y="680" on="1"/>
        <pt x="385" y="679" on="1"/>
        <pt x="402" y="679" on="0"/>
        <pt x="436" y="680" on="0"/>
        <pt x="453" y="680" on="1"/>
        <pt x="469" y="680" on="0"/>
        <pt x="504" y="683" on="0"/>
        <pt x="520" y="683" on="1"/>
        <pt x="536" y="683" on="0"/>
        <pt x="536" y="668" on="1"/>
        <pt x="536" y="652" on="0"/>
        <pt x="518" y="647" on="0"/>
        <pt x="499" y="647" on="1"/>
        <pt x="471" y="647" on="0"/>
        <pt x="440" y="643" on="0"/>
        <pt x="423" y="633" on="0"/>
        <pt x="416" y="617" on="0"/>
        <pt x="413" y="604" on="1"/>
      </contour>
    </TTGlyph>
    <TTGlyph name="J" xMin="102" yMin="-20" xMax="689" yMax="683">
      <contour>
        <pt x="481" y="143" on="1"/>
        <pt x="472" y="106" on="0"/>
        <pt x="424" y="45" on="0"/>
        <pt x="359" y="3" on="0"/>
        <pt x="284" y="-20" on="0"/>
        <pt x="247" y="-20" on="1"/>
        <pt x="216" y="-20" on="0"/>
        <pt x="162" y="-4" on="0"/>
        <pt x="124" y="25" on="0"/>
        <pt x="102" y="66" on="0"/>
        <pt x="102" y="90" on="1"/>
        <pt x="102" y="111" on="0"/>
        <pt x="115" y="141" on="0"/>
        <pt x="135" y="159" on="0"/>
        <pt x="159" y="168" on="0"/>
        <pt x="169" y="168" on="1"/>
        <pt x="186" y="168" on="0"/>
        <pt x="215" y="146" on="0"/>
        <pt x="215" y="125" on="1"/>
        <pt x="215" y="118" on="0"/>
        <pt x="209" y="96" on="0"/>
        <pt x="193" y="75" on="0"/>
        <pt x="166" y="60" on="0"/>
        <pt x="144" y="60" on="1"/>
        <pt x="153" y="42" on="0"/>
        <pt x="182" y="21" on="0"/>
        <pt x="213" y="10" on="0"/>
        <pt x="239" y="8" on="0"/>
        <pt x="244" y="8" on="1"/>
        <pt x="268" y="8" on="0"/>
        <pt x="315" y="30" on="0"/>
        <pt x="355" y="68" on="0"/>
        <pt x="385" y="118" on="0"/>
        <pt x="392" y="146" on="1"/>
        <pt x="507" y="604" on="1"/>
        <pt x="510" y="615" on="0"/>
        <pt x="511" y="622" on="0"/>
        <pt x="511" y="627" on="1"/>
        <pt x="511" y="636" on="0"/>
        <pt x="501" y="643" on="0"/>
        <pt x="479" y="645" on="1"/>
        <pt x="470" y="646" on="0"/>
        <pt x="458" y="647" on="0"/>
        <pt x="447" y="647" on="0"/>
        <pt x="436" y="647" on="0"/>
        <pt x="427" y="647" on="1"/>
        <pt x="404" y="647" on="0"/>
        <pt x="388" y="651" on="0"/>
        <pt x="388" y="662" on="1"/>
        <pt x="388" y="678" on="0"/>
        <pt x="405" y="683" on="0"/>
        <pt x="410" y="683" on="1"/>
        <pt x="429" y="683" on="0"/>
        <pt x="470" y="681" on="0"/>
        <pt x="489" y="680" on="1"/>
        <pt x="506" y="680" on="0"/>
        <pt x="550" y="679" on="0"/>
        <pt x="566" y="679" on="1"/>
        <pt x="575" y="679" on="0"/>
        <pt x="604" y="680" on="0"/>
        <pt x="636" y="682" on="0"/>
        <pt x="665" y="683" on="0"/>
        <pt x="674" y="683" on="1"/>
        <pt x="679" y="683" on="0"/>
        <pt x="689" y="676" on="0"/>
        <pt x="689" y="668" on="1"/>
        <pt x="689" y="652" on="0"/>
        <pt x="672" y="647" on="0"/>
        <pt x="663" y="647" on="1"/>
        <pt x="642" y="647" on="0"/>
        <pt x="619" y="644" on="0"/>
        <pt x="606" y="635" on="0"/>
        <pt x="600" y="619" on="0"/>
        <pt x="597" y="606" on="1"/>
      </contour>
    </TTGlyph>
    <TTGlyph name="K" xMin="69" yMin="0" xMax="979" yMax="683">
      <contour>
        <pt x="743" y="69" on="1"/>
        <pt x="756" y="45" on="0"/>
        <pt x="795" y="36" on="0"/>
        <pt x="809" y="36" on="1"/>
        <pt x="817" y="36" on="0"/>
        <pt x="832" y="32" on="0"/>
        <pt x="832" y="21" on="1"/>
        <pt x="832" y="0" on="0"/>
        <pt x="812" y="0" on="1"/>
        <pt x="791" y="0" on="0"/>
        <pt x="737" y="4" on="0"/>
        <pt x="714" y="4" on="1"/>
        <pt x="704" y="4" on="0"/>
        <pt x="669" y="3" on="0"/>
        <pt x="631" y="1" on="0"/>
        <pt x="597" y="0" on="0"/>
        <pt x="586" y="0" on="1"/>
        <pt x="574" y="0" on="0"/>
        <pt x="569" y="13" on="0"/>
        <pt x="569" y="14" on="1"/>
        <pt x="569" y="31" on="0"/>
        <pt x="586" y="36" on="0"/>
        <pt x="595" y="36" on="1"/>
        <pt x="609" y="36" on="0"/>
        <pt x="641" y="45" on="0"/>
        <pt x="641" y="62" on="1"/>
        <pt x="641" y="66" on="0"/>
        <pt x="639" y="71" on="0"/>
        <pt x="634" y="81" on="1"/>
        <pt x="489" y="362" on="1"/>
        <pt x="323" y="245" on="1"/>
        <pt x="309" y="190" on="0"/>
        <pt x="291" y="118" on="0"/>
        <pt x="280" y="75" on="0"/>
        <pt x="276" y="56" on="0"/>
        <pt x="276" y="53" on="1"/>
        <pt x="276" y="45" on="0"/>
        <pt x="282" y="40" on="0"/>
        <pt x="299" y="38" on="1"/>
        <pt x="313" y="36" on="0"/>
        <pt x="336" y="36" on="0"/>
        <pt x="337" y="36" on="1"/>
        <pt x="352" y="36" on="0"/>
        <pt x="369" y="33" on="0"/>
        <pt x="369" y="22" on="1"/>
        <pt x="369" y="5" on="0"/>
        <pt x="353" y="0" on="0"/>
        <pt x="348" y="0" on="1"/>
        <pt x="334" y="0" on="0"/>
        <pt x="299" y="2" on="0"/>
        <pt x="284" y="3" on="1"/>
        <pt x="271" y="4" on="0"/>
        <pt x="228" y="4" on="0"/>
        <pt x="215" y="4" on="1"/>
        <pt x="204" y="4" on="0"/>
        <pt x="169" y="3" on="0"/>
        <pt x="131" y="1" on="0"/>
        <pt x="96" y="0" on="0"/>
        <pt x="85" y="0" on="1"/>
        <pt x="73" y="0" on="0"/>
        <pt x="69" y="13" on="0"/>
        <pt x="69" y="14" on="1"/>
        <pt x="69" y="31" on="0"/>
        <pt x="85" y="36" on="0"/>
        <pt x="99" y="36" on="1"/>
        <pt x="128" y="36" on="0"/>
        <pt x="161" y="40" on="0"/>
        <pt x="178" y="49" on="0"/>
        <pt x="184" y="65" on="0"/>
        <pt x="187" y="78" on="1"/>
        <pt x="320" y="609" on="1"/>
        <pt x="323" y="620" on="0"/>
        <pt x="324" y="629" on="0"/>
        <pt x="324" y="631" on="1"/>
        <pt x="324" y="639" on="0"/>
        <pt x="317" y="643" on="0"/>
        <pt x="302" y="645" on="1"/>
        <pt x="288" y="647" on="0"/>
        <pt x="276" y="647" on="0"/>
        <pt x="264" y="647" on="1"/>
        <pt x="247" y="647" on="0"/>
        <pt x="231" y="650" on="0"/>
        <pt x="231" y="661" on="1"/>
        <pt x="231" y="678" on="0"/>
        <pt x="247" y="683" on="0"/>
        <pt x="252" y="683" on="1"/>
        <pt x="266" y="683" on="0"/>
        <pt x="300" y="681" on="0"/>
        <pt x="315" y="680" on="1"/>
        <pt x="328" y="679" on="0"/>
        <pt x="371" y="679" on="0"/>
        <pt x="384" y="679" on="1"/>
        <pt x="395" y="679" on="0"/>
        <pt x="430" y="680" on="0"/>
        <pt x="469" y="682" on="0"/>
        <pt x="504" y="683" on="0"/>
        <pt x="515" y="683" on="1"/>
        <pt x="531" y="683" on="0"/>
        <pt x="531" y="668" on="1"/>
        <pt x="531" y="652" on="0"/>
        <pt x="513" y="647" on="0"/>
        <pt x="501" y="647" on="1"/>
        <pt x="472" y="647" on="0"/>
        <pt x="439" y="643" on="0"/>
        <pt x="423" y="634" on="0"/>
        <pt x="416" y="618" on="0"/>
        <pt x="413" y="605" on="1"/>
        <pt x="334" y="290" on="1"/>
        <pt x="751" y="584" on="1"/>
        <pt x="756" y="587" on="0"/>
        <pt x="771" y="598" on="0"/>
        <pt x="785" y="612" on="0"/>
        <pt x="795" y="626" on="0"/>
        <pt x="795" y="633" on="1"/>
        <pt x="795" y="641" on="0"/>
        <pt x="779" y="646" on="0"/>
        <pt x="770" y="647" on="1"/>
        <pt x="759" y="648" on="0"/>
        <pt x="755" y="660" on="0"/>
        <pt x="755" y="661" on="1"/>
        <pt x="755" y="678" on="0"/>
        <pt x="771" y="683" on="0"/>
        <pt x="776" y="683" on="1"/>
        <pt x="786" y="683" on="0"/>
        <pt x="819" y="682" on="0"/>
        <pt x="854" y="680" on="0"/>
        <pt x="887" y="679" on="0"/>
        <pt x="897" y="679" on="1"/>
        <pt x="914" y="679" on="0"/>
        <pt x="950" y="682" on="0"/>
        <pt x="966" y="682" on="1"/>
        <pt x="971" y="682" on="0"/>
        <pt x="979" y="675" on="0"/>
        <pt x="979" y="669" on="1"/>
        <pt x="979" y="654" on="0"/>
        <pt x="964" y="648" on="0"/>
        <pt x="956" y="647" on="1"/>
        <pt x="929" y="645" on="0"/>
        <pt x="877" y="626" on="0"/>
        <pt x="816" y="591" on="0"/>
        <pt x="741" y="539" on="0"/>
        <pt x="691" y="504" on="1"/>
        <pt x="590" y="433" on="1"/>
        <pt x="573" y="421" on="0"/>
        <pt x="566" y="416" on="0"/>
        <pt x="566" y="414" on="1"/>
        <pt x="566" y="414" on="0"/>
        <pt x="572" y="402" on="1"/>
      </contour>
    </TTGlyph>
    <TTGlyph name="L" xMin="69" yMin="0" xMax="721" yMax="683">
      <contour>
        <pt x="278" y="67" on="1"/>
        <pt x="275" y="56" on="0"/>
        <pt x="274" y="47" on="0"/>
        <pt x="274" y="46" on="1"/>
        <pt x="274" y="39" on="0"/>
        <pt x="283" y="36" on="0"/>
        <pt x="306" y="36" on="1"/>
        <pt x="419" y="36" on="1"/>
        <pt x="488" y="36" on="0"/>
        <pt x="577" y="74" on="0"/>
        <pt x="635" y="133" on="0"/>
        <pt x="670" y="206" on="0"/>
        <pt x="684" y="242" on="1"/>
        <pt x="689" y="254" on="0"/>
        <pt x="695" y="263" on="0"/>
        <pt x="704" y="263" on="1"/>
        <pt x="715" y="263" on="0"/>
        <pt x="721" y="251" on="0"/>
        <pt x="721" y="249" on="1"/>
        <pt x="721" y="247" on="0"/>
        <pt x="710" y="215" on="0"/>
        <pt x="693" y="169" on="0"/>
        <pt x="672" y="114" on="0"/>
        <pt x="653" y="65" on="0"/>
        <pt x="639" y="27" on="0"/>
        <pt x="636" y="20" on="1"/>
        <pt x="630" y="6" on="0"/>
        <pt x="621" y="0" on="0"/>
        <pt x="602" y="0" on="1"/>
        <pt x="99" y="0" on="1"/>
        <pt x="85" y="0" on="0"/>
        <pt x="69" y="4" on="0"/>
        <pt x="69" y="15" on="1"/>
        <pt x="69" y="31" on="0"/>
        <pt x="86" y="36" on="0"/>
        <pt x="99" y="36" on="1"/>
        <pt x="128" y="36" on="0"/>
        <pt x="160" y="40" on="0"/>
        <pt x="177" y="49" on="0"/>
        <pt x="184" y="65" on="0"/>
        <pt x="187" y="78" on="1"/>
        <pt x="320" y="609" on="1"/>
        <pt x="323" y="620" on="0"/>
        <pt x="324" y="629" on="0"/>
        <pt x="324" y="631" on="1"/>
        <pt x="324" y="639" on="0"/>
        <pt x="317" y="643" on="0"/>
        <pt x="301" y="645" on="1"/>
        <pt x="287" y="647" on="0"/>
        <pt x="264" y="647" on="0"/>
        <pt x="263" y="647" on="1"/>
        <pt x="248" y="647" on="0"/>
        <pt x="231" y="650" on="0"/>
        <pt x="231" y="661" on="1"/>
        <pt x="231" y="678" on="0"/>
        <pt x="247" y="683" on="0"/>
        <pt x="252" y="683" on="1"/>
        <pt x="267" y="683" on="0"/>
        <pt x="301" y="680" on="0"/>
        <pt x="317" y="680" on="1"/>
        <pt x="333" y="680" on="0"/>
        <pt x="370" y="679" on="0"/>
        <pt x="386" y="679" on="1"/>
        <pt x="405" y="679" on="0"/>
        <pt x="447" y="679" on="0"/>
        <pt x="466" y="680" on="1"/>
        <pt x="484" y="681" on="0"/>
        <pt x="523" y="683" on="0"/>
        <pt x="540" y="683" on="1"/>
        <pt x="552" y="683" on="0"/>
        <pt x="557" y="670" on="0"/>
        <pt x="557" y="669" on="1"/>
        <pt x="557" y="652" on="0"/>
        <pt x="539" y="647" on="0"/>
        <pt x="516" y="647" on="1"/>
        <pt x="482" y="647" on="0"/>
        <pt x="443" y="643" on="0"/>
        <pt x="423" y="632" on="0"/>
        <pt x="415" y="615" on="0"/>
        <pt x="412" y="601" on="1"/>
      </contour>
    </TTGlyph>
    <TTGlyph name="Lambda" xMin="57" yMin="0" xMax="749" yMax="713">
      <contour>
        <pt x="545" y="692" on="1"/>
        <pt x="551" y="702" on="0"/>
        <pt x="562" y="713" on="0"/>
        <pt x="576" y="713" on="1"/>
        <pt x="591" y="713" on="0"/>
        <pt x="597" y="701" on="0"/>
        <pt x="599" y="684" on="1"/>
        <pt x="670" y="67" on="1"/>
        <pt x="672" y="50" on="0"/>
        <pt x="686" y="36" on="0"/>
        <pt x="721" y="36" on="1"/>
        <pt x="733" y="36" on="0"/>
        <pt x="749" y="33" on="0"/>
        <pt x="749" y="22" on="1"/>
        <pt x="749" y="5" on="0"/>
        <pt x="733" y="0" on="0"/>
        <pt x="729" y="0" on="1"/>
        <pt x="720" y="0" on="0"/>
        <pt x="691" y="1" on="0"/>
        <pt x="660" y="3" on="0"/>
        <pt x="631" y="4" on="0"/>
        <pt x="622" y="4" on="1"/>
        <pt x="611" y="4" on="0"/>
        <pt x="576" y="3" on="0"/>
        <pt x="538" y="1" on="0"/>
        <pt x="503" y="0" on="0"/>
        <pt x="492" y="0" on="1"/>
        <pt x="480" y="0" on="0"/>
        <pt x="476" y="13" on="0"/>
        <pt x="476" y="14" on="1"/>
        <pt x="476" y="31" on="0"/>
        <pt x="493" y="36" on="0"/>
        <pt x="501" y="36" on="1"/>
        <pt x="524" y="36" on="0"/>
        <pt x="552" y="42" on="0"/>
        <pt x="567" y="51" on="0"/>
        <pt x="572" y="60" on="0"/>
        <pt x="572" y="64" on="1"/>
        <pt x="572" y="69" on="0"/>
        <pt x="570" y="79" on="1"/>
        <pt x="513" y="577" on="1"/>
        <pt x="223" y="107" on="1"/>
        <pt x="219" y="101" on="0"/>
        <pt x="207" y="78" on="0"/>
        <pt x="207" y="67" on="1"/>
        <pt x="207" y="49" on="0"/>
        <pt x="238" y="37" on="0"/>
        <pt x="252" y="36" on="1"/>
        <pt x="255" y="36" on="0"/>
        <pt x="270" y="32" on="0"/>
        <pt x="270" y="22" on="1"/>
        <pt x="270" y="5" on="0"/>
        <pt x="253" y="0" on="0"/>
        <pt x="249" y="0" on="1"/>
        <pt x="226" y="0" on="0"/>
        <pt x="170" y="4" on="0"/>
        <pt x="146" y="4" on="1"/>
        <pt x="128" y="4" on="0"/>
        <pt x="87" y="0" on="0"/>
        <pt x="70" y="0" on="1"/>
        <pt x="63" y="0" on="0"/>
        <pt x="57" y="10" on="0"/>
        <pt x="57" y="14" on="1"/>
        <pt x="57" y="22" on="0"/>
        <pt x="64" y="35" on="0"/>
        <pt x="72" y="36" on="1"/>
        <pt x="85" y="37" on="0"/>
        <pt x="113" y="42" on="0"/>
        <pt x="143" y="58" on="0"/>
        <pt x="175" y="91" on="0"/>
        <pt x="193" y="120" on="1"/>
      </contour>
    </TTGlyph>
    <TTGlyph name="M" xMin="74" yMin="0" xMax="1140" yMax="683">
      <contour>
        <pt x="889" y="75" on="1"/>
        <pt x="888" y="70" on="0"/>
        <pt x="885" y="58" on="0"/>
        <pt x="885" y="53" on="1"/>
        <pt x="885" y="45" on="0"/>
        <pt x="891" y="40" on="0"/>
        <pt x="908" y="38" on="1"/>
        <pt x="922" y="36" on="0"/>
        <pt x="945" y="36" on="0"/>
        <pt x="946" y="36" on="1"/>
        <pt x="961" y="36" on="0"/>
        <pt x="978" y="33" on="0"/>
        <pt x="978" y="22" on="1"/>
        <pt x="978" y="5" on="0"/>
        <pt x="962" y="0" on="0"/>
        <pt x="957" y="0" on="1"/>
        <pt x="947" y="0" on="0"/>
        <pt x="912" y="1" on="0"/>
        <pt x="875" y="3" on="0"/>
        <pt x="841" y="4" on="0"/>
        <pt x="830" y="4" on="1"/>
        <pt x="815" y="4" on="0"/>
        <pt x="782" y="3" on="0"/>
        <pt x="767" y="3" on="1"/>
        <pt x="752" y="3" on="0"/>
        <pt x="719" y="0" on="0"/>
        <pt x="705" y="0" on="1"/>
        <pt x="693" y="0" on="0"/>
        <pt x="689" y="13" on="0"/>
        <pt x="689" y="14" on="1"/>
        <pt x="689" y="31" on="0"/>
        <pt x="705" y="36" on="0"/>
        <pt x="719" y="36" on="1"/>
        <pt x="748" y="36" on="0"/>
        <pt x="781" y="40" on="0"/>
        <pt x="798" y="49" on="0"/>
        <pt x="804" y="65" on="0"/>
        <pt x="807" y="78" on="1"/>
        <pt x="948" y="644" on="1"/>
        <pt x="947" y="645" on="1"/>
        <pt x="527" y="22" on="1"/>
        <pt x="522" y="14" on="0"/>
        <pt x="509" y="0" on="0"/>
        <pt x="498" y="0" on="1"/>
        <pt x="487" y="0" on="0"/>
        <pt x="480" y="13" on="0"/>
        <pt x="478" y="27" on="1"/>
        <pt x="371" y="635" on="1"/>
        <pt x="370" y="635" on="1"/>
        <pt x="237" y="103" on="1"/>
        <pt x="234" y="91" on="0"/>
        <pt x="233" y="81" on="0"/>
        <pt x="233" y="78" on="1"/>
        <pt x="233" y="73" on="0"/>
        <pt x="235" y="59" on="0"/>
        <pt x="247" y="46" on="0"/>
        <pt x="273" y="37" on="0"/>
        <pt x="297" y="36" on="1"/>
        <pt x="304" y="36" on="0"/>
        <pt x="319" y="32" on="0"/>
        <pt x="319" y="22" on="1"/>
        <pt x="319" y="5" on="0"/>
        <pt x="303" y="0" on="0"/>
        <pt x="299" y="0" on="1"/>
        <pt x="290" y="0" on="0"/>
        <pt x="261" y="1" on="0"/>
        <pt x="231" y="3" on="0"/>
        <pt x="202" y="4" on="0"/>
        <pt x="193" y="4" on="1"/>
        <pt x="169" y="4" on="0"/>
        <pt x="112" y="0" on="0"/>
        <pt x="89" y="0" on="1"/>
        <pt x="78" y="0" on="0"/>
        <pt x="74" y="13" on="0"/>
        <pt x="74" y="14" on="1"/>
        <pt x="74" y="30" on="0"/>
        <pt x="89" y="36" on="0"/>
        <pt x="95" y="36" on="1"/>
        <pt x="125" y="37" on="0"/>
        <pt x="162" y="50" on="0"/>
        <pt x="185" y="70" on="0"/>
        <pt x="196" y="94" on="0"/>
        <pt x="199" y="107" on="1"/>
        <pt x="325" y="609" on="1"/>
        <pt x="328" y="620" on="0"/>
        <pt x="329" y="630" on="0"/>
        <pt x="329" y="631" on="1"/>
        <pt x="329" y="639" on="0"/>
        <pt x="322" y="643" on="0"/>
        <pt x="307" y="645" on="1"/>
        <pt x="293" y="647" on="0"/>
        <pt x="281" y="647" on="0"/>
        <pt x="269" y="647" on="1"/>
        <pt x="252" y="647" on="0"/>
        <pt x="235" y="650" on="0"/>
        <pt x="235" y="661" on="1"/>
        <pt x="235" y="678" on="0"/>
        <pt x="253" y="683" on="0"/>
        <pt x="268" y="683" on="1"/>
        <pt x="411" y="683" on="1"/>
        <pt x="422" y="683" on="0"/>
        <pt x="435" y="682" on="0"/>
        <pt x="441" y="677" on="0"/>
        <pt x="444" y="666" on="0"/>
        <pt x="446" y="656" on="1"/>
        <pt x="545" y="93" on="1"/>
        <pt x="931" y="663" on="1"/>
        <pt x="936" y="670" on="0"/>
        <pt x="942" y="678" on="0"/>
        <pt x="951" y="682" on="0"/>
        <pt x="963" y="683" on="0"/>
        <pt x="974" y="683" on="1"/>
        <pt x="1110" y="683" on="1"/>
        <pt x="1124" y="683" on="0"/>
        <pt x="1140" y="679" on="0"/>
        <pt x="1140" y="668" on="1"/>
        <pt x="1140" y="652" on="0"/>
        <pt x="1122" y="647" on="0"/>
        <pt x="1106" y="647" on="1"/>
        <pt x="1078" y="647" on="0"/>
        <pt x="1047" y="643" on="0"/>
        <pt x="1031" y="633" on="0"/>
        <pt x="1024" y="616" on="0"/>
        <pt x="1021" y="602" on="1"/>
      </contour>
    </TTGlyph>
    <TTGlyph name="N" xMin="69" yMin="0" xMax="960" yMax="683">
      <contour>
        <pt x="695" y="21" on="1"/>
        <pt x="691" y="7" on="0"/>
        <pt x="686" y="0" on="0"/>
        <pt x="674" y="0" on="1"/>
        <pt x="666" y="0" on="0"/>
        <pt x="658" y="5" on="0"/>
        <pt x="652" y="17" on="1"/>
        <pt x="360" y="615" on="1"/>
        <pt x="232" y="103" on="1"/>
        <pt x="229" y="91" on="0"/>
        <pt x="228" y="81" on="0"/>
        <pt x="228" y="78" on="1"/>
        <pt x="228" y="73" on="0"/>
        <pt x="230" y="59" on="0"/>
        <pt x="242" y="46" on="0"/>
        <pt x="267" y="37" on="0"/>
        <pt x="291" y="36" on="1"/>
        <pt x="299" y="36" on="0"/>
        <pt x="314" y="32" on="0"/>
        <pt x="314" y="21" on="1"/>
        <pt x="314" y="9" on="0"/>
        <pt x="302" y="0" on="0"/>
        <pt x="294" y="0" on="1"/>
        <pt x="285" y="0" on="0"/>
        <pt x="256" y="1" on="0"/>
        <pt x="226" y="3" on="0"/>
        <pt x="197" y="4" on="0"/>
        <pt x="188" y="4" on="1"/>
        <pt x="162" y="4" on="0"/>
        <pt x="109" y="0" on="0"/>
        <pt x="84" y="0" on="1"/>
        <pt x="79" y="0" on="0"/>
        <pt x="69" y="7" on="0"/>
        <pt x="69" y="15" on="1"/>
        <pt x="69" y="30" on="0"/>
        <pt x="85" y="36" on="0"/>
        <pt x="90" y="36" on="1"/>
        <pt x="119" y="37" on="0"/>
        <pt x="157" y="49" on="0"/>
        <pt x="179" y="68" on="0"/>
        <pt x="191" y="93" on="0"/>
        <pt x="194" y="107" on="1"/>
        <pt x="328" y="642" on="1"/>
        <pt x="312" y="645" on="0"/>
        <pt x="280" y="647" on="0"/>
        <pt x="264" y="647" on="1"/>
        <pt x="248" y="647" on="0"/>
        <pt x="231" y="650" on="0"/>
        <pt x="231" y="661" on="1"/>
        <pt x="231" y="678" on="0"/>
        <pt x="249" y="683" on="0"/>
        <pt x="263" y="683" on="1"/>
        <pt x="400" y="683" on="1"/>
        <pt x="418" y="683" on="0"/>
        <pt x="428" y="679" on="0"/>
        <pt x="434" y="666" on="1"/>
        <pt x="688" y="146" on="1"/>
        <pt x="797" y="582" on="1"/>
        <pt x="799" y="590" on="0"/>
        <pt x="801" y="600" on="0"/>
        <pt x="801" y="606" on="1"/>
        <pt x="801" y="625" on="0"/>
        <pt x="772" y="646" on="0"/>
        <pt x="737" y="647" on="1"/>
        <pt x="730" y="647" on="0"/>
        <pt x="715" y="651" on="0"/>
        <pt x="715" y="661" on="1"/>
        <pt x="715" y="678" on="0"/>
        <pt x="731" y="683" on="0"/>
        <pt x="735" y="683" on="1"/>
        <pt x="744" y="683" on="0"/>
        <pt x="773" y="682" on="0"/>
        <pt x="803" y="680" on="0"/>
        <pt x="832" y="679" on="0"/>
        <pt x="841" y="679" on="1"/>
        <pt x="867" y="679" on="0"/>
        <pt x="920" y="683" on="0"/>
        <pt x="945" y="683" on="1"/>
        <pt x="953" y="683" on="0"/>
        <pt x="960" y="674" on="0"/>
        <pt x="960" y="669" on="1"/>
        <pt x="960" y="653" on="0"/>
        <pt x="944" y="647" on="0"/>
        <pt x="940" y="647" on="1"/>
        <pt x="910" y="646" on="0"/>
        <pt x="872" y="634" on="0"/>
        <pt x="849" y="614" on="0"/>
        <pt x="838" y="588" on="0"/>
        <pt x="834" y="574" on="1"/>
      </contour>
    </TTGlyph>
    <TTGlyph name="O" xMin="69" yMin="-20" xMax="829" yMax="703">
      <contour>
        <pt x="829" y="425" on="1"/>
        <pt x="829" y="340" on="0"/>
        <pt x="749" y="180" on="0"/>
        <pt x="618" y="55" on="0"/>
        <pt x="449" y="-20" on="0"/>
        <pt x="360" y="-20" on="1"/>
        <pt x="296" y="-20" on="0"/>
        <pt x="188" y="20" on="0"/>
        <pt x="112" y="93" on="0"/>
        <pt x="69" y="194" on="0"/>
        <pt x="69" y="254" on="1"/>
        <pt x="69" y="310" on="0"/>
        <pt x="105" y="421" on="0"/>
        <pt x="170" y="520" on="0"/>
        <pt x="259" y="605" on="0"/>
        <pt x="363" y="668" on="0"/>
        <pt x="479" y="703" on="0"/>
        <pt x="539" y="703" on="1"/>
        <pt x="605" y="703" on="0"/>
        <pt x="713" y="660" on="0"/>
        <pt x="788" y="585" on="0"/>
        <pt x="829" y="484" on="0"/>
      </contour>
      <contour>
        <pt x="368" y="13" on="1"/>
        <pt x="427" y="13" on="0"/>
        <pt x="554" y="74" on="0"/>
        <pt x="607" y="134" on="1"/>
        <pt x="642" y="174" on="0"/>
        <pt x="689" y="266" on="0"/>
        <pt x="718" y="354" on="0"/>
        <pt x="731" y="433" on="0"/>
        <pt x="731" y="460" on="1"/>
        <pt x="731" y="514" on="0"/>
        <pt x="698" y="594" on="0"/>
        <pt x="642" y="646" on="0"/>
        <pt x="570" y="671" on="0"/>
        <pt x="531" y="671" on="1"/>
        <pt x="464" y="671" on="0"/>
        <pt x="329" y="602" on="0"/>
        <pt x="278" y="540" on="1"/>
        <pt x="244" y="497" on="0"/>
        <pt x="202" y="405" on="0"/>
        <pt x="179" y="321" on="0"/>
        <pt x="172" y="252" on="0"/>
        <pt x="172" y="233" on="1"/>
        <pt x="172" y="178" on="0"/>
        <pt x="203" y="95" on="0"/>
        <pt x="257" y="40" on="0"/>
        <pt x="328" y="13" on="0"/>
      </contour>
    </TTGlyph>
    <TTGlyph name="P" xMin="71" yMin="0" xMax="834" yMax="683">
      <contour>
        <pt x="282" y="75" on="1"/>
        <pt x="279" y="64" on="0"/>
        <pt x="278" y="54" on="0"/>
        <pt x="278" y="53" on="1"/>
        <pt x="278" y="45" on="0"/>
        <pt x="284" y="40" on="0"/>
        <pt x="301" y="38" on="1"/>
        <pt x="315" y="36" on="0"/>
        <pt x="338" y="36" on="0"/>
        <pt x="339" y="36" on="1"/>
        <pt x="354" y="36" on="0"/>
        <pt x="371" y="33" on="0"/>
        <pt x="371" y="22" on="1"/>
        <pt x="371" y="5" on="0"/>
        <pt x="355" y="0" on="0"/>
        <pt x="350" y="0" on="1"/>
        <pt x="336" y="0" on="0"/>
        <pt x="301" y="2" on="0"/>
        <pt x="286" y="3" on="1"/>
        <pt x="273" y="4" on="0"/>
        <pt x="230" y="4" on="0"/>
        <pt x="217" y="4" on="1"/>
        <pt x="206" y="4" on="0"/>
        <pt x="171" y="3" on="0"/>
        <pt x="133" y="1" on="0"/>
        <pt x="98" y="0" on="0"/>
        <pt x="87" y="0" on="1"/>
        <pt x="75" y="0" on="0"/>
        <pt x="71" y="13" on="0"/>
        <pt x="71" y="14" on="1"/>
        <pt x="71" y="31" on="0"/>
        <pt x="87" y="36" on="0"/>
        <pt x="101" y="36" on="1"/>
        <pt x="130" y="36" on="0"/>
        <pt x="163" y="39" on="0"/>
        <pt x="179" y="49" on="0"/>
        <pt x="186" y="67" on="0"/>
        <pt x="190" y="82" on="1"/>
        <pt x="322" y="609" on="1"/>
        <pt x="325" y="620" on="0"/>
        <pt x="326" y="629" on="0"/>
        <pt x="326" y="631" on="1"/>
        <pt x="326" y="639" on="0"/>
        <pt x="319" y="643" on="0"/>
        <pt x="304" y="645" on="1"/>
        <pt x="290" y="647" on="0"/>
        <pt x="278" y="647" on="0"/>
        <pt x="266" y="647" on="1"/>
        <pt x="249" y="647" on="0"/>
        <pt x="233" y="650" on="0"/>
        <pt x="233" y="661" on="1"/>
        <pt x="233" y="678" on="0"/>
        <pt x="250" y="683" on="0"/>
        <pt x="265" y="683" on="1"/>
        <pt x="615" y="683" on="1"/>
        <pt x="666" y="683" on="0"/>
        <pt x="748" y="658" on="0"/>
        <pt x="804" y="615" on="0"/>
        <pt x="834" y="559" on="0"/>
        <pt x="834" y="527" on="1"/>
        <pt x="834" y="486" on="0"/>
        <pt x="784" y="408" on="0"/>
        <pt x="699" y="347" on="0"/>
        <pt x="585" y="310" on="0"/>
        <pt x="522" y="310" on="1"/>
        <pt x="341" y="310" on="1"/>
      </contour>
      <contour>
        <pt x="345" y="342" on="1"/>
        <pt x="505" y="342" on="1"/>
        <pt x="559" y="342" on="0"/>
        <pt x="643" y="369" on="0"/>
        <pt x="670" y="393" on="1"/>
        <pt x="689" y="410" on="0"/>
        <pt x="713" y="454" on="0"/>
        <pt x="727" y="498" on="0"/>
        <pt x="732" y="536" on="0"/>
        <pt x="732" y="548" on="1"/>
        <pt x="732" y="602" on="0"/>
        <pt x="651" y="647" on="0"/>
        <pt x="581" y="647" on="1"/>
        <pt x="464" y="647" on="1"/>
        <pt x="448" y="647" on="0"/>
        <pt x="431" y="645" on="0"/>
        <pt x="421" y="638" on="0"/>
        <pt x="416" y="625" on="0"/>
        <pt x="413" y="613" on="1"/>
      </contour>
    </TTGlyph>
    <TTGlyph name="Phi" xMin="43" yMin="0" xMax="726" yMax="683">
      <contour>
        <pt x="478" y="543" on="1"/>
        <pt x="532" y="540" on="0"/>
        <pt x="623" y="511" on="0"/>
        <pt x="689" y="466" on="0"/>
        <pt x="726" y="406" on="0"/>
        <pt x="726" y="372" on="1"/>
        <pt x="726" y="328" on="0"/>
        <pt x="668" y="248" on="0"/>
        <pt x="572" y="185" on="0"/>
        <pt x="446" y="145" on="0"/>
        <pt x="377" y="140" on="1"/>
        <pt x="370" y="110" on="0"/>
        <pt x="362" y="76" on="0"/>
        <pt x="359" y="60" on="0"/>
        <pt x="358" y="56" on="0"/>
        <pt x="358" y="55" on="1"/>
        <pt x="358" y="44" on="0"/>
        <pt x="373" y="40" on="0"/>
        <pt x="389" y="38" on="1"/>
        <pt x="408" y="36" on="0"/>
        <pt x="439" y="36" on="0"/>
        <pt x="441" y="36" on="1"/>
        <pt x="458" y="36" on="0"/>
        <pt x="476" y="33" on="0"/>
        <pt x="476" y="22" on="1"/>
        <pt x="476" y="5" on="0"/>
        <pt x="459" y="0" on="0"/>
        <pt x="454" y="0" on="1"/>
        <pt x="435" y="0" on="0"/>
        <pt x="396" y="3" on="0"/>
        <pt x="377" y="3" on="1"/>
        <pt x="300" y="4" on="1"/>
        <pt x="222" y="3" on="1"/>
        <pt x="204" y="3" on="0"/>
        <pt x="165" y="0" on="0"/>
        <pt x="148" y="0" on="1"/>
        <pt x="136" y="0" on="0"/>
        <pt x="131" y="12" on="0"/>
        <pt x="131" y="14" on="1"/>
        <pt x="131" y="31" on="0"/>
        <pt x="148" y="36" on="0"/>
        <pt x="171" y="36" on="1"/>
        <pt x="206" y="36" on="0"/>
        <pt x="245" y="40" on="0"/>
        <pt x="265" y="51" on="0"/>
        <pt x="274" y="72" on="0"/>
        <pt x="278" y="90" on="1"/>
        <pt x="290" y="140" on="1"/>
        <pt x="241" y="143" on="0"/>
        <pt x="152" y="170" on="0"/>
        <pt x="84" y="215" on="0"/>
        <pt x="43" y="275" on="0"/>
        <pt x="43" y="311" on="1"/>
        <pt x="43" y="356" on="0"/>
        <pt x="103" y="437" on="0"/>
        <pt x="201" y="500" on="0"/>
        <pt x="326" y="539" on="0"/>
        <pt x="391" y="543" on="1"/>
        <pt x="394" y="554" on="0"/>
        <pt x="395" y="561" on="0"/>
        <pt x="397" y="566" on="0"/>
        <pt x="399" y="573" on="0"/>
        <pt x="402" y="584" on="1"/>
        <pt x="404" y="595" on="0"/>
        <pt x="411" y="622" on="0"/>
        <pt x="411" y="627" on="1"/>
        <pt x="411" y="638" on="0"/>
        <pt x="398" y="643" on="0"/>
        <pt x="378" y="645" on="1"/>
        <pt x="361" y="647" on="0"/>
        <pt x="327" y="647" on="0"/>
        <pt x="326" y="647" on="1"/>
        <pt x="309" y="647" on="0"/>
        <pt x="293" y="651" on="0"/>
        <pt x="293" y="662" on="1"/>
        <pt x="293" y="678" on="0"/>
        <pt x="310" y="683" on="0"/>
        <pt x="315" y="683" on="1"/>
        <pt x="333" y="683" on="0"/>
        <pt x="373" y="680" on="0"/>
        <pt x="392" y="680" on="1"/>
        <pt x="469" y="679" on="1"/>
        <pt x="486" y="679" on="0"/>
        <pt x="530" y="680" on="0"/>
        <pt x="547" y="680" on="1"/>
        <pt x="565" y="680" on="0"/>
        <pt x="603" y="683" on="0"/>
        <pt x="621" y="683" on="1"/>
        <pt x="633" y="683" on="0"/>
        <pt x="638" y="670" on="0"/>
        <pt x="638" y="669" on="1"/>
        <pt x="638" y="652" on="0"/>
        <pt x="620" y="647" on="0"/>
        <pt x="598" y="647" on="1"/>
        <pt x="563" y="647" on="0"/>
        <pt x="524" y="643" on="0"/>
        <pt x="504" y="632" on="0"/>
        <pt x="496" y="612" on="0"/>
        <pt x="491" y="595" on="1"/>
      </contour>
      <contour>
        <pt x="384" y="515" on="1"/>
        <pt x="325" y="510" on="0"/>
        <pt x="244" y="477" on="0"/>
        <pt x="190" y="431" on="0"/>
        <pt x="159" y="380" on="0"/>
        <pt x="144" y="335" on="0"/>
        <pt x="141" y="301" on="0"/>
        <pt x="141" y="296" on="1"/>
        <pt x="141" y="264" on="0"/>
        <pt x="165" y="218" on="0"/>
        <pt x="207" y="188" on="0"/>
        <pt x="264" y="171" on="0"/>
        <pt x="297" y="168" on="1"/>
      </contour>
      <contour>
        <pt x="385" y="168" on="1"/>
        <pt x="463" y="175" on="0"/>
        <pt x="558" y="228" on="0"/>
        <pt x="610" y="296" on="0"/>
        <pt x="627" y="365" on="0"/>
        <pt x="627" y="387" on="1"/>
        <pt x="627" y="421" on="0"/>
        <pt x="600" y="468" on="0"/>
        <pt x="557" y="497" on="0"/>
        <pt x="501" y="512" on="0"/>
        <pt x="471" y="515" on="1"/>
      </contour>
    </TTGlyph>
    <TTGlyph name="Pi" xMin="69" yMin="0" xMax="959" yMax="679">
      <contour>
        <pt x="709" y="75" on="1"/>
        <pt x="706" y="64" on="0"/>
        <pt x="705" y="54" on="0"/>
        <pt x="705" y="53" on="1"/>
        <pt x="705" y="45" on="0"/>
        <pt x="710" y="40" on="0"/>
        <pt x="727" y="38" on="1"/>
        <pt x="741" y="36" on="0"/>
        <pt x="753" y="36" on="0"/>
        <pt x="765" y="36" on="1"/>
        <pt x="782" y="36" on="0"/>
        <pt x="798" y="32" on="0"/>
        <pt x="798" y="21" on="1"/>
        <pt x="798" y="5" on="0"/>
        <pt x="781" y="0" on="0"/>
        <pt x="777" y="0" on="1"/>
        <pt x="763" y="0" on="0"/>
        <pt x="728" y="2" on="0"/>
        <pt x="713" y="3" on="1"/>
        <pt x="700" y="4" on="0"/>
        <pt x="657" y="4" on="0"/>
        <pt x="644" y="4" on="1"/>
        <pt x="633" y="4" on="0"/>
        <pt x="598" y="3" on="0"/>
        <pt x="560" y="1" on="0"/>
        <pt x="525" y="0" on="0"/>
        <pt x="514" y="0" on="1"/>
        <pt x="498" y="0" on="0"/>
        <pt x="498" y="15" on="1"/>
        <pt x="498" y="31" on="0"/>
        <pt x="515" y="36" on="0"/>
        <pt x="528" y="36" on="1"/>
        <pt x="557" y="36" on="0"/>
        <pt x="590" y="40" on="0"/>
        <pt x="607" y="49" on="0"/>
        <pt x="613" y="65" on="0"/>
        <pt x="616" y="78" on="1"/>
        <pt x="757" y="643" on="1"/>
        <pt x="422" y="643" on="1"/>
        <pt x="280" y="75" on="1"/>
        <pt x="277" y="64" on="0"/>
        <pt x="276" y="54" on="0"/>
        <pt x="276" y="53" on="1"/>
        <pt x="276" y="45" on="0"/>
        <pt x="281" y="40" on="0"/>
        <pt x="298" y="38" on="1"/>
        <pt x="312" y="36" on="0"/>
        <pt x="324" y="36" on="0"/>
        <pt x="336" y="36" on="1"/>
        <pt x="353" y="36" on="0"/>
        <pt x="369" y="32" on="0"/>
        <pt x="369" y="21" on="1"/>
        <pt x="369" y="5" on="0"/>
        <pt x="352" y="0" on="0"/>
        <pt x="348" y="0" on="1"/>
        <pt x="334" y="0" on="0"/>
        <pt x="299" y="2" on="0"/>
        <pt x="284" y="3" on="1"/>
        <pt x="271" y="4" on="0"/>
        <pt x="228" y="4" on="0"/>
        <pt x="215" y="4" on="1"/>
        <pt x="204" y="4" on="0"/>
        <pt x="169" y="3" on="0"/>
        <pt x="131" y="1" on="0"/>
        <pt x="96" y="0" on="0"/>
        <pt x="85" y="0" on="1"/>
        <pt x="69" y="0" on="0"/>
        <pt x="69" y="15" on="1"/>
        <pt x="69" y="31" on="0"/>
        <pt x="86" y="36" on="0"/>
        <pt x="99" y="36" on="1"/>
        <pt x="128" y="36" on="0"/>
        <pt x="161" y="39" on="0"/>
        <pt x="177" y="49" on="0"/>
        <pt x="184" y="67" on="0"/>
        <pt x="188" y="82" on="1"/>
        <pt x="319" y="605" on="1"/>
        <pt x="320" y="609" on="0"/>
        <pt x="323" y="622" on="0"/>
        <pt x="323" y="627" on="1"/>
        <pt x="323" y="635" on="0"/>
        <pt x="316" y="639" on="0"/>
        <pt x="300" y="641" on="1"/>
        <pt x="286" y="643" on="0"/>
        <pt x="263" y="643" on="0"/>
        <pt x="262" y="643" on="1"/>
        <pt x="247" y="643" on="0"/>
        <pt x="230" y="646" on="0"/>
        <pt x="230" y="657" on="1"/>
        <pt x="230" y="674" on="0"/>
        <pt x="248" y="679" on="0"/>
        <pt x="262" y="679" on="1"/>
        <pt x="929" y="679" on="1"/>
        <pt x="942" y="679" on="0"/>
        <pt x="959" y="676" on="0"/>
        <pt x="959" y="665" on="1"/>
        <pt x="959" y="648" on="0"/>
        <pt x="942" y="643" on="0"/>
        <pt x="929" y="643" on="1"/>
        <pt x="900" y="643" on="0"/>
        <pt x="868" y="639" on="0"/>
        <pt x="851" y="630" on="0"/>
        <pt x="844" y="614" on="0"/>
        <pt x="841" y="601" on="1"/>
      </contour>
    </TTGlyph>
    <TTGlyph name="Psi" xMin="45" yMin="0" xMax="782" yMax="683">
      <contour>
        <pt x="365" y="171" on="1"/>
        <pt x="412" y="180" on="0"/>
        <pt x="483" y="225" on="0"/>
        <pt x="536" y="286" on="0"/>
        <pt x="571" y="360" on="0"/>
        <pt x="581" y="398" on="1"/>
        <pt x="590" y="430" on="0"/>
        <pt x="613" y="486" on="0"/>
        <pt x="645" y="528" on="0"/>
        <pt x="690" y="552" on="0"/>
        <pt x="721" y="552" on="1"/>
        <pt x="752" y="552" on="1"/>
        <pt x="766" y="552" on="0"/>
        <pt x="782" y="549" on="0"/>
        <pt x="782" y="538" on="1"/>
        <pt x="782" y="529" on="0"/>
        <pt x="770" y="525" on="0"/>
        <pt x="764" y="524" on="1"/>
        <pt x="740" y="521" on="0"/>
        <pt x="706" y="490" on="0"/>
        <pt x="684" y="450" on="0"/>
        <pt x="671" y="410" on="0"/>
        <pt x="668" y="399" on="1"/>
        <pt x="651" y="337" on="0"/>
        <pt x="590" y="244" on="0"/>
        <pt x="509" y="180" on="0"/>
        <pt x="411" y="144" on="0"/>
        <pt x="357" y="140" on="1"/>
        <pt x="350" y="110" on="0"/>
        <pt x="342" y="76" on="0"/>
        <pt x="339" y="60" on="0"/>
        <pt x="338" y="56" on="0"/>
        <pt x="338" y="55" on="1"/>
        <pt x="338" y="44" on="0"/>
        <pt x="353" y="40" on="0"/>
        <pt x="371" y="38" on="1"/>
        <pt x="389" y="36" on="0"/>
        <pt x="416" y="36" on="0"/>
        <pt x="423" y="36" on="1"/>
        <pt x="440" y="36" on="0"/>
        <pt x="456" y="32" on="0"/>
        <pt x="456" y="21" on="1"/>
        <pt x="456" y="5" on="0"/>
        <pt x="439" y="0" on="0"/>
        <pt x="434" y="0" on="1"/>
        <pt x="416" y="0" on="0"/>
        <pt x="376" y="3" on="0"/>
        <pt x="357" y="3" on="1"/>
        <pt x="280" y="4" on="1"/>
        <pt x="202" y="3" on="1"/>
        <pt x="184" y="3" on="0"/>
        <pt x="145" y="0" on="0"/>
        <pt x="128" y="0" on="1"/>
        <pt x="111" y="0" on="0"/>
        <pt x="111" y="15" on="1"/>
        <pt x="111" y="31" on="0"/>
        <pt x="129" y="36" on="0"/>
        <pt x="151" y="36" on="1"/>
        <pt x="186" y="36" on="0"/>
        <pt x="225" y="40" on="0"/>
        <pt x="245" y="51" on="0"/>
        <pt x="254" y="72" on="0"/>
        <pt x="258" y="90" on="1"/>
        <pt x="270" y="140" on="1"/>
        <pt x="228" y="145" on="0"/>
        <pt x="159" y="172" on="0"/>
        <pt x="110" y="219" on="0"/>
        <pt x="82" y="286" on="0"/>
        <pt x="82" y="331" on="1"/>
        <pt x="82" y="350" on="0"/>
        <pt x="87" y="389" on="0"/>
        <pt x="91" y="407" on="1"/>
        <pt x="95" y="420" on="0"/>
        <pt x="100" y="450" on="0"/>
        <pt x="100" y="463" on="1"/>
        <pt x="100" y="483" on="0"/>
        <pt x="86" y="521" on="0"/>
        <pt x="63" y="524" on="1"/>
        <pt x="57" y="525" on="0"/>
        <pt x="45" y="529" on="0"/>
        <pt x="45" y="538" on="1"/>
        <pt x="45" y="549" on="0"/>
        <pt x="63" y="552" on="0"/>
        <pt x="75" y="552" on="1"/>
        <pt x="106" y="552" on="1"/>
        <pt x="114" y="552" on="0"/>
        <pt x="141" y="549" on="0"/>
        <pt x="167" y="533" on="0"/>
        <pt x="186" y="496" on="0"/>
        <pt x="186" y="463" on="1"/>
        <pt x="186" y="439" on="0"/>
        <pt x="176" y="399" on="1"/>
        <pt x="170" y="373" on="0"/>
        <pt x="165" y="329" on="0"/>
        <pt x="165" y="314" on="1"/>
        <pt x="165" y="290" on="0"/>
        <pt x="175" y="243" on="0"/>
        <pt x="201" y="204" on="0"/>
        <pt x="244" y="175" on="0"/>
        <pt x="278" y="169" on="1"/>
        <pt x="387" y="604" on="1"/>
        <pt x="390" y="615" on="0"/>
        <pt x="391" y="622" on="0"/>
        <pt x="391" y="627" on="1"/>
        <pt x="391" y="636" on="0"/>
        <pt x="383" y="643" on="0"/>
        <pt x="360" y="645" on="1"/>
        <pt x="343" y="647" on="0"/>
        <pt x="324" y="647" on="0"/>
        <pt x="308" y="647" on="1"/>
        <pt x="290" y="647" on="0"/>
        <pt x="273" y="650" on="0"/>
        <pt x="273" y="661" on="1"/>
        <pt x="273" y="678" on="0"/>
        <pt x="290" y="683" on="0"/>
        <pt x="295" y="683" on="1"/>
        <pt x="313" y="683" on="0"/>
        <pt x="353" y="680" on="0"/>
        <pt x="372" y="680" on="1"/>
        <pt x="449" y="679" on="1"/>
        <pt x="527" y="680" on="1"/>
        <pt x="545" y="680" on="0"/>
        <pt x="584" y="683" on="0"/>
        <pt x="601" y="683" on="1"/>
        <pt x="613" y="683" on="0"/>
        <pt x="618" y="671" on="0"/>
        <pt x="618" y="669" on="1"/>
        <pt x="618" y="652" on="0"/>
        <pt x="600" y="647" on="0"/>
        <pt x="577" y="647" on="1"/>
        <pt x="543" y="647" on="0"/>
        <pt x="504" y="643" on="0"/>
        <pt x="484" y="632" on="0"/>
        <pt x="476" y="615" on="0"/>
        <pt x="473" y="601" on="1"/>
      </contour>
    </TTGlyph>
    <TTGlyph name="Q" xMin="69" yMin="-194" xMax="829" yMax="703">
      <contour>
        <pt x="465" y="-6" on="1"/>
        <pt x="426" y="-16" on="0"/>
        <pt x="374" y="-20" on="0"/>
        <pt x="360" y="-20" on="1"/>
        <pt x="296" y="-20" on="0"/>
        <pt x="188" y="20" on="0"/>
        <pt x="112" y="93" on="0"/>
        <pt x="69" y="194" on="0"/>
        <pt x="69" y="254" on="1"/>
        <pt x="69" y="310" on="0"/>
        <pt x="105" y="421" on="0"/>
        <pt x="170" y="520" on="0"/>
        <pt x="259" y="605" on="0"/>
        <pt x="363" y="668" on="0"/>
        <pt x="479" y="703" on="0"/>
        <pt x="539" y="703" on="1"/>
        <pt x="605" y="703" on="0"/>
        <pt x="713" y="660" on="0"/>
        <pt x="788" y="585" on="0"/>
        <pt x="829" y="484" on="0"/>
        <pt x="829" y="425" on="1"/>
        <pt x="829" y="359" on="0"/>
        <pt x="779" y="229" on="0"/>
        <pt x="692" y="118" on="0"/>
        <pt x="575" y="32" on="0"/>
        <pt x="508" y="8" on="1"/>
        <pt x="515" y="-22" on="0"/>
        <pt x="530" y="-60" on="0"/>
        <pt x="549" y="-81" on="0"/>
        <pt x="572" y="-89" on="0"/>
        <pt x="587" y="-89" on="1"/>
        <pt x="600" y="-89" on="0"/>
        <pt x="635" y="-81" on="0"/>
        <pt x="671" y="-60" on="0"/>
        <pt x="702" y="-25" on="0"/>
        <pt x="711" y="1" on="1"/>
        <pt x="712" y="4" on="0"/>
        <pt x="717" y="14" on="0"/>
        <pt x="725" y="14" on="1"/>
        <pt x="731" y="14" on="0"/>
        <pt x="739" y="5" on="0"/>
        <pt x="739" y="0" on="1"/>
        <pt x="739" y="-6" on="0"/>
        <pt x="729" y="-39" on="0"/>
        <pt x="710" y="-82" on="0"/>
        <pt x="680" y="-129" on="0"/>
        <pt x="640" y="-168" on="0"/>
        <pt x="590" y="-194" on="0"/>
        <pt x="560" y="-194" on="1"/>
        <pt x="529" y="-194" on="0"/>
        <pt x="492" y="-170" on="0"/>
        <pt x="472" y="-132" on="0"/>
        <pt x="465" y="-84" on="0"/>
        <pt x="465" y="-60" on="1"/>
      </contour>
      <contour>
        <pt x="292" y="25" on="1"/>
        <pt x="290" y="30" on="0"/>
        <pt x="288" y="37" on="0"/>
        <pt x="288" y="51" on="1"/>
        <pt x="288" y="71" on="0"/>
        <pt x="307" y="107" on="0"/>
        <pt x="338" y="135" on="0"/>
        <pt x="378" y="151" on="0"/>
        <pt x="399" y="151" on="1"/>
        <pt x="443" y="151" on="0"/>
        <pt x="488" y="93" on="0"/>
        <pt x="500" y="46" on="1"/>
        <pt x="569" y="80" on="0"/>
        <pt x="658" y="187" on="0"/>
        <pt x="711" y="304" on="0"/>
        <pt x="732" y="415" on="0"/>
        <pt x="732" y="452" on="1"/>
        <pt x="732" y="507" on="0"/>
        <pt x="700" y="589" on="0"/>
        <pt x="645" y="644" on="0"/>
        <pt x="572" y="671" on="0"/>
        <pt x="531" y="671" on="1"/>
        <pt x="496" y="671" on="0"/>
        <pt x="426" y="651" on="0"/>
        <pt x="360" y="616" on="0"/>
        <pt x="302" y="568" on="0"/>
        <pt x="278" y="539" on="1"/>
        <pt x="244" y="497" on="0"/>
        <pt x="200" y="407" on="0"/>
        <pt x="175" y="324" on="0"/>
        <pt x="166" y="253" on="0"/>
        <pt x="166" y="229" on="1"/>
        <pt x="166" y="179" on="0"/>
        <pt x="191" y="108" on="0"/>
        <pt x="228" y="60" on="0"/>
        <pt x="273" y="32" on="0"/>
      </contour>
      <contour>
        <pt x="465" y="30" on="1"/>
        <pt x="464" y="59" on="0"/>
        <pt x="453" y="95" on="0"/>
        <pt x="436" y="116" on="0"/>
        <pt x="413" y="123" on="0"/>
        <pt x="399" y="123" on="1"/>
        <pt x="383" y="123" on="0"/>
        <pt x="353" y="111" on="0"/>
        <pt x="330" y="91" on="0"/>
        <pt x="316" y="65" on="0"/>
        <pt x="316" y="51" on="1"/>
        <pt x="316" y="36" on="0"/>
        <pt x="327" y="21" on="0"/>
        <pt x="344" y="13" on="0"/>
        <pt x="361" y="12" on="0"/>
        <pt x="367" y="12" on="1"/>
        <pt x="396" y="12" on="0"/>
        <pt x="448" y="24" on="0"/>
      </contour>
    </TTGlyph>
    <TTGlyph name="R" xMin="71" yMin="-20" xMax="849" yMax="683">
      <contour>
        <pt x="349" y="356" on="1"/>
        <pt x="478" y="356" on="1"/>
        <pt x="530" y="356" on="0"/>
        <pt x="619" y="380" on="0"/>
        <pt x="650" y="404" on="1"/>
        <pt x="668" y="418" on="0"/>
        <pt x="693" y="453" on="0"/>
        <pt x="709" y="491" on="0"/>
        <pt x="716" y="529" on="0"/>
        <pt x="716" y="544" on="1"/>
        <pt x="716" y="583" on="0"/>
        <pt x="677" y="624" on="0"/>
        <pt x="617" y="644" on="0"/>
        <pt x="543" y="647" on="0"/>
        <pt x="508" y="647" on="1"/>
        <pt x="444" y="647" on="1"/>
        <pt x="427" y="645" on="0"/>
        <pt x="418" y="634" on="0"/>
        <pt x="413" y="613" on="1"/>
      </contour>
      <contour>
        <pt x="594" y="340" on="1"/>
        <pt x="635" y="325" on="0"/>
        <pt x="690" y="271" on="0"/>
        <pt x="690" y="224" on="1"/>
        <pt x="690" y="216" on="0"/>
        <pt x="689" y="197" on="0"/>
        <pt x="686" y="177" on="1"/>
        <pt x="685" y="167" on="0"/>
        <pt x="681" y="139" on="0"/>
        <pt x="678" y="110" on="0"/>
        <pt x="676" y="82" on="0"/>
        <pt x="676" y="73" on="1"/>
        <pt x="676" y="33" on="0"/>
        <pt x="702" y="8" on="0"/>
        <pt x="721" y="8" on="1"/>
        <pt x="753" y="8" on="0"/>
        <pt x="803" y="60" on="0"/>
        <pt x="814" y="93" on="1"/>
        <pt x="816" y="101" on="0"/>
        <pt x="822" y="110" on="0"/>
        <pt x="832" y="110" on="1"/>
        <pt x="843" y="110" on="0"/>
        <pt x="849" y="98" on="0"/>
        <pt x="849" y="96" on="1"/>
        <pt x="849" y="89" on="0"/>
        <pt x="834" y="51" on="0"/>
        <pt x="801" y="11" on="0"/>
        <pt x="752" y="-20" on="0"/>
        <pt x="717" y="-20" on="1"/>
        <pt x="689" y="-20" on="0"/>
        <pt x="636" y="-8" on="0"/>
        <pt x="595" y="19" on="0"/>
        <pt x="570" y="60" on="0"/>
        <pt x="570" y="90" on="1"/>
        <pt x="570" y="103" on="0"/>
        <pt x="577" y="133" on="0"/>
        <pt x="586" y="168" on="1"/>
        <pt x="590" y="185" on="0"/>
        <pt x="600" y="228" on="0"/>
        <pt x="600" y="238" on="1"/>
        <pt x="600" y="256" on="0"/>
        <pt x="586" y="288" on="0"/>
        <pt x="556" y="313" on="0"/>
        <pt x="509" y="328" on="0"/>
        <pt x="477" y="328" on="1"/>
        <pt x="341" y="328" on="1"/>
        <pt x="278" y="75" on="1"/>
        <pt x="275" y="64" on="0"/>
        <pt x="274" y="54" on="0"/>
        <pt x="274" y="53" on="1"/>
        <pt x="274" y="45" on="0"/>
        <pt x="279" y="40" on="0"/>
        <pt x="296" y="38" on="1"/>
        <pt x="310" y="36" on="0"/>
        <pt x="322" y="36" on="0"/>
        <pt x="334" y="36" on="1"/>
        <pt x="351" y="36" on="0"/>
        <pt x="367" y="32" on="0"/>
        <pt x="367" y="21" on="1"/>
        <pt x="367" y="5" on="0"/>
        <pt x="350" y="0" on="0"/>
        <pt x="346" y="0" on="1"/>
        <pt x="330" y="0" on="0"/>
        <pt x="295" y="3" on="0"/>
        <pt x="279" y="3" on="1"/>
        <pt x="149" y="3" on="1"/>
        <pt x="134" y="3" on="0"/>
        <pt x="101" y="0" on="0"/>
        <pt x="87" y="0" on="1"/>
        <pt x="71" y="0" on="0"/>
        <pt x="71" y="15" on="1"/>
        <pt x="71" y="31" on="0"/>
        <pt x="88" y="36" on="0"/>
        <pt x="101" y="36" on="1"/>
        <pt x="130" y="36" on="0"/>
        <pt x="163" y="40" on="0"/>
        <pt x="180" y="49" on="0"/>
        <pt x="186" y="65" on="0"/>
        <pt x="189" y="78" on="1"/>
        <pt x="322" y="609" on="1"/>
        <pt x="325" y="620" on="0"/>
        <pt x="326" y="629" on="0"/>
        <pt x="326" y="631" on="1"/>
        <pt x="326" y="639" on="0"/>
        <pt x="319" y="643" on="0"/>
        <pt x="303" y="645" on="1"/>
        <pt x="289" y="647" on="0"/>
        <pt x="266" y="647" on="0"/>
        <pt x="265" y="647" on="1"/>
        <pt x="250" y="647" on="0"/>
        <pt x="233" y="650" on="0"/>
        <pt x="233" y="661" on="1"/>
        <pt x="233" y="678" on="0"/>
        <pt x="251" y="683" on="0"/>
        <pt x="265" y="683" on="1"/>
        <pt x="572" y="683" on="1"/>
        <pt x="626" y="683" on="0"/>
        <pt x="717" y="659" on="0"/>
        <pt x="783" y="617" on="0"/>
        <pt x="819" y="561" on="0"/>
        <pt x="819" y="529" on="1"/>
        <pt x="819" y="496" on="0"/>
        <pt x="782" y="436" on="0"/>
        <pt x="720" y="387" on="0"/>
        <pt x="639" y="351" on="0"/>
      </contour>
    </TTGlyph>
    <TTGlyph name="S" xMin="75" yMin="-20" xMax="710" yMax="703">
      <contour>
        <pt x="658" y="478" on="1"/>
        <pt x="655" y="465" on="0"/>
        <pt x="649" y="456" on="0"/>
        <pt x="638" y="456" on="1"/>
        <pt x="634" y="456" on="0"/>
        <pt x="621" y="459" on="0"/>
        <pt x="621" y="470" on="1"/>
        <pt x="621" y="477" on="0"/>
        <pt x="625" y="505" on="0"/>
        <pt x="625" y="515" on="1"/>
        <pt x="625" y="587" on="0"/>
        <pt x="546" y="671" on="0"/>
        <pt x="465" y="671" on="1"/>
        <pt x="426" y="671" on="0"/>
        <pt x="356" y="644" on="0"/>
        <pt x="303" y="599" on="0"/>
        <pt x="272" y="542" on="0"/>
        <pt x="272" y="512" on="1"/>
        <pt x="272" y="491" on="0"/>
        <pt x="286" y="459" on="0"/>
        <pt x="306" y="438" on="0"/>
        <pt x="330" y="424" on="0"/>
        <pt x="339" y="421" on="1"/>
        <pt x="346" y="419" on="0"/>
        <pt x="386" y="409" on="0"/>
        <pt x="402" y="405" on="1"/>
        <pt x="450" y="394" on="0"/>
        <pt x="509" y="379" on="0"/>
        <pt x="545" y="365" on="0"/>
        <pt x="568" y="349" on="0"/>
        <pt x="581" y="335" on="1"/>
        <pt x="598" y="318" on="0"/>
        <pt x="621" y="261" on="0"/>
        <pt x="621" y="228" on="1"/>
        <pt x="621" y="184" on="0"/>
        <pt x="578" y="95" on="0"/>
        <pt x="504" y="24" on="0"/>
        <pt x="405" y="-20" on="0"/>
        <pt x="348" y="-20" on="1"/>
        <pt x="326" y="-20" on="0"/>
        <pt x="275" y="-14" on="0"/>
        <pt x="225" y="1" on="0"/>
        <pt x="177" y="28" on="0"/>
        <pt x="157" y="50" on="1"/>
        <pt x="153" y="46" on="0"/>
        <pt x="140" y="30" on="0"/>
        <pt x="126" y="14" on="0"/>
        <pt x="113" y="-2" on="0"/>
        <pt x="109" y="-6" on="1"/>
        <pt x="99" y="-16" on="0"/>
        <pt x="94" y="-20" on="0"/>
        <pt x="89" y="-20" on="1"/>
        <pt x="81" y="-20" on="0"/>
        <pt x="75" y="-13" on="0"/>
        <pt x="75" y="-8" on="1"/>
        <pt x="75" y="-4" on="0"/>
        <pt x="77" y="4" on="0"/>
        <pt x="78" y="7" on="1"/>
        <pt x="129" y="207" on="1"/>
        <pt x="132" y="221" on="0"/>
        <pt x="137" y="227" on="0"/>
        <pt x="148" y="227" on="1"/>
        <pt x="151" y="227" on="0"/>
        <pt x="164" y="224" on="0"/>
        <pt x="164" y="214" on="1"/>
        <pt x="164" y="212" on="0"/>
        <pt x="163" y="208" on="1"/>
        <pt x="160" y="194" on="0"/>
        <pt x="157" y="166" on="0"/>
        <pt x="157" y="158" on="1"/>
        <pt x="157" y="116" on="0"/>
        <pt x="193" y="62" on="0"/>
        <pt x="249" y="29" on="0"/>
        <pt x="318" y="16" on="0"/>
        <pt x="351" y="16" on="1"/>
        <pt x="394" y="16" on="0"/>
        <pt x="467" y="48" on="0"/>
        <pt x="520" y="99" on="0"/>
        <pt x="550" y="162" on="0"/>
        <pt x="550" y="192" on="1"/>
        <pt x="550" y="220" on="0"/>
        <pt x="530" y="258" on="0"/>
        <pt x="501" y="282" on="0"/>
        <pt x="469" y="294" on="0"/>
        <pt x="457" y="297" on="1"/>
        <pt x="451" y="299" on="0"/>
        <pt x="429" y="304" on="0"/>
        <pt x="404" y="310" on="0"/>
        <pt x="380" y="315" on="0"/>
        <pt x="372" y="317" on="1"/>
        <pt x="347" y="323" on="0"/>
        <pt x="306" y="334" on="0"/>
        <pt x="273" y="347" on="0"/>
        <pt x="246" y="367" on="0"/>
        <pt x="233" y="382" on="1"/>
        <pt x="210" y="410" on="0"/>
        <pt x="200" y="463" on="0"/>
        <pt x="200" y="474" on="1"/>
        <pt x="200" y="517" on="0"/>
        <pt x="243" y="599" on="0"/>
        <pt x="317" y="664" on="0"/>
        <pt x="413" y="703" on="0"/>
        <pt x="466" y="703" on="1"/>
        <pt x="512" y="703" on="0"/>
        <pt x="599" y="672" on="0"/>
        <pt x="628" y="632" on="1"/>
        <pt x="677" y="689" on="1"/>
        <pt x="687" y="699" on="0"/>
        <pt x="692" y="703" on="0"/>
        <pt x="697" y="703" on="1"/>
        <pt x="705" y="703" on="0"/>
        <pt x="710" y="694" on="0"/>
        <pt x="710" y="690" on="1"/>
      </contour>
    </TTGlyph>
    <TTGlyph name="Sigma" xMin="81" yMin="0" xMax="891" yMax="683">
      <contour>
        <pt x="168" y="47" on="1"/>
        <pt x="462" y="47" on="1"/>
        <pt x="509" y="47" on="0"/>
        <pt x="576" y="53" on="0"/>
        <pt x="620" y="61" on="0"/>
        <pt x="645" y="70" on="0"/>
        <pt x="651" y="72" on="1"/>
        <pt x="722" y="101" on="0"/>
        <pt x="776" y="230" on="1"/>
        <pt x="780" y="238" on="0"/>
        <pt x="790" y="241" on="0"/>
        <pt x="793" y="241" on="1"/>
        <pt x="805" y="241" on="0"/>
        <pt x="809" y="228" on="0"/>
        <pt x="809" y="227" on="1"/>
        <pt x="809" y="221" on="0"/>
        <pt x="805" y="211" on="1"/>
        <pt x="729" y="19" on="1"/>
        <pt x="723" y="5" on="0"/>
        <pt x="714" y="0" on="0"/>
        <pt x="696" y="0" on="1"/>
        <pt x="111" y="0" on="1"/>
        <pt x="98" y="0" on="0"/>
        <pt x="81" y="3" on="0"/>
        <pt x="81" y="14" on="1"/>
        <pt x="81" y="19" on="0"/>
        <pt x="86" y="24" on="0"/>
        <pt x="95" y="32" on="1"/>
        <pt x="426" y="304" on="1"/>
        <pt x="242" y="660" on="1"/>
        <pt x="242" y="677" on="0"/>
        <pt x="261" y="683" on="0"/>
        <pt x="275" y="683" on="1"/>
        <pt x="860" y="683" on="1"/>
        <pt x="879" y="683" on="0"/>
        <pt x="891" y="676" on="0"/>
        <pt x="889" y="653" on="1"/>
        <pt x="871" y="479" on="1"/>
        <pt x="869" y="466" on="0"/>
        <pt x="864" y="453" on="0"/>
        <pt x="853" y="453" on="1"/>
        <pt x="842" y="453" on="0"/>
        <pt x="836" y="463" on="0"/>
        <pt x="836" y="470" on="1"/>
        <pt x="836" y="475" on="0"/>
        <pt x="838" y="492" on="0"/>
        <pt x="838" y="509" on="1"/>
        <pt x="838" y="554" on="0"/>
        <pt x="812" y="618" on="0"/>
        <pt x="780" y="629" on="1"/>
        <pt x="763" y="635" on="0"/>
        <pt x="720" y="642" on="0"/>
        <pt x="676" y="646" on="0"/>
        <pt x="638" y="647" on="0"/>
        <pt x="626" y="647" on="1"/>
        <pt x="361" y="647" on="1"/>
        <pt x="512" y="357" on="1"/>
        <pt x="514" y="355" on="0"/>
        <pt x="517" y="346" on="0"/>
        <pt x="517" y="342" on="1"/>
        <pt x="517" y="337" on="0"/>
        <pt x="512" y="331" on="0"/>
        <pt x="504" y="324" on="1"/>
      </contour>
    </TTGlyph>
    <TTGlyph name="T" xMin="43" yMin="0" xMax="790" yMax="676">
      <contour>
        <pt x="354" y="80" on="1"/>
        <pt x="351" y="69" on="0"/>
        <pt x="350" y="62" on="0"/>
        <pt x="350" y="57" on="1"/>
        <pt x="350" y="48" on="0"/>
        <pt x="360" y="40" on="0"/>
        <pt x="386" y="38" on="1"/>
        <pt x="400" y="37" on="0"/>
        <pt x="430" y="36" on="0"/>
        <pt x="444" y="36" on="1"/>
        <pt x="467" y="36" on="0"/>
        <pt x="485" y="33" on="0"/>
        <pt x="485" y="22" on="1"/>
        <pt x="485" y="5" on="0"/>
        <pt x="468" y="0" on="0"/>
        <pt x="462" y="0" on="1"/>
        <pt x="442" y="0" on="0"/>
        <pt x="398" y="2" on="0"/>
        <pt x="378" y="3" on="1"/>
        <pt x="357" y="4" on="0"/>
        <pt x="309" y="4" on="0"/>
        <pt x="288" y="4" on="1"/>
        <pt x="267" y="4" on="0"/>
        <pt x="223" y="3" on="0"/>
        <pt x="202" y="3" on="1"/>
        <pt x="181" y="3" on="0"/>
        <pt x="137" y="0" on="0"/>
        <pt x="116" y="0" on="1"/>
        <pt x="105" y="0" on="0"/>
        <pt x="99" y="12" on="0"/>
        <pt x="99" y="14" on="1"/>
        <pt x="99" y="31" on="0"/>
        <pt x="117" y="36" on="0"/>
        <pt x="144" y="36" on="1"/>
        <pt x="183" y="36" on="0"/>
        <pt x="227" y="40" on="0"/>
        <pt x="250" y="51" on="0"/>
        <pt x="258" y="69" on="0"/>
        <pt x="261" y="83" on="1"/>
        <pt x="393" y="609" on="1"/>
        <pt x="396" y="620" on="0"/>
        <pt x="397" y="629" on="0"/>
        <pt x="397" y="630" on="1"/>
        <pt x="397" y="637" on="0"/>
        <pt x="389" y="640" on="0"/>
        <pt x="366" y="640" on="1"/>
        <pt x="324" y="640" on="1"/>
        <pt x="267" y="640" on="0"/>
        <pt x="193" y="632" on="0"/>
        <pt x="141" y="598" on="0"/>
        <pt x="103" y="530" on="0"/>
        <pt x="81" y="470" on="1"/>
        <pt x="76" y="456" on="0"/>
        <pt x="70" y="446" on="0"/>
        <pt x="60" y="446" on="1"/>
        <pt x="49" y="446" on="0"/>
        <pt x="43" y="457" on="0"/>
        <pt x="43" y="460" on="1"/>
        <pt x="43" y="464" on="0"/>
        <pt x="47" y="475" on="0"/>
        <pt x="48" y="478" on="1"/>
        <pt x="111" y="655" on="1"/>
        <pt x="116" y="671" on="0"/>
        <pt x="126" y="676" on="0"/>
        <pt x="145" y="676" on="1"/>
        <pt x="760" y="676" on="1"/>
        <pt x="774" y="676" on="0"/>
        <pt x="790" y="673" on="0"/>
        <pt x="790" y="662" on="1"/>
        <pt x="763" y="471" on="1"/>
        <pt x="761" y="459" on="0"/>
        <pt x="755" y="446" on="0"/>
        <pt x="744" y="446" on="1"/>
        <pt x="727" y="446" on="0"/>
        <pt x="727" y="461" on="1"/>
        <pt x="729" y="472" on="1"/>
        <pt x="734" y="511" on="0"/>
        <pt x="736" y="541" on="0"/>
        <pt x="736" y="553" on="1"/>
        <pt x="736" y="567" on="0"/>
        <pt x="734" y="591" on="0"/>
        <pt x="725" y="611" on="0"/>
        <pt x="706" y="627" on="0"/>
        <pt x="689" y="632" on="1"/>
        <pt x="670" y="638" on="0"/>
        <pt x="623" y="640" on="0"/>
        <pt x="577" y="640" on="1"/>
        <pt x="570" y="640" on="0"/>
        <pt x="550" y="640" on="0"/>
        <pt x="532" y="640" on="0"/>
        <pt x="519" y="639" on="0"/>
        <pt x="517" y="639" on="1"/>
        <pt x="501" y="638" on="0"/>
        <pt x="491" y="627" on="0"/>
        <pt x="486" y="605" on="1"/>
      </contour>
    </TTGlyph>
    <TTGlyph name="Theta" xMin="69" yMin="-20" xMax="829" yMax="703">
      <contour>
        <pt x="829" y="425" on="1"/>
        <pt x="829" y="340" on="0"/>
        <pt x="749" y="180" on="0"/>
        <pt x="618" y="55" on="0"/>
        <pt x="449" y="-20" on="0"/>
        <pt x="360" y="-20" on="1"/>
        <pt x="296" y="-20" on="0"/>
        <pt x="188" y="20" on="0"/>
        <pt x="112" y="93" on="0"/>
        <pt x="69" y="194" on="0"/>
        <pt x="69" y="254" on="1"/>
        <pt x="69" y="310" on="0"/>
        <pt x="105" y="421" on="0"/>
        <pt x="170" y="520" on="0"/>
        <pt x="259" y="605" on="0"/>
        <pt x="363" y="668" on="0"/>
        <pt x="479" y="703" on="0"/>
        <pt x="539" y="703" on="1"/>
        <pt x="605" y="703" on="0"/>
        <pt x="713" y="660" on="0"/>
        <pt x="788" y="585" on="0"/>
        <pt x="829" y="484" on="0"/>
      </contour>
      <contour>
        <pt x="367" y="10" on="1"/>
        <pt x="431" y="10" on="0"/>
        <pt x="564" y="73" on="0"/>
        <pt x="616" y="133" on="1"/>
        <pt x="653" y="175" on="0"/>
        <pt x="699" y="269" on="0"/>
        <pt x="725" y="356" on="0"/>
        <pt x="735" y="429" on="0"/>
        <pt x="735" y="452" on="1"/>
        <pt x="735" y="508" on="0"/>
        <pt x="702" y="592" on="0"/>
        <pt x="647" y="648" on="0"/>
        <pt x="573" y="675" on="0"/>
        <pt x="532" y="675" on="1"/>
        <pt x="499" y="675" on="0"/>
        <pt x="431" y="657" on="0"/>
        <pt x="366" y="624" on="0"/>
        <pt x="307" y="577" on="0"/>
        <pt x="283" y="549" on="1"/>
        <pt x="247" y="507" on="0"/>
        <pt x="201" y="417" on="0"/>
        <pt x="174" y="332" on="0"/>
        <pt x="163" y="256" on="0"/>
        <pt x="163" y="229" on="1"/>
        <pt x="163" y="171" on="0"/>
        <pt x="198" y="88" on="0"/>
        <pt x="256" y="35" on="0"/>
        <pt x="329" y="10" on="0"/>
      </contour>
      <contour>
        <pt x="265" y="302" on="1"/>
        <pt x="265" y="301" on="0"/>
        <pt x="263" y="290" on="0"/>
        <pt x="259" y="278" on="0"/>
        <pt x="250" y="268" on="0"/>
        <pt x="243" y="268" on="1"/>
        <pt x="241" y="268" on="0"/>
        <pt x="226" y="272" on="0"/>
        <pt x="226" y="284" on="1"/>
        <pt x="226" y="286" on="0"/>
        <pt x="234" y="318" on="0"/>
        <pt x="243" y="357" on="0"/>
        <pt x="253" y="392" on="0"/>
        <pt x="254" y="397" on="1"/>
        <pt x="256" y="405" on="0"/>
        <pt x="262" y="417" on="0"/>
        <pt x="273" y="417" on="1"/>
        <pt x="281" y="417" on="0"/>
        <pt x="289" y="407" on="0"/>
        <pt x="289" y="402" on="1"/>
        <pt x="289" y="400" on="0"/>
        <pt x="287" y="388" on="0"/>
        <pt x="285" y="383" on="1"/>
        <pt x="634" y="383" on="1"/>
        <pt x="634" y="394" on="0"/>
        <pt x="645" y="417" on="0"/>
        <pt x="657" y="417" on="1"/>
        <pt x="665" y="417" on="0"/>
        <pt x="673" y="407" on="0"/>
        <pt x="673" y="402" on="1"/>
        <pt x="673" y="401" on="0"/>
        <pt x="665" y="368" on="0"/>
        <pt x="656" y="329" on="0"/>
        <pt x="647" y="294" on="0"/>
        <pt x="645" y="289" on="1"/>
        <pt x="643" y="279" on="0"/>
        <pt x="637" y="268" on="0"/>
        <pt x="627" y="268" on="1"/>
        <pt x="625" y="268" on="0"/>
        <pt x="610" y="272" on="0"/>
        <pt x="610" y="284" on="1"/>
        <pt x="610" y="292" on="0"/>
        <pt x="614" y="302" on="1"/>
      </contour>
    </TTGlyph>
    <TTGlyph name="U" xMin="92" yMin="-20" xMax="833" yMax="683">
      <contour>
        <pt x="619" y="223" on="1"/>
        <pt x="607" y="174" on="0"/>
        <pt x="547" y="86" on="0"/>
        <pt x="465" y="19" on="0"/>
        <pt x="366" y="-20" on="0"/>
        <pt x="314" y="-20" on="1"/>
        <pt x="269" y="-20" on="0"/>
        <pt x="188" y="7" on="0"/>
        <pt x="128" y="58" on="0"/>
        <pt x="92" y="132" on="0"/>
        <pt x="92" y="178" on="1"/>
        <pt x="92" y="186" on="0"/>
        <pt x="92" y="197" on="0"/>
        <pt x="94" y="212" on="0"/>
        <pt x="98" y="232" on="0"/>
        <pt x="102" y="247" on="1"/>
        <pt x="181" y="564" on="1"/>
        <pt x="183" y="572" on="0"/>
        <pt x="189" y="594" on="0"/>
        <pt x="194" y="613" on="0"/>
        <pt x="197" y="629" on="0"/>
        <pt x="197" y="631" on="1"/>
        <pt x="197" y="639" on="0"/>
        <pt x="190" y="643" on="0"/>
        <pt x="174" y="645" on="1"/>
        <pt x="160" y="647" on="0"/>
        <pt x="137" y="647" on="0"/>
        <pt x="136" y="647" on="1"/>
        <pt x="121" y="647" on="0"/>
        <pt x="104" y="650" on="0"/>
        <pt x="104" y="661" on="1"/>
        <pt x="104" y="678" on="0"/>
        <pt x="120" y="683" on="0"/>
        <pt x="125" y="683" on="1"/>
        <pt x="139" y="683" on="0"/>
        <pt x="173" y="681" on="0"/>
        <pt x="188" y="680" on="1"/>
        <pt x="201" y="679" on="0"/>
        <pt x="244" y="679" on="0"/>
        <pt x="257" y="679" on="1"/>
        <pt x="268" y="679" on="0"/>
        <pt x="303" y="680" on="0"/>
        <pt x="342" y="682" on="0"/>
        <pt x="377" y="683" on="0"/>
        <pt x="388" y="683" on="1"/>
        <pt x="398" y="683" on="0"/>
        <pt x="404" y="672" on="0"/>
        <pt x="404" y="669" on="1"/>
        <pt x="404" y="652" on="0"/>
        <pt x="387" y="647" on="0"/>
        <pt x="374" y="647" on="1"/>
        <pt x="345" y="647" on="0"/>
        <pt x="313" y="643" on="0"/>
        <pt x="296" y="634" on="0"/>
        <pt x="289" y="618" on="0"/>
        <pt x="286" y="605" on="1"/>
        <pt x="189" y="220" on="1"/>
        <pt x="180" y="186" on="0"/>
        <pt x="180" y="149" on="1"/>
        <pt x="180" y="112" on="0"/>
        <pt x="204" y="61" on="0"/>
        <pt x="243" y="30" on="0"/>
        <pt x="293" y="16" on="0"/>
        <pt x="318" y="16" on="1"/>
        <pt x="349" y="16" on="0"/>
        <pt x="420" y="36" on="0"/>
        <pt x="490" y="79" on="0"/>
        <pt x="552" y="147" on="0"/>
        <pt x="573" y="195" on="1"/>
        <pt x="576" y="203" on="0"/>
        <pt x="592" y="259" on="0"/>
        <pt x="612" y="336" on="0"/>
        <pt x="634" y="426" on="0"/>
        <pt x="654" y="509" on="0"/>
        <pt x="670" y="576" on="0"/>
        <pt x="674" y="592" on="1"/>
        <pt x="676" y="600" on="0"/>
        <pt x="676" y="606" on="1"/>
        <pt x="676" y="625" on="0"/>
        <pt x="647" y="646" on="0"/>
        <pt x="612" y="647" on="1"/>
        <pt x="605" y="647" on="0"/>
        <pt x="590" y="651" on="0"/>
        <pt x="590" y="661" on="1"/>
        <pt x="590" y="678" on="0"/>
        <pt x="606" y="683" on="0"/>
        <pt x="610" y="683" on="1"/>
        <pt x="633" y="683" on="0"/>
        <pt x="690" y="679" on="0"/>
        <pt x="715" y="679" on="1"/>
        <pt x="740" y="679" on="0"/>
        <pt x="794" y="683" on="0"/>
        <pt x="818" y="683" on="1"/>
        <pt x="826" y="683" on="0"/>
        <pt x="833" y="674" on="0"/>
        <pt x="833" y="669" on="1"/>
        <pt x="833" y="653" on="0"/>
        <pt x="817" y="647" on="0"/>
        <pt x="813" y="647" on="1"/>
        <pt x="783" y="646" on="0"/>
        <pt x="745" y="634" on="0"/>
        <pt x="722" y="615" on="0"/>
        <pt x="711" y="589" on="0"/>
        <pt x="707" y="574" on="1"/>
      </contour>
    </TTGlyph>
    <TTGlyph name="Upsilon" xMin="46" yMin="0" xMax="790" yMax="703">
      <contour>
        <pt x="392" y="451" on="1"/>
        <pt x="411" y="494" on="0"/>
        <pt x="465" y="583" on="0"/>
        <pt x="536" y="656" on="0"/>
        <pt x="624" y="703" on="0"/>
        <pt x="677" y="703" on="1"/>
        <pt x="705" y="703" on="0"/>
        <pt x="747" y="684" on="0"/>
        <pt x="776" y="652" on="0"/>
        <pt x="790" y="610" on="0"/>
        <pt x="790" y="587" on="1"/>
        <pt x="790" y="554" on="0"/>
        <pt x="776" y="532" on="0"/>
        <pt x="763" y="532" on="1"/>
        <pt x="758" y="532" on="0"/>
        <pt x="748" y="536" on="0"/>
        <pt x="748" y="544" on="1"/>
        <pt x="748" y="545" on="0"/>
        <pt x="751" y="558" on="0"/>
        <pt x="751" y="562" on="1"/>
        <pt x="751" y="587" on="0"/>
        <pt x="704" y="624" on="0"/>
        <pt x="658" y="624" on="1"/>
        <pt x="617" y="624" on="0"/>
        <pt x="541" y="582" on="0"/>
        <pt x="477" y="506" on="0"/>
        <pt x="427" y="400" on="0"/>
        <pt x="411" y="337" on="1"/>
        <pt x="349" y="92" on="1"/>
        <pt x="344" y="68" on="0"/>
        <pt x="342" y="57" on="0"/>
        <pt x="342" y="55" on="1"/>
        <pt x="342" y="44" on="0"/>
        <pt x="357" y="40" on="0"/>
        <pt x="375" y="38" on="1"/>
        <pt x="393" y="36" on="0"/>
        <pt x="420" y="36" on="0"/>
        <pt x="427" y="36" on="1"/>
        <pt x="444" y="36" on="0"/>
        <pt x="460" y="32" on="0"/>
        <pt x="460" y="21" on="1"/>
        <pt x="460" y="5" on="0"/>
        <pt x="443" y="0" on="0"/>
        <pt x="438" y="0" on="1"/>
        <pt x="418" y="0" on="0"/>
        <pt x="377" y="3" on="0"/>
        <pt x="357" y="3" on="1"/>
        <pt x="338" y="3" on="0"/>
        <pt x="299" y="4" on="0"/>
        <pt x="280" y="4" on="1"/>
        <pt x="261" y="4" on="0"/>
        <pt x="218" y="4" on="0"/>
        <pt x="199" y="3" on="1"/>
        <pt x="181" y="2" on="0"/>
        <pt x="142" y="0" on="0"/>
        <pt x="125" y="0" on="1"/>
        <pt x="108" y="0" on="0"/>
        <pt x="108" y="15" on="1"/>
        <pt x="108" y="31" on="0"/>
        <pt x="126" y="36" on="0"/>
        <pt x="140" y="36" on="1"/>
        <pt x="193" y="36" on="0"/>
        <pt x="243" y="45" on="0"/>
        <pt x="250" y="68" on="1"/>
        <pt x="296" y="255" on="1"/>
        <pt x="310" y="308" on="0"/>
        <pt x="325" y="370" on="0"/>
        <pt x="332" y="410" on="0"/>
        <pt x="334" y="439" on="0"/>
        <pt x="334" y="459" on="1"/>
        <pt x="334" y="488" on="0"/>
        <pt x="323" y="547" on="0"/>
        <pt x="296" y="594" on="0"/>
        <pt x="248" y="624" on="0"/>
        <pt x="211" y="624" on="1"/>
        <pt x="173" y="624" on="0"/>
        <pt x="98" y="589" on="0"/>
        <pt x="84" y="551" on="1"/>
        <pt x="81" y="543" on="0"/>
        <pt x="73" y="532" on="0"/>
        <pt x="61" y="532" on="1"/>
        <pt x="56" y="532" on="0"/>
        <pt x="46" y="536" on="0"/>
        <pt x="46" y="543" on="1"/>
        <pt x="46" y="555" on="0"/>
        <pt x="71" y="608" on="0"/>
        <pt x="118" y="662" on="0"/>
        <pt x="188" y="703" on="0"/>
        <pt x="233" y="703" on="1"/>
        <pt x="303" y="703" on="0"/>
        <pt x="393" y="599" on="0"/>
        <pt x="393" y="486" on="1"/>
        <pt x="393" y="468" on="0"/>
        <pt x="393" y="458" on="0"/>
      </contour>
    </TTGlyph>
    <TTGlyph name="V" xMin="79" yMin="-20" xMax="861" yMax="683">
      <contour>
        <pt x="333" y="2" on="1"/>
        <pt x="325" y="-9" on="0"/>
        <pt x="313" y="-20" on="0"/>
        <pt x="299" y="-20" on="1"/>
        <pt x="285" y="-20" on="0"/>
        <pt x="278" y="-9" on="0"/>
        <pt x="275" y="7" on="1"/>
        <pt x="166" y="615" on="1"/>
        <pt x="164" y="625" on="0"/>
        <pt x="160" y="637" on="0"/>
        <pt x="148" y="644" on="0"/>
        <pt x="125" y="647" on="0"/>
        <pt x="104" y="647" on="1"/>
        <pt x="96" y="647" on="0"/>
        <pt x="79" y="650" on="0"/>
        <pt x="79" y="661" on="1"/>
        <pt x="79" y="675" on="0"/>
        <pt x="92" y="683" on="0"/>
        <pt x="99" y="683" on="1"/>
        <pt x="108" y="683" on="0"/>
        <pt x="138" y="682" on="0"/>
        <pt x="171" y="680" on="0"/>
        <pt x="201" y="679" on="0"/>
        <pt x="210" y="679" on="1"/>
        <pt x="221" y="679" on="0"/>
        <pt x="256" y="680" on="0"/>
        <pt x="293" y="682" on="0"/>
        <pt x="328" y="683" on="0"/>
        <pt x="339" y="683" on="1"/>
        <pt x="351" y="683" on="0"/>
        <pt x="356" y="670" on="0"/>
        <pt x="356" y="669" on="1"/>
        <pt x="356" y="652" on="0"/>
        <pt x="339" y="647" on="0"/>
        <pt x="326" y="647" on="1"/>
        <pt x="323" y="647" on="0"/>
        <pt x="303" y="646" on="0"/>
        <pt x="281" y="641" on="0"/>
        <pt x="263" y="630" on="0"/>
        <pt x="263" y="620" on="1"/>
        <pt x="263" y="617" on="0"/>
        <pt x="263" y="612" on="0"/>
        <pt x="265" y="605" on="1"/>
        <pt x="356" y="94" on="1"/>
        <pt x="684" y="578" on="1"/>
        <pt x="692" y="590" on="0"/>
        <pt x="702" y="607" on="0"/>
        <pt x="702" y="618" on="1"/>
        <pt x="702" y="629" on="0"/>
        <pt x="685" y="645" on="0"/>
        <pt x="661" y="647" on="1"/>
        <pt x="658" y="647" on="0"/>
        <pt x="643" y="651" on="0"/>
        <pt x="643" y="661" on="1"/>
        <pt x="643" y="675" on="0"/>
        <pt x="656" y="683" on="0"/>
        <pt x="663" y="683" on="1"/>
        <pt x="686" y="683" on="0"/>
        <pt x="743" y="679" on="0"/>
        <pt x="767" y="679" on="1"/>
        <pt x="786" y="679" on="0"/>
        <pt x="829" y="683" on="0"/>
        <pt x="847" y="683" on="1"/>
        <pt x="856" y="683" on="0"/>
        <pt x="861" y="671" on="0"/>
        <pt x="861" y="669" on="1"/>
        <pt x="861" y="654" on="0"/>
        <pt x="847" y="648" on="0"/>
        <pt x="838" y="647" on="1"/>
        <pt x="797" y="644" on="0"/>
        <pt x="743" y="605" on="0"/>
        <pt x="715" y="564" on="1"/>
      </contour>
    </TTGlyph>
    <TTGlyph name="W" xMin="78" yMin="-20" xMax="1171" yMax="683">
      <contour>
        <pt x="693" y="1" on="1"/>
        <pt x="688" y="-8" on="0"/>
        <pt x="676" y="-20" on="0"/>
        <pt x="663" y="-20" on="1"/>
        <pt x="652" y="-20" on="0"/>
        <pt x="643" y="-10" on="0"/>
        <pt x="641" y="6" on="1"/>
        <pt x="586" y="514" on="1"/>
        <pt x="274" y="0" on="1"/>
        <pt x="269" y="-8" on="0"/>
        <pt x="257" y="-20" on="0"/>
        <pt x="244" y="-20" on="1"/>
        <pt x="230" y="-20" on="0"/>
        <pt x="225" y="-8" on="0"/>
        <pt x="223" y="7" on="1"/>
        <pt x="156" y="616" on="1"/>
        <pt x="155" y="625" on="0"/>
        <pt x="152" y="637" on="0"/>
        <pt x="143" y="644" on="0"/>
        <pt x="124" y="647" on="0"/>
        <pt x="106" y="647" on="1"/>
        <pt x="94" y="647" on="0"/>
        <pt x="78" y="651" on="0"/>
        <pt x="78" y="662" on="1"/>
        <pt x="78" y="675" on="0"/>
        <pt x="90" y="683" on="0"/>
        <pt x="98" y="683" on="1"/>
        <pt x="121" y="683" on="0"/>
        <pt x="178" y="679" on="0"/>
        <pt x="203" y="679" on="1"/>
        <pt x="214" y="679" on="0"/>
        <pt x="249" y="680" on="0"/>
        <pt x="286" y="682" on="0"/>
        <pt x="321" y="683" on="0"/>
        <pt x="332" y="683" on="1"/>
        <pt x="342" y="683" on="0"/>
        <pt x="348" y="672" on="0"/>
        <pt x="348" y="669" on="1"/>
        <pt x="348" y="652" on="0"/>
        <pt x="331" y="647" on="0"/>
        <pt x="321" y="647" on="1"/>
        <pt x="318" y="647" on="0"/>
        <pt x="295" y="646" on="0"/>
        <pt x="271" y="641" on="0"/>
        <pt x="251" y="629" on="0"/>
        <pt x="251" y="618" on="1"/>
        <pt x="251" y="617" on="0"/>
        <pt x="253" y="606" on="0"/>
        <pt x="253" y="603" on="1"/>
        <pt x="306" y="113" on="1"/>
        <pt x="581" y="565" on="1"/>
        <pt x="578" y="588" on="0"/>
        <pt x="575" y="625" on="0"/>
        <pt x="574" y="630" on="1"/>
        <pt x="572" y="638" on="0"/>
        <pt x="555" y="647" on="0"/>
        <pt x="523" y="647" on="1"/>
        <pt x="513" y="647" on="0"/>
        <pt x="497" y="650" on="0"/>
        <pt x="497" y="661" on="1"/>
        <pt x="497" y="678" on="0"/>
        <pt x="513" y="683" on="0"/>
        <pt x="517" y="683" on="1"/>
        <pt x="526" y="683" on="0"/>
        <pt x="554" y="682" on="0"/>
        <pt x="585" y="680" on="0"/>
        <pt x="613" y="679" on="0"/>
        <pt x="622" y="679" on="1"/>
        <pt x="637" y="679" on="0"/>
        <pt x="673" y="679" on="0"/>
        <pt x="688" y="680" on="1"/>
        <pt x="702" y="681" on="0"/>
        <pt x="736" y="683" on="0"/>
        <pt x="750" y="683" on="1"/>
        <pt x="762" y="683" on="0"/>
        <pt x="767" y="670" on="0"/>
        <pt x="767" y="669" on="1"/>
        <pt x="767" y="652" on="0"/>
        <pt x="750" y="647" on="0"/>
        <pt x="740" y="647" on="1"/>
        <pt x="736" y="647" on="0"/>
        <pt x="713" y="646" on="0"/>
        <pt x="689" y="640" on="0"/>
        <pt x="670" y="629" on="0"/>
        <pt x="670" y="618" on="1"/>
        <pt x="725" y="113" on="1"/>
        <pt x="1007" y="576" on="1"/>
        <pt x="1010" y="581" on="0"/>
        <pt x="1022" y="604" on="0"/>
        <pt x="1022" y="612" on="1"/>
        <pt x="1022" y="623" on="0"/>
        <pt x="1011" y="636" on="0"/>
        <pt x="995" y="643" on="0"/>
        <pt x="975" y="647" on="0"/>
        <pt x="967" y="647" on="1"/>
        <pt x="964" y="647" on="0"/>
        <pt x="949" y="651" on="0"/>
        <pt x="949" y="661" on="1"/>
        <pt x="949" y="678" on="0"/>
        <pt x="966" y="683" on="0"/>
        <pt x="970" y="683" on="1"/>
        <pt x="995" y="683" on="0"/>
        <pt x="1055" y="679" on="0"/>
        <pt x="1081" y="679" on="1"/>
        <pt x="1099" y="679" on="0"/>
        <pt x="1140" y="683" on="0"/>
        <pt x="1157" y="683" on="1"/>
        <pt x="1163" y="683" on="0"/>
        <pt x="1171" y="674" on="0"/>
        <pt x="1171" y="669" on="1"/>
        <pt x="1171" y="654" on="0"/>
        <pt x="1156" y="648" on="0"/>
        <pt x="1148" y="647" on="1"/>
        <pt x="1111" y="644" on="0"/>
        <pt x="1070" y="611" on="0"/>
        <pt x="1054" y="591" on="1"/>
        <pt x="1036" y="565" on="1"/>
      </contour>
    </TTGlyph>
    <TTGlyph name="X" xMin="50" yMin="0" xMax="933" yMax="683">
      <contour>
        <pt x="717" y="64" on="1"/>
        <pt x="720" y="58" on="0"/>
        <pt x="727" y="47" on="0"/>
        <pt x="742" y="40" on="0"/>
        <pt x="767" y="36" on="0"/>
        <pt x="789" y="36" on="1"/>
        <pt x="801" y="36" on="0"/>
        <pt x="818" y="33" on="0"/>
        <pt x="818" y="22" on="1"/>
        <pt x="818" y="5" on="0"/>
        <pt x="801" y="0" on="0"/>
        <pt x="797" y="0" on="1"/>
        <pt x="785" y="0" on="0"/>
        <pt x="756" y="2" on="0"/>
        <pt x="743" y="3" on="1"/>
        <pt x="729" y="4" on="0"/>
        <pt x="697" y="4" on="0"/>
        <pt x="684" y="4" on="1"/>
        <pt x="668" y="4" on="0"/>
        <pt x="635" y="3" on="0"/>
        <pt x="619" y="3" on="1"/>
        <pt x="603" y="3" on="0"/>
        <pt x="568" y="0" on="0"/>
        <pt x="552" y="0" on="1"/>
        <pt x="540" y="0" on="0"/>
        <pt x="535" y="13" on="0"/>
        <pt x="535" y="14" on="1"/>
        <pt x="535" y="30" on="0"/>
        <pt x="550" y="35" on="0"/>
        <pt x="557" y="36" on="1"/>
        <pt x="583" y="38" on="0"/>
        <pt x="610" y="56" on="0"/>
        <pt x="610" y="61" on="1"/>
        <pt x="610" y="62" on="0"/>
        <pt x="608" y="66" on="0"/>
        <pt x="604" y="74" on="1"/>
        <pt x="483" y="311" on="1"/>
        <pt x="280" y="112" on="1"/>
        <pt x="263" y="95" on="0"/>
        <pt x="245" y="73" on="0"/>
        <pt x="245" y="61" on="1"/>
        <pt x="245" y="45" on="0"/>
        <pt x="268" y="37" on="0"/>
        <pt x="276" y="36" on="1"/>
        <pt x="281" y="36" on="0"/>
        <pt x="294" y="32" on="0"/>
        <pt x="294" y="21" on="1"/>
        <pt x="294" y="5" on="0"/>
        <pt x="277" y="0" on="0"/>
        <pt x="273" y="0" on="1"/>
        <pt x="260" y="0" on="0"/>
        <pt x="230" y="2" on="0"/>
        <pt x="216" y="3" on="1"/>
        <pt x="203" y="4" on="0"/>
        <pt x="170" y="4" on="0"/>
        <pt x="157" y="4" on="1"/>
        <pt x="134" y="4" on="0"/>
        <pt x="86" y="0" on="0"/>
        <pt x="64" y="0" on="1"/>
        <pt x="56" y="0" on="0"/>
        <pt x="50" y="11" on="0"/>
        <pt x="50" y="14" on="1"/>
        <pt x="50" y="30" on="0"/>
        <pt x="64" y="35" on="0"/>
        <pt x="75" y="36" on="1"/>
        <pt x="109" y="38" on="0"/>
        <pt x="162" y="56" on="0"/>
        <pt x="217" y="95" on="0"/>
        <pt x="282" y="158" on="0"/>
        <pt x="328" y="203" on="1"/>
        <pt x="335" y="210" on="0"/>
        <pt x="357" y="232" on="0"/>
        <pt x="382" y="256" on="0"/>
        <pt x="405" y="278" on="0"/>
        <pt x="412" y="285" on="1"/>
        <pt x="468" y="341" on="1"/>
        <pt x="328" y="617" on="1"/>
        <pt x="324" y="625" on="0"/>
        <pt x="317" y="636" on="0"/>
        <pt x="302" y="643" on="0"/>
        <pt x="277" y="647" on="0"/>
        <pt x="255" y="647" on="1"/>
        <pt x="243" y="647" on="0"/>
        <pt x="226" y="650" on="0"/>
        <pt x="226" y="661" on="1"/>
        <pt x="226" y="678" on="0"/>
        <pt x="243" y="683" on="0"/>
        <pt x="247" y="683" on="1"/>
        <pt x="259" y="683" on="0"/>
        <pt x="288" y="681" on="0"/>
        <pt x="301" y="680" on="1"/>
        <pt x="315" y="679" on="0"/>
        <pt x="347" y="679" on="0"/>
        <pt x="360" y="679" on="1"/>
        <pt x="376" y="679" on="0"/>
        <pt x="409" y="680" on="0"/>
        <pt x="425" y="680" on="1"/>
        <pt x="441" y="680" on="0"/>
        <pt x="476" y="683" on="0"/>
        <pt x="492" y="683" on="1"/>
        <pt x="504" y="683" on="0"/>
        <pt x="509" y="670" on="0"/>
        <pt x="509" y="669" on="1"/>
        <pt x="509" y="653" on="0"/>
        <pt x="493" y="647" on="0"/>
        <pt x="488" y="647" on="1"/>
        <pt x="462" y="645" on="0"/>
        <pt x="435" y="627" on="0"/>
        <pt x="435" y="622" on="1"/>
        <pt x="435" y="619" on="0"/>
        <pt x="438" y="610" on="0"/>
        <pt x="440" y="608" on="1"/>
        <pt x="541" y="412" on="1"/>
        <pt x="555" y="426" on="0"/>
        <pt x="610" y="481" on="0"/>
        <pt x="666" y="536" on="0"/>
        <pt x="710" y="578" on="0"/>
        <pt x="713" y="581" on="1"/>
        <pt x="721" y="589" on="0"/>
        <pt x="738" y="611" on="0"/>
        <pt x="738" y="622" on="1"/>
        <pt x="738" y="630" on="0"/>
        <pt x="730" y="640" on="0"/>
        <pt x="719" y="645" on="0"/>
        <pt x="707" y="647" on="0"/>
        <pt x="704" y="647" on="1"/>
        <pt x="693" y="648" on="0"/>
        <pt x="689" y="660" on="0"/>
        <pt x="689" y="661" on="1"/>
        <pt x="689" y="675" on="0"/>
        <pt x="703" y="683" on="0"/>
        <pt x="709" y="683" on="1"/>
        <pt x="719" y="683" on="0"/>
        <pt x="750" y="682" on="0"/>
        <pt x="784" y="680" on="0"/>
        <pt x="815" y="679" on="0"/>
        <pt x="825" y="679" on="1"/>
        <pt x="848" y="679" on="0"/>
        <pt x="897" y="683" on="0"/>
        <pt x="919" y="683" on="1"/>
        <pt x="921" y="683" on="0"/>
        <pt x="933" y="677" on="0"/>
        <pt x="933" y="668" on="1"/>
        <pt x="933" y="653" on="0"/>
        <pt x="918" y="648" on="0"/>
        <pt x="908" y="647" on="1"/>
        <pt x="874" y="645" on="0"/>
        <pt x="822" y="627" on="0"/>
        <pt x="766" y="588" on="0"/>
        <pt x="699" y="524" on="0"/>
        <pt x="651" y="477" on="1"/>
        <pt x="556" y="382" on="1"/>
      </contour>
    </TTGlyph>
    <TTGlyph name="Xi" xMin="75" yMin="0" xMax="857" yMax="676">
      <contour>
        <pt x="240" y="654" on="1"/>
        <pt x="245" y="670" on="0"/>
        <pt x="254" y="676" on="0"/>
        <pt x="273" y="676" on="1"/>
        <pt x="827" y="676" on="1"/>
        <pt x="841" y="676" on="0"/>
        <pt x="857" y="673" on="0"/>
        <pt x="857" y="662" on="1"/>
        <pt x="857" y="660" on="0"/>
        <pt x="856" y="648" on="0"/>
        <pt x="855" y="646" on="1"/>
        <pt x="835" y="540" on="1"/>
        <pt x="832" y="525" on="0"/>
        <pt x="827" y="516" on="0"/>
        <pt x="816" y="516" on="1"/>
        <pt x="804" y="516" on="0"/>
        <pt x="800" y="529" on="0"/>
        <pt x="800" y="530" on="1"/>
        <pt x="800" y="532" on="0"/>
        <pt x="801" y="539" on="0"/>
        <pt x="801" y="542" on="1"/>
        <pt x="806" y="565" on="0"/>
        <pt x="807" y="586" on="0"/>
        <pt x="807" y="599" on="1"/>
        <pt x="791" y="601" on="0"/>
        <pt x="750" y="602" on="0"/>
        <pt x="734" y="602" on="1"/>
        <pt x="342" y="602" on="1"/>
        <pt x="338" y="602" on="0"/>
        <pt x="314" y="602" on="0"/>
        <pt x="288" y="601" on="0"/>
        <pt x="266" y="598" on="0"/>
        <pt x="264" y="596" on="1"/>
        <pt x="261" y="593" on="0"/>
        <pt x="253" y="579" on="0"/>
        <pt x="246" y="562" on="0"/>
        <pt x="240" y="544" on="0"/>
        <pt x="238" y="538" on="1"/>
        <pt x="234" y="526" on="0"/>
        <pt x="228" y="516" on="0"/>
        <pt x="218" y="516" on="1"/>
        <pt x="211" y="516" on="0"/>
        <pt x="201" y="522" on="0"/>
        <pt x="201" y="530" on="1"/>
        <pt x="201" y="531" on="0"/>
        <pt x="205" y="542" on="0"/>
        <pt x="205" y="544" on="1"/>
      </contour>
      <contour>
        <pt x="105" y="0" on="1"/>
        <pt x="91" y="0" on="0"/>
        <pt x="75" y="4" on="0"/>
        <pt x="75" y="15" on="1"/>
        <pt x="75" y="18" on="0"/>
        <pt x="82" y="56" on="0"/>
        <pt x="90" y="101" on="0"/>
        <pt x="99" y="142" on="0"/>
        <pt x="100" y="149" on="1"/>
        <pt x="102" y="160" on="0"/>
        <pt x="107" y="171" on="0"/>
        <pt x="118" y="171" on="1"/>
        <pt x="135" y="171" on="0"/>
        <pt x="135" y="156" on="1"/>
        <pt x="135" y="154" on="0"/>
        <pt x="132" y="137" on="0"/>
        <pt x="131" y="133" on="1"/>
        <pt x="127" y="113" on="0"/>
        <pt x="126" y="89" on="0"/>
        <pt x="126" y="78" on="1"/>
        <pt x="137" y="77" on="0"/>
        <pt x="151" y="75" on="0"/>
        <pt x="166" y="74" on="0"/>
        <pt x="186" y="74" on="0"/>
        <pt x="203" y="74" on="1"/>
        <pt x="597" y="74" on="1"/>
        <pt x="602" y="74" on="0"/>
        <pt x="626" y="74" on="0"/>
        <pt x="652" y="75" on="0"/>
        <pt x="675" y="77" on="0"/>
        <pt x="679" y="79" on="1"/>
        <pt x="682" y="81" on="0"/>
        <pt x="691" y="100" on="0"/>
        <pt x="700" y="123" on="0"/>
        <pt x="708" y="144" on="0"/>
        <pt x="709" y="148" on="1"/>
        <pt x="714" y="162" on="0"/>
        <pt x="719" y="171" on="0"/>
        <pt x="729" y="171" on="1"/>
        <pt x="739" y="171" on="0"/>
        <pt x="746" y="162" on="0"/>
        <pt x="746" y="157" on="1"/>
        <pt x="746" y="154" on="0"/>
        <pt x="734" y="114" on="0"/>
        <pt x="719" y="64" on="0"/>
        <pt x="704" y="20" on="0"/>
        <pt x="702" y="14" on="1"/>
        <pt x="698" y="3" on="0"/>
        <pt x="688" y="0" on="0"/>
        <pt x="671" y="0" on="1"/>
      </contour>
      <contour>
        <pt x="670" y="285" on="1"/>
        <pt x="667" y="273" on="0"/>
        <pt x="662" y="263" on="0"/>
        <pt x="651" y="263" on="1"/>
        <pt x="643" y="263" on="0"/>
        <pt x="635" y="273" on="0"/>
        <pt x="635" y="278" on="1"/>
        <pt x="635" y="283" on="0"/>
        <pt x="641" y="306" on="0"/>
        <pt x="643" y="315" on="1"/>
        <pt x="283" y="315" on="1"/>
        <pt x="281" y="307" on="0"/>
        <pt x="280" y="301" on="0"/>
        <pt x="279" y="297" on="0"/>
        <pt x="277" y="291" on="0"/>
        <pt x="275" y="283" on="1"/>
        <pt x="273" y="275" on="0"/>
        <pt x="267" y="263" on="0"/>
        <pt x="256" y="263" on="1"/>
        <pt x="248" y="263" on="0"/>
        <pt x="240" y="273" on="0"/>
        <pt x="240" y="278" on="1"/>
        <pt x="274" y="417" on="1"/>
        <pt x="277" y="429" on="0"/>
        <pt x="283" y="441" on="0"/>
        <pt x="294" y="441" on="1"/>
        <pt x="302" y="441" on="0"/>
        <pt x="310" y="431" on="0"/>
        <pt x="310" y="426" on="1"/>
        <pt x="310" y="421" on="0"/>
        <pt x="304" y="398" on="0"/>
        <pt x="302" y="389" on="1"/>
        <pt x="662" y="389" on="1"/>
        <pt x="664" y="397" on="0"/>
        <pt x="665" y="403" on="0"/>
        <pt x="666" y="407" on="0"/>
        <pt x="668" y="413" on="0"/>
        <pt x="670" y="421" on="1"/>
        <pt x="672" y="429" on="0"/>
        <pt x="678" y="441" on="0"/>
        <pt x="689" y="441" on="1"/>
        <pt x="697" y="441" on="0"/>
        <pt x="705" y="431" on="0"/>
        <pt x="705" y="426" on="1"/>
        <pt x="705" y="425" on="0"/>
        <pt x="703" y="414" on="0"/>
        <pt x="702" y="412" on="1"/>
      </contour>
    </TTGlyph>
    <TTGlyph name="Y" xMin="58" yMin="0" xMax="853" yMax="683">
      <contour>
        <pt x="412" y="283" on="1"/>
        <pt x="404" y="275" on="0"/>
        <pt x="401" y="267" on="0"/>
        <pt x="398" y="256" on="1"/>
        <pt x="397" y="255" on="0"/>
        <pt x="390" y="225" on="0"/>
        <pt x="380" y="185" on="0"/>
        <pt x="370" y="145" on="0"/>
        <pt x="367" y="133" on="1"/>
        <pt x="364" y="123" on="0"/>
        <pt x="358" y="97" on="0"/>
        <pt x="352" y="73" on="0"/>
        <pt x="348" y="54" on="0"/>
        <pt x="348" y="52" on="1"/>
        <pt x="348" y="44" on="0"/>
        <pt x="356" y="40" on="0"/>
        <pt x="370" y="38" on="1"/>
        <pt x="384" y="36" on="0"/>
        <pt x="396" y="36" on="0"/>
        <pt x="408" y="36" on="1"/>
        <pt x="425" y="36" on="0"/>
        <pt x="442" y="33" on="0"/>
        <pt x="442" y="22" on="1"/>
        <pt x="442" y="6" on="0"/>
        <pt x="425" y="0" on="0"/>
        <pt x="420" y="0" on="1"/>
        <pt x="404" y="0" on="0"/>
        <pt x="369" y="3" on="0"/>
        <pt x="353" y="3" on="1"/>
        <pt x="337" y="3" on="0"/>
        <pt x="304" y="4" on="0"/>
        <pt x="289" y="4" on="1"/>
        <pt x="275" y="4" on="0"/>
        <pt x="237" y="3" on="0"/>
        <pt x="223" y="3" on="1"/>
        <pt x="208" y="3" on="0"/>
        <pt x="175" y="0" on="0"/>
        <pt x="161" y="0" on="1"/>
        <pt x="145" y="0" on="0"/>
        <pt x="145" y="15" on="1"/>
        <pt x="145" y="31" on="0"/>
        <pt x="162" y="36" on="0"/>
        <pt x="175" y="36" on="1"/>
        <pt x="204" y="36" on="0"/>
        <pt x="237" y="39" on="0"/>
        <pt x="254" y="50" on="0"/>
        <pt x="262" y="72" on="0"/>
        <pt x="267" y="91" on="1"/>
        <pt x="312" y="274" on="1"/>
        <pt x="157" y="616" on="1"/>
        <pt x="153" y="624" on="0"/>
        <pt x="146" y="636" on="0"/>
        <pt x="132" y="644" on="0"/>
        <pt x="107" y="647" on="0"/>
        <pt x="85" y="647" on="1"/>
        <pt x="74" y="647" on="0"/>
        <pt x="58" y="650" on="0"/>
        <pt x="58" y="661" on="1"/>
        <pt x="58" y="675" on="0"/>
        <pt x="72" y="683" on="0"/>
        <pt x="78" y="683" on="1"/>
        <pt x="87" y="683" on="0"/>
        <pt x="118" y="682" on="0"/>
        <pt x="152" y="680" on="0"/>
        <pt x="183" y="679" on="0"/>
        <pt x="192" y="679" on="1"/>
        <pt x="203" y="679" on="0"/>
        <pt x="240" y="680" on="0"/>
        <pt x="279" y="682" on="0"/>
        <pt x="315" y="683" on="0"/>
        <pt x="326" y="683" on="1"/>
        <pt x="338" y="683" on="0"/>
        <pt x="342" y="670" on="0"/>
        <pt x="342" y="669" on="1"/>
        <pt x="342" y="652" on="0"/>
        <pt x="326" y="647" on="0"/>
        <pt x="316" y="647" on="1"/>
        <pt x="314" y="647" on="0"/>
        <pt x="296" y="646" on="0"/>
        <pt x="277" y="643" on="0"/>
        <pt x="262" y="636" on="0"/>
        <pt x="262" y="629" on="1"/>
        <pt x="262" y="628" on="0"/>
        <pt x="264" y="623" on="0"/>
        <pt x="269" y="612" on="1"/>
        <pt x="401" y="319" on="1"/>
        <pt x="651" y="580" on="1"/>
        <pt x="656" y="585" on="0"/>
        <pt x="663" y="595" on="0"/>
        <pt x="668" y="602" on="1"/>
        <pt x="673" y="609" on="0"/>
        <pt x="681" y="621" on="0"/>
        <pt x="681" y="628" on="1"/>
        <pt x="681" y="633" on="0"/>
        <pt x="674" y="645" on="0"/>
        <pt x="652" y="647" on="1"/>
        <pt x="648" y="647" on="0"/>
        <pt x="634" y="651" on="0"/>
        <pt x="634" y="661" on="1"/>
        <pt x="634" y="678" on="0"/>
        <pt x="650" y="683" on="0"/>
        <pt x="654" y="683" on="1"/>
        <pt x="677" y="683" on="0"/>
        <pt x="734" y="679" on="0"/>
        <pt x="758" y="679" on="1"/>
        <pt x="778" y="679" on="0"/>
        <pt x="820" y="683" on="0"/>
        <pt x="839" y="683" on="1"/>
        <pt x="845" y="683" on="0"/>
        <pt x="853" y="674" on="0"/>
        <pt x="853" y="669" on="1"/>
        <pt x="853" y="653" on="0"/>
        <pt x="838" y="648" on="0"/>
        <pt x="830" y="647" on="1"/>
        <pt x="820" y="646" on="0"/>
        <pt x="770" y="637" on="0"/>
        <pt x="739" y="616" on="1"/>
        <pt x="722" y="605" on="0"/>
        <pt x="692" y="578" on="0"/>
        <pt x="678" y="563" on="1"/>
      </contour>
    </TTGlyph>
    <TTGlyph name="Z" xMin="80" yMin="0" xMax="797" yMax="683">
      <contour>
        <pt x="200" y="40" on="1"/>
        <pt x="391" y="40" on="1"/>
        <pt x="456" y="40" on="0"/>
        <pt x="544" y="66" on="0"/>
        <pt x="605" y="118" on="0"/>
        <pt x="645" y="196" on="0"/>
        <pt x="662" y="247" on="1"/>
        <pt x="667" y="264" on="0"/>
        <pt x="674" y="273" on="0"/>
        <pt x="684" y="273" on="1"/>
        <pt x="696" y="273" on="0"/>
        <pt x="700" y="260" on="0"/>
        <pt x="700" y="259" on="1"/>
        <pt x="700" y="258" on="0"/>
        <pt x="699" y="253" on="0"/>
        <pt x="696" y="243" on="1"/>
        <pt x="624" y="20" on="1"/>
        <pt x="619" y="6" on="0"/>
        <pt x="611" y="0" on="0"/>
        <pt x="591" y="0" on="1"/>
        <pt x="107" y="0" on="1"/>
        <pt x="93" y="0" on="0"/>
        <pt x="80" y="3" on="0"/>
        <pt x="80" y="11" on="1"/>
        <pt x="80" y="23" on="0"/>
        <pt x="92" y="39" on="0"/>
        <pt x="97" y="44" on="1"/>
        <pt x="680" y="647" on="1"/>
        <pt x="500" y="647" on="1"/>
        <pt x="452" y="647" on="0"/>
        <pt x="373" y="631" on="0"/>
        <pt x="311" y="591" on="0"/>
        <pt x="263" y="522" on="0"/>
        <pt x="245" y="469" on="1"/>
        <pt x="243" y="461" on="0"/>
        <pt x="237" y="453" on="0"/>
        <pt x="227" y="453" on="1"/>
        <pt x="217" y="453" on="0"/>
        <pt x="210" y="463" on="0"/>
        <pt x="210" y="467" on="1"/>
        <pt x="210" y="469" on="0"/>
        <pt x="211" y="474" on="0"/>
        <pt x="214" y="483" on="1"/>
        <pt x="270" y="663" on="1"/>
        <pt x="275" y="677" on="0"/>
        <pt x="283" y="683" on="0"/>
        <pt x="303" y="683" on="1"/>
        <pt x="770" y="683" on="1"/>
        <pt x="784" y="683" on="0"/>
        <pt x="797" y="680" on="0"/>
        <pt x="797" y="672" on="1"/>
        <pt x="797" y="662" on="0"/>
        <pt x="789" y="650" on="0"/>
        <pt x="783" y="644" on="1"/>
      </contour>
    </TTGlyph>
    <TTGlyph name="a" xMin="61" yMin="-10" xMax="571" yMax="441">
      <contour>
        <pt x="422" y="382" on="1"/>
        <pt x="427" y="403" on="0"/>
        <pt x="455" y="422" on="0"/>
        <pt x="468" y="422" on="1"/>
        <pt x="480" y="422" on="0"/>
        <pt x="502" y="407" on="0"/>
        <pt x="502" y="390" on="1"/>
        <pt x="502" y="388" on="0"/>
        <pt x="498" y="371" on="0"/>
        <pt x="492" y="347" on="0"/>
        <pt x="486" y="322" on="0"/>
        <pt x="484" y="312" on="1"/>
        <pt x="464" y="236" on="1"/>
        <pt x="460" y="220" on="0"/>
        <pt x="447" y="166" on="0"/>
        <pt x="442" y="146" on="1"/>
        <pt x="437" y="126" on="0"/>
        <pt x="427" y="80" on="0"/>
        <pt x="427" y="67" on="1"/>
        <pt x="427" y="47" on="0"/>
        <pt x="440" y="18" on="0"/>
        <pt x="460" y="18" on="1"/>
        <pt x="476" y="18" on="0"/>
        <pt x="499" y="38" on="0"/>
        <pt x="516" y="69" on="0"/>
        <pt x="529" y="107" on="0"/>
        <pt x="533" y="125" on="1"/>
        <pt x="538" y="145" on="0"/>
        <pt x="544" y="156" on="0"/>
        <pt x="555" y="156" on="1"/>
        <pt x="557" y="156" on="0"/>
        <pt x="571" y="153" on="0"/>
        <pt x="571" y="143" on="1"/>
        <pt x="571" y="142" on="0"/>
        <pt x="566" y="121" on="0"/>
        <pt x="557" y="91" on="0"/>
        <pt x="544" y="58" on="0"/>
        <pt x="536" y="43" on="1"/>
        <pt x="522" y="20" on="0"/>
        <pt x="484" y="-10" on="0"/>
        <pt x="457" y="-10" on="1"/>
        <pt x="447" y="-10" on="0"/>
        <pt x="418" y="-5" on="0"/>
        <pt x="388" y="10" on="0"/>
        <pt x="361" y="38" on="0"/>
        <pt x="354" y="60" on="1"/>
        <pt x="324" y="31" on="0"/>
        <pt x="253" y="-10" on="0"/>
        <pt x="212" y="-10" on="1"/>
        <pt x="180" y="-10" on="0"/>
        <pt x="125" y="15" on="0"/>
        <pt x="84" y="59" on="0"/>
        <pt x="61" y="120" on="0"/>
        <pt x="61" y="156" on="1"/>
        <pt x="61" y="210" on="0"/>
        <pt x="106" y="313" on="0"/>
        <pt x="178" y="392" on="0"/>
        <pt x="271" y="441" on="0"/>
        <pt x="319" y="441" on="1"/>
        <pt x="355" y="441" on="0"/>
        <pt x="406" y="407" on="0"/>
      </contour>
      <contour>
        <pt x="405" y="312" on="1"/>
        <pt x="406" y="314" on="0"/>
        <pt x="408" y="323" on="0"/>
        <pt x="408" y="326" on="1"/>
        <pt x="408" y="330" on="0"/>
        <pt x="400" y="358" on="0"/>
        <pt x="380" y="389" on="0"/>
        <pt x="345" y="413" on="0"/>
        <pt x="319" y="413" on="1"/>
        <pt x="309" y="413" on="0"/>
        <pt x="280" y="406" on="0"/>
        <pt x="247" y="385" on="0"/>
        <pt x="211" y="348" on="0"/>
        <pt x="194" y="318" on="1"/>
        <pt x="185" y="303" on="0"/>
        <pt x="167" y="251" on="0"/>
        <pt x="152" y="192" on="0"/>
        <pt x="142" y="135" on="0"/>
        <pt x="142" y="115" on="1"/>
        <pt x="142" y="62" on="0"/>
        <pt x="187" y="18" on="0"/>
        <pt x="215" y="18" on="1"/>
        <pt x="234" y="18" on="0"/>
        <pt x="279" y="37" on="0"/>
        <pt x="321" y="68" on="0"/>
        <pt x="353" y="106" on="0"/>
        <pt x="358" y="125" on="1"/>
      </contour>
    </TTGlyph>
    <TTGlyph name="alpha" xMin="62" yMin="-10" xMax="676" yMax="441">
      <contour>
        <pt x="547" y="141" on="1"/>
        <pt x="549" y="95" on="0"/>
        <pt x="557" y="45" on="0"/>
        <pt x="567" y="22" on="0"/>
        <pt x="578" y="18" on="0"/>
        <pt x="583" y="18" on="1"/>
        <pt x="588" y="18" on="0"/>
        <pt x="603" y="21" on="0"/>
        <pt x="619" y="30" on="0"/>
        <pt x="635" y="48" on="0"/>
        <pt x="640" y="62" on="1"/>
        <pt x="642" y="67" on="0"/>
        <pt x="647" y="72" on="0"/>
        <pt x="657" y="72" on="1"/>
        <pt x="661" y="72" on="0"/>
        <pt x="674" y="69" on="0"/>
        <pt x="674" y="60" on="1"/>
        <pt x="674" y="52" on="0"/>
        <pt x="661" y="28" on="0"/>
        <pt x="637" y="6" on="0"/>
        <pt x="602" y="-10" on="0"/>
        <pt x="580" y="-10" on="1"/>
        <pt x="569" y="-10" on="0"/>
        <pt x="540" y="-4" on="0"/>
        <pt x="511" y="14" on="0"/>
        <pt x="485" y="48" on="0"/>
        <pt x="476" y="75" on="1"/>
        <pt x="455" y="59" on="0"/>
        <pt x="403" y="28" on="0"/>
        <pt x="345" y="4" on="0"/>
        <pt x="280" y="-10" on="0"/>
        <pt x="245" y="-10" on="1"/>
        <pt x="202" y="-10" on="0"/>
        <pt x="133" y="19" on="0"/>
        <pt x="87" y="67" on="0"/>
        <pt x="62" y="130" on="0"/>
        <pt x="62" y="164" on="1"/>
        <pt x="62" y="217" on="0"/>
        <pt x="111" y="316" on="0"/>
        <pt x="191" y="394" on="0"/>
        <pt x="295" y="441" on="0"/>
        <pt x="350" y="441" on="1"/>
        <pt x="388" y="441" on="0"/>
        <pt x="452" y="418" on="0"/>
        <pt x="502" y="375" on="0"/>
        <pt x="534" y="315" on="0"/>
        <pt x="540" y="278" on="1"/>
        <pt x="541" y="275" on="0"/>
        <pt x="542" y="250" on="0"/>
        <pt x="544" y="220" on="0"/>
        <pt x="545" y="193" on="0"/>
        <pt x="545" y="187" on="1"/>
        <pt x="577" y="228" on="0"/>
        <pt x="624" y="318" on="0"/>
        <pt x="638" y="368" on="1"/>
        <pt x="643" y="385" on="0"/>
        <pt x="648" y="393" on="0"/>
        <pt x="659" y="393" on="1"/>
        <pt x="663" y="393" on="0"/>
        <pt x="676" y="390" on="0"/>
        <pt x="676" y="380" on="1"/>
        <pt x="676" y="376" on="0"/>
        <pt x="662" y="327" on="0"/>
        <pt x="630" y="257" on="0"/>
        <pt x="582" y="177" on="0"/>
      </contour>
      <contour>
        <pt x="469" y="107" on="1"/>
        <pt x="467" y="127" on="0"/>
        <pt x="466" y="172" on="0"/>
        <pt x="464" y="217" on="0"/>
        <pt x="462" y="258" on="0"/>
        <pt x="460" y="274" on="1"/>
        <pt x="457" y="297" on="0"/>
        <pt x="444" y="347" on="0"/>
        <pt x="419" y="387" on="0"/>
        <pt x="379" y="413" on="0"/>
        <pt x="349" y="413" on="1"/>
        <pt x="336" y="413" on="0"/>
        <pt x="302" y="406" on="0"/>
        <pt x="266" y="388" on="0"/>
        <pt x="228" y="359" on="0"/>
        <pt x="211" y="336" on="1"/>
        <pt x="192" y="310" on="0"/>
        <pt x="166" y="247" on="0"/>
        <pt x="151" y="188" on="0"/>
        <pt x="145" y="140" on="0"/>
        <pt x="145" y="129" on="1"/>
        <pt x="145" y="78" on="0"/>
        <pt x="198" y="18" on="0"/>
        <pt x="248" y="18" on="1"/>
        <pt x="262" y="18" on="0"/>
        <pt x="307" y="23" on="0"/>
        <pt x="365" y="42" on="0"/>
        <pt x="432" y="77" on="0"/>
      </contour>
    </TTGlyph>
    <TTGlyph name="b" xMin="66" yMin="-10" xMax="471" yMax="694">
      <contour>
        <pt x="195" y="386" on="1"/>
        <pt x="218" y="406" on="0"/>
        <pt x="282" y="441" on="0"/>
        <pt x="321" y="441" on="1"/>
        <pt x="347" y="441" on="0"/>
        <pt x="400" y="422" on="0"/>
        <pt x="444" y="381" on="0"/>
        <pt x="471" y="318" on="0"/>
        <pt x="471" y="274" on="1"/>
        <pt x="471" y="219" on="0"/>
        <pt x="426" y="116" on="0"/>
        <pt x="352" y="37" on="0"/>
        <pt x="260" y="-10" on="0"/>
        <pt x="213" y="-10" on="1"/>
        <pt x="182" y="-10" on="0"/>
        <pt x="128" y="13" on="0"/>
        <pt x="89" y="56" on="0"/>
        <pt x="66" y="117" on="0"/>
        <pt x="66" y="155" on="1"/>
        <pt x="66" y="164" on="0"/>
        <pt x="67" y="186" on="0"/>
        <pt x="71" y="204" on="1"/>
        <pt x="72" y="207" on="0"/>
        <pt x="80" y="244" on="0"/>
        <pt x="94" y="298" on="0"/>
        <pt x="109" y="360" on="0"/>
        <pt x="124" y="417" on="0"/>
        <pt x="135" y="462" on="0"/>
        <pt x="137" y="470" on="1"/>
        <pt x="160" y="562" on="1"/>
        <pt x="162" y="571" on="0"/>
        <pt x="168" y="593" on="0"/>
        <pt x="173" y="613" on="0"/>
        <pt x="176" y="629" on="0"/>
        <pt x="176" y="632" on="1"/>
        <pt x="176" y="635" on="0"/>
        <pt x="175" y="640" on="0"/>
        <pt x="166" y="645" on="0"/>
        <pt x="146" y="647" on="0"/>
        <pt x="128" y="647" on="1"/>
        <pt x="119" y="647" on="0"/>
        <pt x="102" y="650" on="0"/>
        <pt x="102" y="661" on="1"/>
        <pt x="102" y="677" on="0"/>
        <pt x="118" y="683" on="0"/>
        <pt x="124" y="684" on="1"/>
        <pt x="133" y="685" on="0"/>
        <pt x="170" y="688" on="0"/>
        <pt x="210" y="691" on="0"/>
        <pt x="245" y="694" on="0"/>
        <pt x="252" y="694" on="1"/>
        <pt x="261" y="694" on="0"/>
        <pt x="268" y="684" on="0"/>
        <pt x="268" y="680" on="1"/>
        <pt x="268" y="679" on="0"/>
        <pt x="265" y="666" on="0"/>
        <pt x="264" y="664" on="1"/>
      </contour>
      <contour>
        <pt x="214" y="18" on="1"/>
        <pt x="233" y="18" on="0"/>
        <pt x="270" y="35" on="0"/>
        <pt x="303" y="62" on="0"/>
        <pt x="330" y="97" on="0"/>
        <pt x="339" y="115" on="1"/>
        <pt x="350" y="137" on="0"/>
        <pt x="369" y="193" on="0"/>
        <pt x="383" y="250" on="0"/>
        <pt x="391" y="301" on="0"/>
        <pt x="391" y="316" on="1"/>
        <pt x="391" y="367" on="0"/>
        <pt x="347" y="413" on="0"/>
        <pt x="318" y="413" on="1"/>
        <pt x="297" y="413" on="0"/>
        <pt x="252" y="394" on="0"/>
        <pt x="211" y="363" on="0"/>
        <pt x="180" y="324" on="0"/>
        <pt x="174" y="304" on="1"/>
        <pt x="164" y="262" on="0"/>
        <pt x="149" y="204" on="0"/>
        <pt x="141" y="163" on="0"/>
        <pt x="137" y="134" on="0"/>
        <pt x="137" y="120" on="1"/>
        <pt x="137" y="75" on="0"/>
        <pt x="177" y="18" on="0"/>
      </contour>
    </TTGlyph>
    <TTGlyph name="beta" xMin="47" yMin="-194" xMax="633" yMax="705">
      <contour>
        <pt x="633" y="566" on="1"/>
        <pt x="633" y="536" on="0"/>
        <pt x="611" y="484" on="0"/>
        <pt x="578" y="442" on="0"/>
        <pt x="537" y="409" on="0"/>
        <pt x="519" y="397" on="1"/>
        <pt x="557" y="372" on="0"/>
        <pt x="597" y="290" on="0"/>
        <pt x="597" y="245" on="1"/>
        <pt x="597" y="188" on="0"/>
        <pt x="543" y="94" on="0"/>
        <pt x="458" y="27" on="0"/>
        <pt x="352" y="-9" on="0"/>
        <pt x="299" y="-9" on="1"/>
        <pt x="238" y="-9" on="0"/>
        <pt x="165" y="45" on="0"/>
        <pt x="149" y="80" on="1"/>
        <pt x="82" y="-187" on="1"/>
        <pt x="80" y="-192" on="0"/>
        <pt x="70" y="-194" on="0"/>
        <pt x="63" y="-194" on="1"/>
        <pt x="58" y="-194" on="0"/>
        <pt x="47" y="-187" on="0"/>
        <pt x="49" y="-182" on="1"/>
        <pt x="206" y="448" on="1"/>
        <pt x="215" y="486" on="0"/>
        <pt x="261" y="576" on="0"/>
        <pt x="330" y="653" on="0"/>
        <pt x="418" y="705" on="0"/>
        <pt x="469" y="705" on="1"/>
        <pt x="502" y="705" on="0"/>
        <pt x="562" y="686" on="0"/>
        <pt x="607" y="651" on="0"/>
        <pt x="633" y="599" on="0"/>
      </contour>
      <contour>
        <pt x="435" y="398" on="1"/>
        <pt x="424" y="401" on="0"/>
        <pt x="395" y="403" on="0"/>
        <pt x="384" y="403" on="1"/>
        <pt x="377" y="403" on="0"/>
        <pt x="345" y="401" on="0"/>
        <pt x="337" y="396" on="1"/>
        <pt x="342" y="393" on="0"/>
        <pt x="372" y="391" on="0"/>
        <pt x="384" y="391" on="1"/>
        <pt x="406" y="391" on="0"/>
        <pt x="424" y="396" on="0"/>
      </contour>
      <contour>
        <pt x="567" y="584" on="1"/>
        <pt x="567" y="630" on="0"/>
        <pt x="512" y="677" on="0"/>
        <pt x="467" y="677" on="1"/>
        <pt x="424" y="677" on="0"/>
        <pt x="348" y="630" on="0"/>
        <pt x="289" y="559" on="0"/>
        <pt x="248" y="476" on="0"/>
        <pt x="239" y="440" on="1"/>
        <pt x="173" y="174" on="1"/>
        <pt x="170" y="161" on="0"/>
        <pt x="170" y="145" on="1"/>
        <pt x="170" y="85" on="0"/>
        <pt x="244" y="19" on="0"/>
        <pt x="302" y="19" on="1"/>
        <pt x="348" y="19" on="0"/>
        <pt x="428" y="57" on="0"/>
        <pt x="488" y="125" on="0"/>
        <pt x="523" y="218" on="0"/>
        <pt x="523" y="272" on="1"/>
        <pt x="523" y="305" on="0"/>
        <pt x="500" y="362" on="0"/>
        <pt x="477" y="378" on="1"/>
        <pt x="454" y="371" on="0"/>
        <pt x="408" y="364" on="0"/>
        <pt x="382" y="364" on="1"/>
        <pt x="344" y="364" on="0"/>
        <pt x="300" y="374" on="0"/>
        <pt x="300" y="393" on="1"/>
        <pt x="300" y="407" on="0"/>
        <pt x="317" y="422" on="0"/>
        <pt x="342" y="429" on="0"/>
        <pt x="372" y="431" on="0"/>
        <pt x="385" y="431" on="1"/>
        <pt x="427" y="431" on="0"/>
        <pt x="465" y="423" on="0"/>
        <pt x="479" y="418" on="1"/>
        <pt x="502" y="431" on="0"/>
        <pt x="536" y="471" on="0"/>
        <pt x="557" y="517" on="0"/>
        <pt x="567" y="564" on="0"/>
      </contour>
    </TTGlyph>
    <TTGlyph name="c" xMin="62" yMin="-10" xMax="495" yMax="441">
      <contour>
        <pt x="438" y="383" on="1"/>
        <pt x="429" y="394" on="0"/>
        <pt x="403" y="406" on="0"/>
        <pt x="378" y="412" on="0"/>
        <pt x="356" y="413" on="0"/>
        <pt x="351" y="413" on="1"/>
        <pt x="313" y="413" on="0"/>
        <pt x="240" y="373" on="0"/>
        <pt x="211" y="336" on="1"/>
        <pt x="192" y="310" on="0"/>
        <pt x="166" y="247" on="0"/>
        <pt x="151" y="188" on="0"/>
        <pt x="145" y="140" on="0"/>
        <pt x="145" y="129" on="1"/>
        <pt x="145" y="82" on="0"/>
        <pt x="195" y="18" on="0"/>
        <pt x="249" y="18" on="1"/>
        <pt x="256" y="18" on="0"/>
        <pt x="302" y="21" on="0"/>
        <pt x="364" y="38" on="0"/>
        <pt x="433" y="76" on="0"/>
        <pt x="462" y="110" on="1"/>
        <pt x="468" y="116" on="0"/>
        <pt x="473" y="120" on="0"/>
        <pt x="478" y="120" on="1"/>
        <pt x="484" y="120" on="0"/>
        <pt x="495" y="108" on="0"/>
        <pt x="495" y="103" on="1"/>
        <pt x="495" y="98" on="0"/>
        <pt x="465" y="61" on="0"/>
        <pt x="404" y="21" on="0"/>
        <pt x="310" y="-10" on="0"/>
        <pt x="247" y="-10" on="1"/>
        <pt x="200" y="-10" on="0"/>
        <pt x="131" y="20" on="0"/>
        <pt x="85" y="69" on="0"/>
        <pt x="62" y="132" on="0"/>
        <pt x="62" y="164" on="1"/>
        <pt x="62" y="216" on="0"/>
        <pt x="110" y="316" on="0"/>
        <pt x="190" y="394" on="0"/>
        <pt x="295" y="441" on="0"/>
        <pt x="351" y="441" on="1"/>
        <pt x="371" y="441" on="0"/>
        <pt x="418" y="433" on="0"/>
        <pt x="457" y="413" on="0"/>
        <pt x="483" y="380" on="0"/>
        <pt x="483" y="354" on="1"/>
        <pt x="483" y="336" on="0"/>
        <pt x="471" y="312" on="0"/>
        <pt x="454" y="297" on="0"/>
        <pt x="434" y="290" on="0"/>
        <pt x="426" y="290" on="1"/>
        <pt x="412" y="290" on="0"/>
        <pt x="387" y="307" on="0"/>
        <pt x="387" y="327" on="1"/>
        <pt x="387" y="344" on="0"/>
        <pt x="411" y="378" on="0"/>
      </contour>
    </TTGlyph>
    <TTGlyph name="chi" xMin="50" yMin="-204" xMax="662" yMax="441">
      <contour>
        <pt x="395" y="134" on="1"/>
        <pt x="401" y="115" on="0"/>
        <pt x="422" y="55" on="0"/>
        <pt x="449" y="-14" on="0"/>
        <pt x="480" y="-84" on="0"/>
        <pt x="513" y="-140" on="0"/>
        <pt x="544" y="-176" on="0"/>
        <pt x="558" y="-176" on="1"/>
        <pt x="572" y="-176" on="0"/>
        <pt x="605" y="-155" on="0"/>
        <pt x="613" y="-134" on="1"/>
        <pt x="615" y="-129" on="0"/>
        <pt x="621" y="-122" on="0"/>
        <pt x="630" y="-122" on="1"/>
        <pt x="634" y="-122" on="0"/>
        <pt x="647" y="-125" on="0"/>
        <pt x="647" y="-135" on="1"/>
        <pt x="647" y="-141" on="0"/>
        <pt x="636" y="-165" on="0"/>
        <pt x="612" y="-187" on="0"/>
        <pt x="575" y="-204" on="0"/>
        <pt x="550" y="-204" on="1"/>
        <pt x="541" y="-204" on="0"/>
        <pt x="507" y="-202" on="0"/>
        <pt x="468" y="-190" on="0"/>
        <pt x="430" y="-165" on="0"/>
        <pt x="418" y="-143" on="1"/>
        <pt x="404" y="-118" on="0"/>
        <pt x="377" y="-60" on="0"/>
        <pt x="355" y="-2" on="0"/>
        <pt x="336" y="50" on="0"/>
        <pt x="330" y="68" on="1"/>
        <pt x="325" y="62" on="0"/>
        <pt x="306" y="43" on="0"/>
        <pt x="286" y="22" on="0"/>
        <pt x="267" y="4" on="0"/>
        <pt x="261" y="-2" on="1"/>
        <pt x="177" y="-88" on="1"/>
        <pt x="169" y="-96" on="0"/>
        <pt x="144" y="-122" on="0"/>
        <pt x="118" y="-150" on="0"/>
        <pt x="93" y="-176" on="0"/>
        <pt x="85" y="-183" on="1"/>
        <pt x="78" y="-189" on="0"/>
        <pt x="71" y="-194" on="0"/>
        <pt x="66" y="-194" on="1"/>
        <pt x="60" y="-194" on="0"/>
        <pt x="50" y="-184" on="0"/>
        <pt x="50" y="-178" on="1"/>
        <pt x="50" y="-173" on="0"/>
        <pt x="55" y="-168" on="0"/>
        <pt x="60" y="-161" on="1"/>
        <pt x="318" y="103" on="1"/>
        <pt x="301" y="151" on="0"/>
        <pt x="280" y="210" on="0"/>
        <pt x="265" y="249" on="0"/>
        <pt x="251" y="278" on="0"/>
        <pt x="242" y="298" on="1"/>
        <pt x="237" y="309" on="0"/>
        <pt x="217" y="348" on="0"/>
        <pt x="193" y="386" on="0"/>
        <pt x="167" y="413" on="0"/>
        <pt x="155" y="413" on="1"/>
        <pt x="144" y="413" on="0"/>
        <pt x="108" y="395" on="0"/>
        <pt x="99" y="371" on="1"/>
        <pt x="97" y="366" on="0"/>
        <pt x="92" y="359" on="0"/>
        <pt x="82" y="359" on="1"/>
        <pt x="79" y="359" on="0"/>
        <pt x="65" y="362" on="0"/>
        <pt x="65" y="372" on="1"/>
        <pt x="65" y="377" on="0"/>
        <pt x="76" y="400" on="0"/>
        <pt x="99" y="423" on="0"/>
        <pt x="136" y="441" on="0"/>
        <pt x="163" y="441" on="1"/>
        <pt x="216" y="441" on="0"/>
        <pt x="281" y="406" on="0"/>
        <pt x="299" y="372" on="1"/>
        <pt x="311" y="350" on="0"/>
        <pt x="328" y="314" on="0"/>
        <pt x="346" y="271" on="0"/>
        <pt x="367" y="213" on="0"/>
        <pt x="383" y="169" on="1"/>
        <pt x="625" y="417" on="1"/>
        <pt x="633" y="425" on="0"/>
        <pt x="640" y="431" on="0"/>
        <pt x="646" y="431" on="1"/>
        <pt x="662" y="431" on="0"/>
        <pt x="662" y="415" on="1"/>
        <pt x="662" y="410" on="0"/>
        <pt x="656" y="402" on="0"/>
        <pt x="648" y="394" on="1"/>
      </contour>
    </TTGlyph>
    <TTGlyph name="comma" xMin="112" yMin="-193" xMax="239" yMax="115">
      <contour>
        <pt x="211" y="16" on="1"/>
        <pt x="210" y="16" on="0"/>
        <pt x="188" y="0" on="0"/>
        <pt x="170" y="0" on="1"/>
        <pt x="144" y="0" on="0"/>
        <pt x="112" y="34" on="0"/>
        <pt x="112" y="58" on="1"/>
        <pt x="112" y="81" on="0"/>
        <pt x="144" y="115" on="0"/>
        <pt x="169" y="115" on="1"/>
        <pt x="204" y="115" on="0"/>
        <pt x="239" y="53" on="0"/>
        <pt x="239" y="6" on="1"/>
        <pt x="239" y="-39" on="0"/>
        <pt x="212" y="-112" on="0"/>
        <pt x="178" y="-164" on="0"/>
        <pt x="145" y="-193" on="0"/>
        <pt x="140" y="-193" on="1"/>
        <pt x="135" y="-193" on="0"/>
        <pt x="126" y="-184" on="0"/>
        <pt x="126" y="-179" on="1"/>
        <pt x="126" y="-174" on="0"/>
        <pt x="133" y="-167" on="1"/>
        <pt x="159" y="-143" on="0"/>
        <pt x="189" y="-95" on="0"/>
        <pt x="206" y="-49" on="0"/>
        <pt x="211" y="-5" on="0"/>
      </contour>
    </TTGlyph>
    <TTGlyph name="d" xMin="61" yMin="-10" xMax="575" yMax="694">
      <contour>
        <pt x="432" y="108" on="1"/>
        <pt x="430" y="98" on="0"/>
        <pt x="427" y="81" on="0"/>
        <pt x="427" y="67" on="1"/>
        <pt x="427" y="47" on="0"/>
        <pt x="440" y="18" on="0"/>
        <pt x="460" y="18" on="1"/>
        <pt x="476" y="18" on="0"/>
        <pt x="499" y="38" on="0"/>
        <pt x="516" y="69" on="0"/>
        <pt x="529" y="107" on="0"/>
        <pt x="533" y="125" on="1"/>
        <pt x="538" y="145" on="0"/>
        <pt x="544" y="156" on="0"/>
        <pt x="555" y="156" on="1"/>
        <pt x="557" y="156" on="0"/>
        <pt x="571" y="153" on="0"/>
        <pt x="571" y="143" on="1"/>
        <pt x="571" y="142" on="0"/>
        <pt x="566" y="121" on="0"/>
        <pt x="557" y="91" on="0"/>
        <pt x="544" y="58" on="0"/>
        <pt x="536" y="43" on="1"/>
        <pt x="522" y="20" on="0"/>
        <pt x="484" y="-10" on="0"/>
        <pt x="457" y="-10" on="1"/>
        <pt x="447" y="-10" on="0"/>
        <pt x="418" y="-5" on="0"/>
        <pt x="388" y="10" on="0"/>
        <pt x="361" y="38" on="0"/>
        <pt x="354" y="60" on="1"/>
        <pt x="324" y="31" on="0"/>
        <pt x="253" y="-10" on="0"/>
        <pt x="212" y="-10" on="1"/>
        <pt x="180" y="-10" on="0"/>
        <pt x="125" y="15" on="0"/>
        <pt x="84" y="59" on="0"/>
        <pt x="61" y="120" on="0"/>
        <pt x="61" y="156" on="1"/>
        <pt x="61" y="210" on="0"/>
        <pt x="106" y="313" on="0"/>
        <pt x="178" y="392" on="0"/>
        <pt x="271" y="441" on="0"/>
        <pt x="319" y="441" on="1"/>
        <pt x="355" y="441" on="0"/>
        <pt x="406" y="407" on="0"/>
        <pt x="422" y="382" on="1"/>
        <pt x="479" y="610" on="1"/>
        <pt x="481" y="617" on="0"/>
        <pt x="483" y="627" on="0"/>
        <pt x="483" y="632" on="1"/>
        <pt x="483" y="635" on="0"/>
        <pt x="482" y="640" on="0"/>
        <pt x="473" y="645" on="0"/>
        <pt x="453" y="647" on="0"/>
        <pt x="435" y="647" on="1"/>
        <pt x="426" y="647" on="0"/>
        <pt x="409" y="650" on="0"/>
        <pt x="409" y="661" on="1"/>
        <pt x="409" y="677" on="0"/>
        <pt x="425" y="683" on="0"/>
        <pt x="431" y="684" on="1"/>
        <pt x="440" y="685" on="0"/>
        <pt x="477" y="688" on="0"/>
        <pt x="517" y="691" on="0"/>
        <pt x="552" y="694" on="0"/>
        <pt x="559" y="694" on="1"/>
        <pt x="568" y="694" on="0"/>
        <pt x="575" y="684" on="0"/>
        <pt x="575" y="680" on="1"/>
        <pt x="575" y="679" on="0"/>
        <pt x="572" y="666" on="0"/>
        <pt x="571" y="664" on="1"/>
      </contour>
      <contour>
        <pt x="405" y="312" on="1"/>
        <pt x="406" y="314" on="0"/>
        <pt x="408" y="323" on="0"/>
        <pt x="408" y="326" on="1"/>
        <pt x="408" y="330" on="0"/>
        <pt x="400" y="358" on="0"/>
        <pt x="380" y="389" on="0"/>
        <pt x="345" y="413" on="0"/>
        <pt x="319" y="413" on="1"/>
        <pt x="309" y="413" on="0"/>
        <pt x="280" y="406" on="0"/>
        <pt x="247" y="385" on="0"/>
        <pt x="211" y="348" on="0"/>
        <pt x="194" y="318" on="1"/>
        <pt x="185" y="303" on="0"/>
        <pt x="167" y="251" on="0"/>
        <pt x="152" y="192" on="0"/>
        <pt x="142" y="135" on="0"/>
        <pt x="142" y="115" on="1"/>
        <pt x="142" y="62" on="0"/>
        <pt x="187" y="18" on="0"/>
        <pt x="215" y="18" on="1"/>
        <pt x="234" y="18" on="0"/>
        <pt x="279" y="37" on="0"/>
        <pt x="321" y="68" on="0"/>
        <pt x="353" y="106" on="0"/>
        <pt x="358" y="125" on="1"/>
      </contour>
    </TTGlyph>
    <TTGlyph name="delta" xMin="61" yMin="-12" xMax="502" yMax="714">
      <contour>
        <pt x="295" y="435" on="1"/>
        <pt x="269" y="480" on="0"/>
        <pt x="228" y="569" on="0"/>
        <pt x="228" y="609" on="1"/>
        <pt x="228" y="655" on="0"/>
        <pt x="288" y="714" on="0"/>
        <pt x="345" y="714" on="1"/>
        <pt x="357" y="714" on="0"/>
        <pt x="385" y="711" on="0"/>
        <pt x="410" y="707" on="0"/>
        <pt x="431" y="703" on="0"/>
        <pt x="435" y="702" on="1"/>
        <pt x="455" y="698" on="0"/>
        <pt x="481" y="692" on="0"/>
        <pt x="496" y="685" on="0"/>
        <pt x="502" y="673" on="0"/>
        <pt x="502" y="664" on="1"/>
        <pt x="502" y="649" on="0"/>
        <pt x="478" y="622" on="0"/>
        <pt x="460" y="622" on="1"/>
        <pt x="454" y="622" on="0"/>
        <pt x="437" y="629" on="0"/>
        <pt x="419" y="638" on="0"/>
        <pt x="403" y="646" on="0"/>
        <pt x="400" y="648" on="1"/>
        <pt x="383" y="657" on="0"/>
        <pt x="342" y="676" on="0"/>
        <pt x="316" y="676" on="1"/>
        <pt x="301" y="676" on="0"/>
        <pt x="280" y="667" on="0"/>
        <pt x="267" y="653" on="0"/>
        <pt x="261" y="639" on="0"/>
        <pt x="261" y="634" on="1"/>
        <pt x="261" y="617" on="0"/>
        <pt x="286" y="571" on="0"/>
        <pt x="321" y="524" on="0"/>
        <pt x="359" y="480" on="0"/>
        <pt x="373" y="464" on="1"/>
        <pt x="385" y="451" on="0"/>
        <pt x="413" y="417" on="0"/>
        <pt x="439" y="371" on="0"/>
        <pt x="456" y="312" on="0"/>
        <pt x="456" y="276" on="1"/>
        <pt x="456" y="221" on="0"/>
        <pt x="423" y="118" on="0"/>
        <pt x="365" y="37" on="0"/>
        <pt x="286" y="-12" on="0"/>
        <pt x="241" y="-12" on="1"/>
        <pt x="204" y="-12" on="0"/>
        <pt x="138" y="13" on="0"/>
        <pt x="89" y="59" on="0"/>
        <pt x="61" y="123" on="0"/>
        <pt x="61" y="163" on="1"/>
        <pt x="61" y="202" on="0"/>
        <pt x="92" y="287" on="0"/>
        <pt x="152" y="362" on="0"/>
        <pt x="239" y="421" on="0"/>
      </contour>
      <contour>
        <pt x="312" y="408" on="1"/>
        <pt x="260" y="395" on="0"/>
        <pt x="191" y="325" on="0"/>
        <pt x="150" y="242" on="0"/>
        <pt x="134" y="160" on="0"/>
        <pt x="134" y="135" on="1"/>
        <pt x="134" y="104" on="0"/>
        <pt x="153" y="59" on="0"/>
        <pt x="183" y="30" on="0"/>
        <pt x="222" y="16" on="0"/>
        <pt x="243" y="16" on="1"/>
        <pt x="275" y="16" on="0"/>
        <pt x="324" y="61" on="0"/>
        <pt x="358" y="127" on="0"/>
        <pt x="376" y="202" on="0"/>
        <pt x="376" y="233" on="1"/>
        <pt x="376" y="287" on="0"/>
        <pt x="333" y="374" on="0"/>
      </contour>
    </TTGlyph>
    <TTGlyph name="dotlessi" xMin="47" yMin="-10" xMax="350" yMax="441">
      <contour>
        <pt x="183" y="278" on="1"/>
        <pt x="192" y="301" on="0"/>
        <pt x="204" y="332" on="0"/>
        <pt x="211" y="353" on="0"/>
        <pt x="214" y="369" on="0"/>
        <pt x="214" y="378" on="1"/>
        <pt x="214" y="398" on="0"/>
        <pt x="201" y="413" on="0"/>
        <pt x="189" y="413" on="1"/>
        <pt x="161" y="413" on="0"/>
        <pt x="102" y="356" on="0"/>
        <pt x="82" y="291" on="1"/>
        <pt x="80" y="283" on="0"/>
        <pt x="75" y="275" on="0"/>
        <pt x="64" y="275" on="1"/>
        <pt x="62" y="275" on="0"/>
        <pt x="47" y="278" on="0"/>
        <pt x="47" y="288" on="1"/>
        <pt x="47" y="294" on="0"/>
        <pt x="64" y="344" on="0"/>
        <pt x="100" y="398" on="0"/>
        <pt x="155" y="441" on="0"/>
        <pt x="192" y="441" on="1"/>
        <pt x="233" y="441" on="0"/>
        <pt x="287" y="391" on="0"/>
        <pt x="287" y="356" on="1"/>
        <pt x="287" y="348" on="0"/>
        <pt x="283" y="332" on="0"/>
        <pt x="281" y="324" on="1"/>
        <pt x="280" y="320" on="0"/>
        <pt x="266" y="285" on="0"/>
        <pt x="250" y="245" on="0"/>
        <pt x="235" y="206" on="0"/>
        <pt x="232" y="197" on="1"/>
        <pt x="224" y="177" on="0"/>
        <pt x="208" y="137" on="0"/>
        <pt x="200" y="117" on="1"/>
        <pt x="193" y="100" on="0"/>
        <pt x="184" y="70" on="0"/>
        <pt x="184" y="53" on="1"/>
        <pt x="184" y="36" on="0"/>
        <pt x="194" y="18" on="0"/>
        <pt x="209" y="18" on="1"/>
        <pt x="238" y="18" on="0"/>
        <pt x="298" y="79" on="0"/>
        <pt x="315" y="139" on="1"/>
        <pt x="318" y="147" on="0"/>
        <pt x="323" y="156" on="0"/>
        <pt x="334" y="156" on="1"/>
        <pt x="336" y="156" on="0"/>
        <pt x="350" y="153" on="0"/>
        <pt x="350" y="143" on="1"/>
        <pt x="350" y="137" on="0"/>
        <pt x="333" y="88" on="0"/>
        <pt x="298" y="34" on="0"/>
        <pt x="244" y="-10" on="0"/>
        <pt x="206" y="-10" on="1"/>
        <pt x="165" y="-10" on="0"/>
        <pt x="111" y="40" on="0"/>
        <pt x="111" y="75" on="1"/>
        <pt x="111" y="88" on="0"/>
        <pt x="117" y="107" on="0"/>
        <pt x="120" y="117" on="1"/>
      </contour>
    </TTGlyph>
    <TTGlyph name="e" xMin="67" yMin="-10" xMax="495" yMax="441">
      <contour>
        <pt x="161" y="228" on="1"/>
        <pt x="152" y="186" on="0"/>
        <pt x="149" y="150" on="0"/>
        <pt x="149" y="139" on="1"/>
        <pt x="149" y="78" on="0"/>
        <pt x="204" y="18" on="0"/>
        <pt x="249" y="18" on="1"/>
        <pt x="256" y="18" on="0"/>
        <pt x="302" y="21" on="0"/>
        <pt x="364" y="38" on="0"/>
        <pt x="433" y="76" on="0"/>
        <pt x="462" y="110" on="1"/>
        <pt x="468" y="116" on="0"/>
        <pt x="473" y="120" on="0"/>
        <pt x="478" y="120" on="1"/>
        <pt x="484" y="120" on="0"/>
        <pt x="495" y="108" on="0"/>
        <pt x="495" y="103" on="1"/>
        <pt x="495" y="98" on="0"/>
        <pt x="465" y="61" on="0"/>
        <pt x="404" y="21" on="0"/>
        <pt x="310" y="-10" on="0"/>
        <pt x="247" y="-10" on="1"/>
        <pt x="203" y="-10" on="0"/>
        <pt x="136" y="20" on="0"/>
        <pt x="90" y="72" on="0"/>
        <pt x="67" y="140" on="0"/>
        <pt x="67" y="178" on="1"/>
        <pt x="67" y="242" on="0"/>
        <pt x="121" y="340" on="0"/>
        <pt x="205" y="407" on="0"/>
        <pt x="304" y="441" on="0"/>
        <pt x="349" y="441" on="1"/>
        <pt x="401" y="441" on="0"/>
        <pt x="473" y="395" on="0"/>
        <pt x="473" y="353" on="1"/>
        <pt x="473" y="310" on="0"/>
        <pt x="419" y="261" on="0"/>
        <pt x="341" y="235" on="0"/>
        <pt x="255" y="228" on="0"/>
        <pt x="224" y="228" on="1"/>
      </contour>
      <contour>
        <pt x="218" y="256" on="1"/>
        <pt x="234" y="256" on="0"/>
        <pt x="304" y="259" on="0"/>
        <pt x="376" y="277" on="0"/>
        <pt x="430" y="317" on="0"/>
        <pt x="430" y="353" on="1"/>
        <pt x="430" y="382" on="0"/>
        <pt x="382" y="413" on="0"/>
        <pt x="349" y="413" on="1"/>
        <pt x="339" y="413" on="0"/>
        <pt x="291" y="405" on="0"/>
        <pt x="237" y="373" on="0"/>
        <pt x="184" y="310" on="0"/>
        <pt x="169" y="256" on="1"/>
      </contour>
    </TTGlyph>
    <TTGlyph name="eightoldstyle" xMin="62" yMin="-20" xMax="522" yMax="664">
      <contour>
        <pt x="418" y="328" on="1"/>
        <pt x="427" y="323" on="0"/>
        <pt x="462" y="299" on="0"/>
        <pt x="496" y="260" on="0"/>
        <pt x="522" y="205" on="0"/>
        <pt x="522" y="169" on="1"/>
        <pt x="522" y="127" on="0"/>
        <pt x="485" y="58" on="0"/>
        <pt x="421" y="8" on="0"/>
        <pt x="338" y="-20" on="0"/>
        <pt x="291" y="-20" on="1"/>
        <pt x="250" y="-20" on="0"/>
        <pt x="168" y="2" on="0"/>
        <pt x="103" y="46" on="0"/>
        <pt x="62" y="111" on="0"/>
        <pt x="62" y="153" on="1"/>
        <pt x="62" y="188" on="0"/>
        <pt x="89" y="245" on="0"/>
        <pt x="133" y="290" on="0"/>
        <pt x="190" y="324" on="0"/>
        <pt x="219" y="336" on="1"/>
        <pt x="193" y="352" on="0"/>
        <pt x="164" y="370" on="0"/>
        <pt x="148" y="382" on="0"/>
        <pt x="140" y="390" on="0"/>
        <pt x="134" y="396" on="1"/>
        <pt x="120" y="411" on="0"/>
        <pt x="93" y="463" on="0"/>
        <pt x="93" y="498" on="1"/>
        <pt x="93" y="534" on="0"/>
        <pt x="125" y="594" on="0"/>
        <pt x="179" y="639" on="0"/>
        <pt x="252" y="664" on="0"/>
        <pt x="293" y="664" on="1"/>
        <pt x="329" y="664" on="0"/>
        <pt x="399" y="645" on="0"/>
        <pt x="456" y="608" on="0"/>
        <pt x="491" y="552" on="0"/>
        <pt x="491" y="515" on="1"/>
        <pt x="491" y="461" on="0"/>
        <pt x="417" y="387" on="0"/>
        <pt x="362" y="361" on="1"/>
      </contour>
      <contour>
        <pt x="331" y="379" on="1"/>
        <pt x="342" y="385" on="0"/>
        <pt x="378" y="407" on="0"/>
        <pt x="413" y="440" on="0"/>
        <pt x="439" y="486" on="0"/>
        <pt x="439" y="515" on="1"/>
        <pt x="439" y="542" on="0"/>
        <pt x="415" y="586" on="0"/>
        <pt x="374" y="617" on="0"/>
        <pt x="321" y="635" on="0"/>
        <pt x="291" y="635" on="1"/>
        <pt x="265" y="635" on="0"/>
        <pt x="213" y="622" on="0"/>
        <pt x="171" y="597" on="0"/>
        <pt x="145" y="559" on="0"/>
        <pt x="145" y="534" on="1"/>
        <pt x="145" y="517" on="0"/>
        <pt x="158" y="490" on="0"/>
        <pt x="179" y="469" on="0"/>
        <pt x="204" y="453" on="0"/>
        <pt x="216" y="446" on="1"/>
      </contour>
      <contour>
        <pt x="251" y="318" on="1"/>
        <pt x="232" y="310" on="0"/>
        <pt x="187" y="281" on="0"/>
        <pt x="148" y="240" on="0"/>
        <pt x="122" y="186" on="0"/>
        <pt x="122" y="153" on="1"/>
        <pt x="122" y="122" on="0"/>
        <pt x="150" y="70" on="0"/>
        <pt x="196" y="33" on="0"/>
        <pt x="259" y="12" on="0"/>
        <pt x="293" y="12" on="1"/>
        <pt x="325" y="12" on="0"/>
        <pt x="386" y="29" on="0"/>
        <pt x="433" y="60" on="0"/>
        <pt x="462" y="106" on="0"/>
        <pt x="462" y="135" on="1"/>
        <pt x="462" y="157" on="0"/>
        <pt x="445" y="191" on="0"/>
        <pt x="423" y="216" on="0"/>
        <pt x="399" y="231" on="0"/>
        <pt x="393" y="235" on="1"/>
      </contour>
    </TTGlyph>
    <TTGlyph name="epsilon" xMin="47" yMin="-20" xMax="483" yMax="451">
      <contour>
        <pt x="166" y="223" on="1"/>
        <pt x="141" y="210" on="0"/>
        <pt x="108" y="180" on="0"/>
        <pt x="88" y="150" on="0"/>
        <pt x="81" y="125" on="0"/>
        <pt x="81" y="116" on="1"/>
        <pt x="81" y="88" on="0"/>
        <pt x="118" y="56" on="0"/>
        <pt x="170" y="39" on="0"/>
        <pt x="226" y="35" on="0"/>
        <pt x="246" y="35" on="1"/>
        <pt x="286" y="35" on="0"/>
        <pt x="340" y="42" on="0"/>
        <pt x="377" y="55" on="0"/>
        <pt x="401" y="76" on="0"/>
        <pt x="410" y="91" on="1"/>
        <pt x="412" y="94" on="0"/>
        <pt x="417" y="99" on="0"/>
        <pt x="422" y="99" on="1"/>
        <pt x="436" y="99" on="0"/>
        <pt x="436" y="86" on="1"/>
        <pt x="436" y="80" on="0"/>
        <pt x="414" y="45" on="0"/>
        <pt x="366" y="9" on="0"/>
        <pt x="287" y="-20" on="0"/>
        <pt x="230" y="-20" on="1"/>
        <pt x="188" y="-20" on="0"/>
        <pt x="121" y="0" on="0"/>
        <pt x="73" y="35" on="0"/>
        <pt x="47" y="83" on="0"/>
        <pt x="47" y="110" on="1"/>
        <pt x="47" y="134" on="0"/>
        <pt x="64" y="174" on="0"/>
        <pt x="89" y="206" on="0"/>
        <pt x="120" y="231" on="0"/>
        <pt x="134" y="239" on="1"/>
        <pt x="134" y="239" on="0"/>
        <pt x="121" y="249" on="0"/>
        <pt x="107" y="267" on="0"/>
        <pt x="95" y="292" on="0"/>
        <pt x="95" y="307" on="1"/>
        <pt x="95" y="337" on="0"/>
        <pt x="137" y="390" on="0"/>
        <pt x="205" y="429" on="0"/>
        <pt x="292" y="451" on="0"/>
        <pt x="338" y="451" on="1"/>
        <pt x="349" y="451" on="0"/>
        <pt x="399" y="447" on="0"/>
        <pt x="431" y="433" on="1"/>
        <pt x="438" y="430" on="0"/>
        <pt x="456" y="422" on="0"/>
        <pt x="472" y="411" on="0"/>
        <pt x="483" y="399" on="0"/>
        <pt x="483" y="391" on="1"/>
        <pt x="483" y="378" on="0"/>
        <pt x="462" y="359" on="0"/>
        <pt x="451" y="359" on="1"/>
        <pt x="445" y="359" on="0"/>
        <pt x="436" y="365" on="0"/>
        <pt x="431" y="368" on="1"/>
        <pt x="397" y="389" on="0"/>
        <pt x="339" y="396" on="0"/>
        <pt x="327" y="396" on="1"/>
        <pt x="289" y="396" on="0"/>
        <pt x="218" y="384" on="0"/>
        <pt x="162" y="361" on="0"/>
        <pt x="129" y="328" on="0"/>
        <pt x="129" y="308" on="1"/>
        <pt x="129" y="291" on="0"/>
        <pt x="150" y="264" on="0"/>
        <pt x="167" y="256" on="1"/>
        <pt x="204" y="271" on="0"/>
        <pt x="262" y="276" on="0"/>
        <pt x="273" y="276" on="1"/>
        <pt x="305" y="276" on="0"/>
        <pt x="354" y="265" on="0"/>
        <pt x="354" y="245" on="1"/>
        <pt x="354" y="231" on="0"/>
        <pt x="335" y="216" on="0"/>
        <pt x="306" y="209" on="0"/>
        <pt x="275" y="208" on="0"/>
        <pt x="263" y="208" on="1"/>
        <pt x="241" y="208" on="0"/>
        <pt x="195" y="212" on="0"/>
      </contour>
      <contour>
        <pt x="210" y="240" on="1"/>
        <pt x="224" y="237" on="0"/>
        <pt x="252" y="236" on="0"/>
        <pt x="263" y="236" on="1"/>
        <pt x="277" y="236" on="0"/>
        <pt x="293" y="237" on="0"/>
        <pt x="304" y="238" on="0"/>
        <pt x="312" y="241" on="0"/>
        <pt x="318" y="243" on="1"/>
        <pt x="303" y="246" on="0"/>
        <pt x="288" y="248" on="0"/>
        <pt x="271" y="248" on="1"/>
        <pt x="248" y="248" on="0"/>
        <pt x="218" y="242" on="0"/>
      </contour>
    </TTGlyph>
    <TTGlyph name="eta" xMin="47" yMin="-214" xMax="567" yMax="441">
      <contour>
        <pt x="450" y="-166" on="1"/>
        <pt x="449" y="-171" on="0"/>
        <pt x="444" y="-188" on="0"/>
        <pt x="433" y="-203" on="0"/>
        <pt x="416" y="-214" on="0"/>
        <pt x="402" y="-214" on="1"/>
        <pt x="390" y="-214" on="0"/>
        <pt x="368" y="-199" on="0"/>
        <pt x="368" y="-182" on="1"/>
        <pt x="368" y="-181" on="0"/>
        <pt x="369" y="-172" on="0"/>
        <pt x="372" y="-161" on="1"/>
        <pt x="485" y="288" on="1"/>
        <pt x="489" y="302" on="0"/>
        <pt x="492" y="323" on="0"/>
        <pt x="492" y="343" on="1"/>
        <pt x="492" y="352" on="0"/>
        <pt x="489" y="376" on="0"/>
        <pt x="478" y="398" on="0"/>
        <pt x="454" y="413" on="0"/>
        <pt x="433" y="413" on="1"/>
        <pt x="404" y="413" on="0"/>
        <pt x="355" y="394" on="0"/>
        <pt x="316" y="363" on="0"/>
        <pt x="285" y="325" on="0"/>
        <pt x="273" y="307" on="1"/>
        <pt x="266" y="295" on="0"/>
        <pt x="257" y="281" on="0"/>
        <pt x="251" y="266" on="0"/>
        <pt x="246" y="247" on="0"/>
        <pt x="242" y="231" on="1"/>
        <pt x="238" y="214" on="0"/>
        <pt x="230" y="181" on="0"/>
        <pt x="225" y="164" on="1"/>
        <pt x="223" y="155" on="0"/>
        <pt x="217" y="130" on="0"/>
        <pt x="211" y="104" on="0"/>
        <pt x="205" y="81" on="0"/>
        <pt x="203" y="74" on="1"/>
        <pt x="199" y="58" on="0"/>
        <pt x="189" y="19" on="0"/>
        <pt x="185" y="12" on="1"/>
        <pt x="181" y="5" on="0"/>
        <pt x="160" y="-10" on="0"/>
        <pt x="146" y="-10" on="1"/>
        <pt x="134" y="-10" on="0"/>
        <pt x="112" y="5" on="0"/>
        <pt x="112" y="22" on="1"/>
        <pt x="112" y="24" on="0"/>
        <pt x="119" y="53" on="0"/>
        <pt x="122" y="63" on="1"/>
        <pt x="154" y="191" on="1"/>
        <pt x="156" y="199" on="0"/>
        <pt x="161" y="222" on="0"/>
        <pt x="167" y="246" on="0"/>
        <pt x="173" y="271" on="0"/>
        <pt x="176" y="281" on="1"/>
        <pt x="181" y="301" on="0"/>
        <pt x="192" y="350" on="0"/>
        <pt x="192" y="364" on="1"/>
        <pt x="192" y="384" on="0"/>
        <pt x="179" y="413" on="0"/>
        <pt x="159" y="413" on="1"/>
        <pt x="144" y="413" on="0"/>
        <pt x="122" y="396" on="0"/>
        <pt x="105" y="366" on="0"/>
        <pt x="92" y="327" on="0"/>
        <pt x="86" y="305" on="1"/>
        <pt x="81" y="285" on="0"/>
        <pt x="75" y="275" on="0"/>
        <pt x="64" y="275" on="1"/>
        <pt x="62" y="275" on="0"/>
        <pt x="47" y="278" on="0"/>
        <pt x="47" y="288" on="1"/>
        <pt x="47" y="290" on="0"/>
        <pt x="53" y="313" on="0"/>
        <pt x="62" y="343" on="0"/>
        <pt x="76" y="375" on="0"/>
        <pt x="83" y="388" on="1"/>
        <pt x="95" y="408" on="0"/>
        <pt x="133" y="441" on="0"/>
        <pt x="162" y="441" on="1"/>
        <pt x="174" y="441" on="0"/>
        <pt x="208" y="434" on="0"/>
        <pt x="240" y="414" on="0"/>
        <pt x="265" y="379" on="0"/>
        <pt x="268" y="351" on="1"/>
        <pt x="292" y="381" on="0"/>
        <pt x="339" y="416" on="0"/>
        <pt x="383" y="435" on="0"/>
        <pt x="421" y="441" on="0"/>
        <pt x="437" y="441" on="1"/>
        <pt x="493" y="441" on="0"/>
        <pt x="567" y="387" on="0"/>
        <pt x="567" y="327" on="1"/>
        <pt x="567" y="310" on="0"/>
        <pt x="564" y="293" on="0"/>
        <pt x="559" y="272" on="1"/>
      </contour>
    </TTGlyph>
    <TTGlyph name="f" xMin="73" yMin="-204" xMax="604" yMax="704">
      <contour>
        <pt x="351" y="86" on="1"/>
        <pt x="347" y="64" on="0"/>
        <pt x="334" y="3" on="0"/>
        <pt x="315" y="-61" on="0"/>
        <pt x="287" y="-124" on="0"/>
        <pt x="249" y="-173" on="0"/>
        <pt x="200" y="-204" on="0"/>
        <pt x="170" y="-204" on="1"/>
        <pt x="151" y="-204" on="0"/>
        <pt x="116" y="-194" on="0"/>
        <pt x="89" y="-176" on="0"/>
        <pt x="73" y="-150" on="0"/>
        <pt x="73" y="-133" on="1"/>
        <pt x="73" y="-104" on="0"/>
        <pt x="110" y="-72" on="0"/>
        <pt x="130" y="-72" on="1"/>
        <pt x="147" y="-72" on="0"/>
        <pt x="170" y="-92" on="0"/>
        <pt x="170" y="-109" on="1"/>
        <pt x="170" y="-111" on="0"/>
        <pt x="168" y="-125" on="0"/>
        <pt x="159" y="-142" on="0"/>
        <pt x="141" y="-159" on="0"/>
        <pt x="126" y="-164" on="1"/>
        <pt x="140" y="-173" on="0"/>
        <pt x="169" y="-176" on="0"/>
        <pt x="170" y="-176" on="1"/>
        <pt x="188" y="-176" on="0"/>
        <pt x="213" y="-152" on="0"/>
        <pt x="229" y="-119" on="0"/>
        <pt x="238" y="-86" on="0"/>
        <pt x="240" y="-78" on="1"/>
        <pt x="246" y="-51" on="0"/>
        <pt x="264" y="39" on="0"/>
        <pt x="283" y="143" on="0"/>
        <pt x="302" y="250" on="0"/>
        <pt x="318" y="337" on="0"/>
        <pt x="328" y="394" on="0"/>
        <pt x="328" y="395" on="1"/>
        <pt x="254" y="395" on="1"/>
        <pt x="240" y="395" on="0"/>
        <pt x="223" y="398" on="0"/>
        <pt x="223" y="409" on="1"/>
        <pt x="223" y="426" on="0"/>
        <pt x="241" y="431" on="0"/>
        <pt x="256" y="431" on="1"/>
        <pt x="335" y="431" on="1"/>
        <pt x="343" y="475" on="0"/>
        <pt x="355" y="537" on="0"/>
        <pt x="365" y="582" on="0"/>
        <pt x="377" y="615" on="0"/>
        <pt x="384" y="629" on="1"/>
        <pt x="404" y="667" on="0"/>
        <pt x="471" y="704" on="0"/>
        <pt x="504" y="704" on="1"/>
        <pt x="523" y="704" on="0"/>
        <pt x="559" y="695" on="0"/>
        <pt x="587" y="677" on="0"/>
        <pt x="604" y="650" on="0"/>
        <pt x="604" y="633" on="1"/>
        <pt x="604" y="604" on="0"/>
        <pt x="567" y="572" on="0"/>
        <pt x="547" y="572" on="1"/>
        <pt x="530" y="572" on="0"/>
        <pt x="507" y="592" on="0"/>
        <pt x="507" y="609" on="1"/>
        <pt x="507" y="611" on="0"/>
        <pt x="509" y="625" on="0"/>
        <pt x="518" y="642" on="0"/>
        <pt x="536" y="659" on="0"/>
        <pt x="551" y="664" on="1"/>
        <pt x="537" y="673" on="0"/>
        <pt x="505" y="676" on="0"/>
        <pt x="504" y="676" on="1"/>
        <pt x="486" y="676" on="0"/>
        <pt x="457" y="650" on="0"/>
        <pt x="453" y="633" on="1"/>
        <pt x="450" y="622" on="0"/>
        <pt x="444" y="592" on="0"/>
        <pt x="435" y="546" on="0"/>
        <pt x="423" y="479" on="0"/>
        <pt x="414" y="431" on="1"/>
        <pt x="507" y="431" on="1"/>
        <pt x="521" y="431" on="0"/>
        <pt x="538" y="428" on="0"/>
        <pt x="538" y="417" on="1"/>
        <pt x="538" y="400" on="0"/>
        <pt x="520" y="395" on="0"/>
        <pt x="505" y="395" on="1"/>
        <pt x="407" y="395" on="1"/>
      </contour>
    </TTGlyph>
    <TTGlyph name="fiveoldstyle" xMin="71" yMin="-214" xMax="513" yMax="450">
      <contour>
        <pt x="163" y="164" on="1"/>
        <pt x="192" y="190" on="0"/>
        <pt x="266" y="212" on="0"/>
        <pt x="304" y="212" on="1"/>
        <pt x="349" y="212" on="0"/>
        <pt x="426" y="177" on="0"/>
        <pt x="482" y="119" on="0"/>
        <pt x="513" y="43" on="0"/>
        <pt x="513" y="1" on="1"/>
        <pt x="513" y="-44" on="0"/>
        <pt x="474" y="-123" on="0"/>
        <pt x="408" y="-181" on="0"/>
        <pt x="321" y="-214" on="0"/>
        <pt x="273" y="-214" on="1"/>
        <pt x="230" y="-214" on="0"/>
        <pt x="156" y="-185" on="0"/>
        <pt x="102" y="-137" on="0"/>
        <pt x="71" y="-73" on="0"/>
        <pt x="71" y="-38" on="1"/>
        <pt x="71" y="-21" on="0"/>
        <pt x="83" y="-1" on="0"/>
        <pt x="99" y="10" on="0"/>
        <pt x="116" y="14" on="0"/>
        <pt x="120" y="14" on="1"/>
        <pt x="135" y="14" on="0"/>
        <pt x="169" y="-9" on="0"/>
        <pt x="169" y="-36" on="1"/>
        <pt x="169" y="-38" on="0"/>
        <pt x="167" y="-53" on="0"/>
        <pt x="157" y="-70" on="0"/>
        <pt x="135" y="-84" on="0"/>
        <pt x="114" y="-84" on="1"/>
        <pt x="132" y="-129" on="0"/>
        <pt x="219" y="-182" on="0"/>
        <pt x="271" y="-182" on="1"/>
        <pt x="303" y="-182" on="0"/>
        <pt x="362" y="-157" on="0"/>
        <pt x="384" y="-130" on="1"/>
        <pt x="402" y="-107" on="0"/>
        <pt x="420" y="-47" on="0"/>
        <pt x="420" y="4" on="1"/>
        <pt x="420" y="36" on="0"/>
        <pt x="412" y="103" on="0"/>
        <pt x="396" y="129" on="1"/>
        <pt x="381" y="153" on="0"/>
        <pt x="335" y="184" on="0"/>
        <pt x="302" y="184" on="1"/>
        <pt x="288" y="184" on="0"/>
        <pt x="252" y="180" on="0"/>
        <pt x="214" y="166" on="0"/>
        <pt x="176" y="141" on="0"/>
        <pt x="160" y="121" on="1"/>
        <pt x="155" y="115" on="0"/>
        <pt x="150" y="109" on="0"/>
        <pt x="143" y="109" on="1"/>
        <pt x="131" y="109" on="0"/>
        <pt x="127" y="125" on="0"/>
        <pt x="127" y="139" on="1"/>
        <pt x="127" y="423" on="1"/>
        <pt x="127" y="437" on="0"/>
        <pt x="130" y="450" on="0"/>
        <pt x="139" y="450" on="1"/>
        <pt x="141" y="450" on="0"/>
        <pt x="145" y="449" on="0"/>
        <pt x="151" y="447" on="1"/>
        <pt x="193" y="431" on="0"/>
        <pt x="269" y="420" on="0"/>
        <pt x="298" y="420" on="1"/>
        <pt x="328" y="420" on="0"/>
        <pt x="402" y="431" on="0"/>
        <pt x="445" y="446" on="1"/>
        <pt x="453" y="449" on="0"/>
        <pt x="457" y="450" on="0"/>
        <pt x="458" y="450" on="1"/>
        <pt x="460" y="450" on="0"/>
        <pt x="470" y="446" on="0"/>
        <pt x="470" y="437" on="1"/>
        <pt x="470" y="430" on="0"/>
        <pt x="453" y="410" on="0"/>
        <pt x="427" y="389" on="0"/>
        <pt x="398" y="371" on="0"/>
        <pt x="387" y="365" on="1"/>
        <pt x="355" y="348" on="0"/>
        <pt x="291" y="334" on="0"/>
        <pt x="261" y="334" on="1"/>
        <pt x="243" y="334" on="0"/>
        <pt x="209" y="338" on="0"/>
        <pt x="182" y="342" on="0"/>
        <pt x="164" y="347" on="0"/>
        <pt x="163" y="347" on="1"/>
      </contour>
    </TTGlyph>
    <TTGlyph name="fouroldstyle" xMin="47" yMin="-194" xMax="537" yMax="461">
      <contour>
        <pt x="426" y="36" on="1"/>
        <pt x="507" y="36" on="1"/>
        <pt x="523" y="36" on="0"/>
        <pt x="537" y="32" on="0"/>
        <pt x="537" y="18" on="1"/>
        <pt x="537" y="4" on="0"/>
        <pt x="523" y="0" on="0"/>
        <pt x="507" y="0" on="1"/>
        <pt x="426" y="0" on="1"/>
        <pt x="426" y="-113" on="1"/>
        <pt x="426" y="-134" on="0"/>
        <pt x="431" y="-152" on="0"/>
        <pt x="447" y="-155" on="1"/>
        <pt x="448" y="-155" on="0"/>
        <pt x="477" y="-158" on="0"/>
        <pt x="504" y="-158" on="1"/>
        <pt x="519" y="-158" on="0"/>
        <pt x="533" y="-162" on="0"/>
        <pt x="533" y="-176" on="1"/>
        <pt x="533" y="-181" on="0"/>
        <pt x="529" y="-194" on="0"/>
        <pt x="516" y="-194" on="1"/>
        <pt x="505" y="-194" on="0"/>
        <pt x="469" y="-193" on="0"/>
        <pt x="431" y="-191" on="0"/>
        <pt x="395" y="-190" on="0"/>
        <pt x="384" y="-190" on="1"/>
        <pt x="368" y="-190" on="0"/>
        <pt x="335" y="-191" on="0"/>
        <pt x="319" y="-191" on="1"/>
        <pt x="303" y="-191" on="0"/>
        <pt x="268" y="-194" on="0"/>
        <pt x="252" y="-194" on="1"/>
        <pt x="239" y="-194" on="0"/>
        <pt x="235" y="-181" on="0"/>
        <pt x="235" y="-176" on="1"/>
        <pt x="235" y="-162" on="0"/>
        <pt x="249" y="-158" on="0"/>
        <pt x="269" y="-158" on="1"/>
        <pt x="296" y="-158" on="0"/>
        <pt x="326" y="-155" on="0"/>
        <pt x="340" y="-145" on="0"/>
        <pt x="342" y="-128" on="0"/>
        <pt x="342" y="-113" on="1"/>
        <pt x="342" y="0" on="1"/>
        <pt x="78" y="0" on="1"/>
        <pt x="59" y="0" on="0"/>
        <pt x="47" y="6" on="0"/>
        <pt x="47" y="23" on="1"/>
        <pt x="47" y="32" on="0"/>
        <pt x="50" y="40" on="0"/>
        <pt x="58" y="50" on="1"/>
        <pt x="375" y="446" on="1"/>
        <pt x="383" y="456" on="0"/>
        <pt x="391" y="461" on="0"/>
        <pt x="404" y="461" on="1"/>
        <pt x="421" y="461" on="0"/>
        <pt x="426" y="449" on="0"/>
        <pt x="426" y="431" on="1"/>
      </contour>
      <contour>
        <pt x="86" y="36" on="1"/>
        <pt x="349" y="36" on="1"/>
        <pt x="349" y="365" on="1"/>
      </contour>
    </TTGlyph>
    <TTGlyph name="g" xMin="43" yMin="-204" xMax="536" yMax="441">
      <contour>
        <pt x="423" y="-67" on="1"/>
        <pt x="418" y="-88" on="0"/>
        <pt x="386" y="-137" on="0"/>
        <pt x="329" y="-177" on="0"/>
        <pt x="244" y="-204" on="0"/>
        <pt x="185" y="-204" on="1"/>
        <pt x="164" y="-204" on="0"/>
        <pt x="114" y="-202" on="0"/>
        <pt x="72" y="-190" on="0"/>
        <pt x="43" y="-166" on="0"/>
        <pt x="43" y="-143" on="1"/>
        <pt x="43" y="-114" on="0"/>
        <pt x="79" y="-82" on="0"/>
        <pt x="100" y="-82" on="1"/>
        <pt x="115" y="-82" on="0"/>
        <pt x="139" y="-101" on="0"/>
        <pt x="139" y="-119" on="1"/>
        <pt x="139" y="-130" on="0"/>
        <pt x="126" y="-160" on="0"/>
        <pt x="107" y="-169" on="1"/>
        <pt x="114" y="-171" on="0"/>
        <pt x="127" y="-173" on="0"/>
        <pt x="143" y="-175" on="0"/>
        <pt x="167" y="-176" on="0"/>
        <pt x="184" y="-176" on="1"/>
        <pt x="193" y="-176" on="0"/>
        <pt x="218" y="-175" on="0"/>
        <pt x="247" y="-168" on="0"/>
        <pt x="280" y="-153" on="0"/>
        <pt x="296" y="-139" on="1"/>
        <pt x="310" y="-126" on="0"/>
        <pt x="328" y="-103" on="0"/>
        <pt x="340" y="-78" on="0"/>
        <pt x="348" y="-52" on="0"/>
        <pt x="352" y="-36" on="1"/>
        <pt x="374" y="54" on="1"/>
        <pt x="348" y="31" on="0"/>
        <pt x="284" y="0" on="0"/>
        <pt x="249" y="0" on="1"/>
        <pt x="218" y="0" on="0"/>
        <pt x="163" y="22" on="0"/>
        <pt x="121" y="64" on="0"/>
        <pt x="97" y="125" on="0"/>
        <pt x="97" y="164" on="1"/>
        <pt x="97" y="218" on="0"/>
        <pt x="142" y="318" on="0"/>
        <pt x="214" y="395" on="0"/>
        <pt x="306" y="441" on="0"/>
        <pt x="353" y="441" on="1"/>
        <pt x="392" y="441" on="0"/>
        <pt x="443" y="404" on="0"/>
        <pt x="456" y="384" on="1"/>
        <pt x="459" y="398" on="0"/>
        <pt x="485" y="422" on="0"/>
        <pt x="502" y="422" on="1"/>
        <pt x="514" y="422" on="0"/>
        <pt x="536" y="407" on="0"/>
        <pt x="536" y="390" on="1"/>
        <pt x="536" y="389" on="0"/>
        <pt x="535" y="380" on="0"/>
        <pt x="532" y="369" on="1"/>
      </contour>
      <contour>
        <pt x="439" y="313" on="1"/>
        <pt x="441" y="321" on="0"/>
        <pt x="442" y="326" on="0"/>
        <pt x="442" y="328" on="1"/>
        <pt x="442" y="332" on="0"/>
        <pt x="434" y="359" on="0"/>
        <pt x="414" y="389" on="0"/>
        <pt x="379" y="413" on="0"/>
        <pt x="353" y="413" on="1"/>
        <pt x="327" y="413" on="0"/>
        <pt x="262" y="376" on="0"/>
        <pt x="230" y="323" on="1"/>
        <pt x="220" y="307" on="0"/>
        <pt x="201" y="252" on="0"/>
        <pt x="186" y="194" on="0"/>
        <pt x="177" y="140" on="0"/>
        <pt x="177" y="123" on="1"/>
        <pt x="177" y="84" on="0"/>
        <pt x="214" y="28" on="0"/>
        <pt x="252" y="28" on="1"/>
        <pt x="271" y="28" on="0"/>
        <pt x="316" y="46" on="0"/>
        <pt x="357" y="76" on="0"/>
        <pt x="389" y="114" on="0"/>
        <pt x="394" y="133" on="1"/>
      </contour>
    </TTGlyph>
    <TTGlyph name="gamma" xMin="34" yMin="-214" xMax="611" yMax="441">
      <contour>
        <pt x="447" y="140" on="1"/>
        <pt x="464" y="186" on="0"/>
        <pt x="506" y="281" on="0"/>
        <pt x="545" y="361" on="0"/>
        <pt x="576" y="418" on="0"/>
        <pt x="580" y="426" on="1"/>
        <pt x="582" y="430" on="0"/>
        <pt x="593" y="431" on="0"/>
        <pt x="595" y="431" on="1"/>
        <pt x="597" y="431" on="0"/>
        <pt x="611" y="428" on="0"/>
        <pt x="611" y="419" on="1"/>
        <pt x="611" y="414" on="0"/>
        <pt x="606" y="406" on="1"/>
        <pt x="571" y="340" on="0"/>
        <pt x="535" y="264" on="0"/>
        <pt x="524" y="241" on="1"/>
        <pt x="516" y="223" on="0"/>
        <pt x="490" y="160" on="0"/>
        <pt x="464" y="94" on="0"/>
        <pt x="445" y="36" on="0"/>
        <pt x="443" y="23" on="1"/>
        <pt x="440" y="-4" on="0"/>
        <pt x="430" y="-58" on="0"/>
        <pt x="420" y="-106" on="0"/>
        <pt x="409" y="-147" on="0"/>
        <pt x="404" y="-162" on="1"/>
        <pt x="398" y="-182" on="0"/>
        <pt x="388" y="-203" on="0"/>
        <pt x="379" y="-212" on="0"/>
        <pt x="373" y="-214" on="0"/>
        <pt x="370" y="-214" on="1"/>
        <pt x="360" y="-214" on="0"/>
        <pt x="353" y="-198" on="0"/>
        <pt x="353" y="-190" on="1"/>
        <pt x="353" y="-179" on="0"/>
        <pt x="363" y="-130" on="0"/>
        <pt x="379" y="-68" on="0"/>
        <pt x="397" y="-2" on="0"/>
        <pt x="406" y="26" on="1"/>
        <pt x="409" y="34" on="0"/>
        <pt x="413" y="61" on="0"/>
        <pt x="413" y="98" on="1"/>
        <pt x="413" y="136" on="0"/>
        <pt x="401" y="228" on="0"/>
        <pt x="363" y="308" on="0"/>
        <pt x="291" y="361" on="0"/>
        <pt x="231" y="361" on="1"/>
        <pt x="206" y="361" on="0"/>
        <pt x="155" y="348" on="0"/>
        <pt x="111" y="323" on="0"/>
        <pt x="77" y="288" on="0"/>
        <pt x="69" y="266" on="1"/>
        <pt x="65" y="255" on="0"/>
        <pt x="60" y="249" on="0"/>
        <pt x="50" y="249" on="1"/>
        <pt x="48" y="249" on="0"/>
        <pt x="34" y="252" on="0"/>
        <pt x="34" y="261" on="1"/>
        <pt x="34" y="262" on="0"/>
        <pt x="40" y="285" on="0"/>
        <pt x="56" y="320" on="0"/>
        <pt x="84" y="362" on="0"/>
        <pt x="107" y="383" on="1"/>
        <pt x="128" y="403" on="0"/>
        <pt x="200" y="441" on="0"/>
        <pt x="245" y="441" on="1"/>
        <pt x="286" y="441" on="0"/>
        <pt x="347" y="404" on="0"/>
        <pt x="391" y="347" on="0"/>
        <pt x="420" y="277" on="0"/>
        <pt x="437" y="210" on="0"/>
        <pt x="446" y="155" on="0"/>
      </contour>
    </TTGlyph>
    <TTGlyph name="greater" xMin="108" yMin="-76" xMax="784" yMax="577">
      <contour>
        <pt x="151" y="-70" on="1"/>
        <pt x="142" y="-75" on="0"/>
        <pt x="134" y="-76" on="0"/>
        <pt x="133" y="-76" on="1"/>
        <pt x="122" y="-76" on="0"/>
        <pt x="108" y="-62" on="0"/>
        <pt x="108" y="-51" on="1"/>
        <pt x="108" y="-41" on="0"/>
        <pt x="121" y="-30" on="0"/>
        <pt x="130" y="-25" on="1"/>
        <pt x="703" y="251" on="1"/>
        <pt x="129" y="527" on="1"/>
        <pt x="122" y="530" on="0"/>
        <pt x="108" y="541" on="0"/>
        <pt x="108" y="552" on="1"/>
        <pt x="108" y="563" on="0"/>
        <pt x="122" y="577" on="0"/>
        <pt x="133" y="577" on="1"/>
        <pt x="135" y="577" on="0"/>
        <pt x="142" y="575" on="0"/>
        <pt x="153" y="570" on="1"/>
        <pt x="763" y="276" on="1"/>
        <pt x="771" y="272" on="0"/>
        <pt x="784" y="262" on="0"/>
        <pt x="784" y="250" on="1"/>
        <pt x="784" y="240" on="0"/>
        <pt x="771" y="229" on="0"/>
        <pt x="762" y="224" on="1"/>
      </contour>
    </TTGlyph>
    <TTGlyph name="h" xMin="75" yMin="-10" xMax="620" yMax="694">
      <contour>
        <pt x="237" y="358" on="1"/>
        <pt x="265" y="390" on="0"/>
        <pt x="345" y="441" on="0"/>
        <pt x="400" y="441" on="1"/>
        <pt x="456" y="441" on="0"/>
        <pt x="530" y="387" on="0"/>
        <pt x="530" y="327" on="1"/>
        <pt x="530" y="306" on="0"/>
        <pt x="517" y="249" on="0"/>
        <pt x="499" y="193" on="0"/>
        <pt x="482" y="146" on="0"/>
        <pt x="477" y="134" on="1"/>
        <pt x="470" y="117" on="0"/>
        <pt x="461" y="94" on="0"/>
        <pt x="456" y="76" on="0"/>
        <pt x="454" y="62" on="0"/>
        <pt x="454" y="53" on="1"/>
        <pt x="454" y="37" on="0"/>
        <pt x="463" y="18" on="0"/>
        <pt x="479" y="18" on="1"/>
        <pt x="508" y="18" on="0"/>
        <pt x="568" y="79" on="0"/>
        <pt x="585" y="139" on="1"/>
        <pt x="588" y="147" on="0"/>
        <pt x="593" y="156" on="0"/>
        <pt x="604" y="156" on="1"/>
        <pt x="606" y="156" on="0"/>
        <pt x="620" y="153" on="0"/>
        <pt x="620" y="143" on="1"/>
        <pt x="620" y="137" on="0"/>
        <pt x="603" y="88" on="0"/>
        <pt x="568" y="34" on="0"/>
        <pt x="514" y="-10" on="0"/>
        <pt x="476" y="-10" on="1"/>
        <pt x="457" y="-10" on="0"/>
        <pt x="422" y="2" on="0"/>
        <pt x="396" y="24" on="0"/>
        <pt x="381" y="56" on="0"/>
        <pt x="381" y="76" on="1"/>
        <pt x="381" y="89" on="0"/>
        <pt x="388" y="109" on="0"/>
        <pt x="396" y="130" on="1"/>
        <pt x="402" y="146" on="0"/>
        <pt x="422" y="199" on="0"/>
        <pt x="441" y="260" on="0"/>
        <pt x="455" y="321" on="0"/>
        <pt x="455" y="343" on="1"/>
        <pt x="455" y="352" on="0"/>
        <pt x="452" y="376" on="0"/>
        <pt x="441" y="398" on="0"/>
        <pt x="417" y="413" on="0"/>
        <pt x="396" y="413" on="1"/>
        <pt x="367" y="413" on="0"/>
        <pt x="318" y="394" on="0"/>
        <pt x="279" y="363" on="0"/>
        <pt x="248" y="325" on="0"/>
        <pt x="236" y="307" on="1"/>
        <pt x="229" y="295" on="0"/>
        <pt x="220" y="281" on="0"/>
        <pt x="214" y="267" on="0"/>
        <pt x="210" y="250" on="0"/>
        <pt x="206" y="236" on="1"/>
        <pt x="205" y="230" on="0"/>
        <pt x="200" y="212" on="0"/>
        <pt x="196" y="192" on="0"/>
        <pt x="191" y="174" on="0"/>
        <pt x="190" y="168" on="1"/>
        <pt x="167" y="79" on="1"/>
        <pt x="163" y="63" on="0"/>
        <pt x="152" y="21" on="0"/>
        <pt x="150" y="16" on="1"/>
        <pt x="142" y="0" on="0"/>
        <pt x="117" y="-10" on="0"/>
        <pt x="109" y="-10" on="1"/>
        <pt x="92" y="-10" on="0"/>
        <pt x="75" y="11" on="0"/>
        <pt x="75" y="22" on="1"/>
        <pt x="75" y="24" on="0"/>
        <pt x="76" y="30" on="0"/>
        <pt x="80" y="44" on="1"/>
        <pt x="221" y="610" on="1"/>
        <pt x="223" y="617" on="0"/>
        <pt x="225" y="627" on="0"/>
        <pt x="225" y="632" on="1"/>
        <pt x="225" y="635" on="0"/>
        <pt x="224" y="640" on="0"/>
        <pt x="215" y="645" on="0"/>
        <pt x="195" y="647" on="0"/>
        <pt x="177" y="647" on="1"/>
        <pt x="168" y="647" on="0"/>
        <pt x="151" y="650" on="0"/>
        <pt x="151" y="661" on="1"/>
        <pt x="151" y="677" on="0"/>
        <pt x="167" y="683" on="0"/>
        <pt x="173" y="684" on="1"/>
        <pt x="182" y="685" on="0"/>
        <pt x="219" y="688" on="0"/>
        <pt x="259" y="691" on="0"/>
        <pt x="294" y="694" on="0"/>
        <pt x="301" y="694" on="1"/>
        <pt x="310" y="694" on="0"/>
        <pt x="317" y="684" on="0"/>
        <pt x="317" y="680" on="1"/>
        <pt x="317" y="679" on="0"/>
        <pt x="314" y="666" on="0"/>
        <pt x="313" y="664" on="1"/>
      </contour>
    </TTGlyph>
    <TTGlyph name="i" xMin="47" yMin="-10" xMax="350" yMax="663">
      <contour>
        <pt x="324" y="625" on="1"/>
        <pt x="324" y="605" on="0"/>
        <pt x="290" y="570" on="0"/>
        <pt x="268" y="570" on="1"/>
        <pt x="248" y="570" on="0"/>
        <pt x="228" y="595" on="0"/>
        <pt x="228" y="608" on="1"/>
        <pt x="228" y="630" on="0"/>
        <pt x="264" y="663" on="0"/>
        <pt x="284" y="663" on="1"/>
        <pt x="305" y="663" on="0"/>
        <pt x="324" y="637" on="0"/>
      </contour>
      <contour>
        <pt x="183" y="278" on="1"/>
        <pt x="192" y="301" on="0"/>
        <pt x="204" y="332" on="0"/>
        <pt x="211" y="353" on="0"/>
        <pt x="214" y="369" on="0"/>
        <pt x="214" y="378" on="1"/>
        <pt x="214" y="398" on="0"/>
        <pt x="201" y="413" on="0"/>
        <pt x="189" y="413" on="1"/>
        <pt x="161" y="413" on="0"/>
        <pt x="102" y="356" on="0"/>
        <pt x="82" y="291" on="1"/>
        <pt x="80" y="283" on="0"/>
        <pt x="75" y="275" on="0"/>
        <pt x="64" y="275" on="1"/>
        <pt x="62" y="275" on="0"/>
        <pt x="47" y="278" on="0"/>
        <pt x="47" y="288" on="1"/>
        <pt x="47" y="294" on="0"/>
        <pt x="64" y="344" on="0"/>
        <pt x="100" y="398" on="0"/>
        <pt x="155" y="441" on="0"/>
        <pt x="192" y="441" on="1"/>
        <pt x="233" y="441" on="0"/>
        <pt x="287" y="391" on="0"/>
        <pt x="287" y="356" on="1"/>
        <pt x="287" y="348" on="0"/>
        <pt x="283" y="332" on="0"/>
        <pt x="281" y="324" on="1"/>
        <pt x="280" y="320" on="0"/>
        <pt x="266" y="285" on="0"/>
        <pt x="250" y="245" on="0"/>
        <pt x="235" y="206" on="0"/>
        <pt x="232" y="197" on="1"/>
        <pt x="224" y="177" on="0"/>
        <pt x="208" y="137" on="0"/>
        <pt x="200" y="117" on="1"/>
        <pt x="193" y="100" on="0"/>
        <pt x="184" y="70" on="0"/>
        <pt x="184" y="53" on="1"/>
        <pt x="184" y="36" on="0"/>
        <pt x="194" y="18" on="0"/>
        <pt x="209" y="18" on="1"/>
        <pt x="238" y="18" on="0"/>
        <pt x="298" y="79" on="0"/>
        <pt x="315" y="139" on="1"/>
        <pt x="318" y="147" on="0"/>
        <pt x="323" y="156" on="0"/>
        <pt x="334" y="156" on="1"/>
        <pt x="336" y="156" on="0"/>
        <pt x="350" y="153" on="0"/>
        <pt x="350" y="143" on="1"/>
        <pt x="350" y="137" on="0"/>
        <pt x="333" y="88" on="0"/>
        <pt x="298" y="34" on="0"/>
        <pt x="244" y="-10" on="0"/>
        <pt x="206" y="-10" on="1"/>
        <pt x="165" y="-10" on="0"/>
        <pt x="111" y="40" on="0"/>
        <pt x="111" y="75" on="1"/>
        <pt x="111" y="88" on="0"/>
        <pt x="117" y="107" on="0"/>
        <pt x="120" y="117" on="1"/>
      </contour>
    </TTGlyph>
</ttFont>
